<svg width="24" height="24" viewBox="0 0 24 24" fill="none" xmlns="http://www.w3.org/2000/svg">
<path d="M18.7939 18.8878C18.7952 17.9045 18.7946 14.449 18.794 11.2204C18.7935 8.44573 18.793 5.83863 18.7939 5.11249V5.11226C18.7935 4.79089 18.6656 4.48279 18.4384 4.25555C18.2111 4.0283 17.903 3.90047 17.5817 3.90009L17.5815 3.90009C16.7077 3.90034 14.3011 3.90022 11.9732 3.90012C9.92795 3.90002 7.94341 3.89993 7.11228 3.90009L7.11218 3.90009C6.79081 3.90047 6.48271 4.0283 6.25546 4.25555C6.02821 4.48279 5.90038 4.79089 5.9 5.11227V5.11239L5.9 18.8877L5.9 18.8878C5.90038 19.2092 6.02821 19.5173 6.25546 19.7445C6.48271 19.9718 6.79081 20.0996 7.11218 20.1H7.1123H17.5816H17.5817C17.903 20.0996 18.2111 19.9718 18.4384 19.7445C18.6656 19.5173 18.7935 19.2092 18.7939 18.8878ZM18.7939 18.8878L18.6939 18.8877M18.7939 18.8878L18.6939 18.8877M18.6939 18.8877C18.6935 19.1826 18.5762 19.4653 18.3677 19.6738C18.1592 19.8823 17.8764 19.9997 17.5816 20L6 5.11239C6.00035 4.81749 6.11765 4.53478 6.32617 4.32626C6.53469 4.11774 6.81741 4.00044 7.1123 4.00009C7.94335 3.99993 9.92787 4.00002 11.9731 4.00012C14.3011 4.00022 16.7078 4.00034 17.5816 4.00009C17.8764 4.00044 18.1592 4.11774 18.3677 4.32626C18.5762 4.53478 18.6935 4.81749 18.6939 5.11238C18.693 5.83914 18.6935 8.44588 18.694 11.2202C18.6946 14.4485 18.6952 17.9038 18.6939 18.8877ZM14.7164 4.67151V6.76542V6.76553C14.7167 7.08687 14.8445 7.39496 15.0717 7.62219C15.299 7.84941 15.6071 7.97722 15.9284 7.97758H15.9285H18.0224V18.8876C18.0223 19.0045 17.9758 19.1166 17.8931 19.1993C17.8105 19.282 17.6984 19.3285 17.5814 19.3286H7.11241C6.99549 19.3285 6.8834 19.282 6.80072 19.1993C6.71805 19.1166 6.67155 19.0045 6.67143 18.8876V5.11249C6.67143 5.11247 6.67143 5.11245 6.67143 5.11244C6.67156 4.99554 6.71806 4.88347 6.80072 4.80081C6.8834 4.71814 6.99549 4.67164 7.11241 4.67151L14.7164 4.67151ZM15.4878 5.21695L17.477 7.20615H15.9286C15.8118 7.20601 15.6997 7.15952 15.6171 7.07687C15.5344 6.99423 15.4879 6.88217 15.4878 6.7653V5.21695ZM18.0224 5.11249V6.66071L16.0332 4.67151L17.5814 4.67151C17.5815 4.67151 17.5815 4.67151 17.5815 4.67151C17.6984 4.67165 17.8105 4.71815 17.8931 4.80081C17.9758 4.88348 18.0223 4.99557 18.0224 5.11249Z" fill="black" stroke="black" stroke-width="0.2"/>
<path d="M10.0592 12.3858L10.0592 12.3858H10.0612H11.9612V14.2858H11.9612L11.9613 14.2878C11.9633 14.3888 12.0048 14.4849 12.0769 14.5556C12.149 14.6263 12.246 14.6659 12.347 14.6659C12.4479 14.6659 12.5449 14.6263 12.617 14.5556C12.6891 14.4849 12.7306 14.3888 12.7326 14.2878L12.7327 14.2878V14.2858V12.3858H14.6326C14.7349 12.3858 14.8331 12.3452 14.9054 12.2729C14.9777 12.2005 15.0184 12.1024 15.0184 12.0001C15.0184 11.8978 14.9777 11.7997 14.9054 11.7274C14.8331 11.6551 14.7349 11.6144 14.6326 11.6144H12.7327V9.71442C12.7327 9.61213 12.692 9.51402 12.6197 9.44168C12.5474 9.36935 12.4492 9.32871 12.3469 9.32871C12.2446 9.32871 12.1465 9.36935 12.0742 9.44168C12.0019 9.51402 11.9612 9.61213 11.9612 9.71442V11.6144H10.0612V11.6144L10.0592 11.6144C9.95829 11.6165 9.86215 11.658 9.79146 11.7301C9.72078 11.8022 9.68119 11.8991 9.68119 12.0001C9.68119 12.1011 9.72078 12.1981 9.79146 12.2702C9.86215 12.3423 9.95829 12.3838 10.0592 12.3858Z" fill="black" stroke="black" stroke-width="0.2"/>
</svg>
