<svg width="25" height="24" viewBox="0 0 25 24" fill="none" xmlns="http://www.w3.org/2000/svg">
<path d="M12.5 3C12.2348 3 11.9804 3.10536 11.7929 3.29289C11.6054 3.48043 11.5 3.73478 11.5 4V20C11.5 20.2652 11.6054 20.5196 11.7929 20.7071C11.9804 20.8946 12.2348 21 12.5 21C12.7652 21 13.0196 20.8946 13.2071 20.7071C13.3946 20.5196 13.5 20.2652 13.5 20V4C13.5 3.73478 13.3946 3.48043 13.2071 3.29289C13.0196 3.10536 12.7652 3 12.5 3ZM8.5 5C8.23478 5 7.98043 5.10536 7.79289 5.29289C7.60536 5.48043 7.5 5.73478 7.5 6V18C7.5 18.2652 7.60536 18.5196 7.79289 18.7071C7.98043 18.8946 8.23478 19 8.5 19C8.76522 19 9.01957 18.8946 9.20711 18.7071C9.39464 18.5196 9.5 18.2652 9.5 18V6C9.5 5.73478 9.39464 5.48043 9.20711 5.29289C9.01957 5.10536 8.76522 5 8.5 5ZM4.5 7C4.23478 7 3.98043 7.10536 3.79289 7.29289C3.60536 7.48043 3.5 7.73478 3.5 8V16C3.5 16.2652 3.60536 16.5196 3.79289 16.7071C3.98043 16.8946 4.23478 17 4.5 17C4.76522 17 5.01957 16.8946 5.20711 16.7071C5.39464 16.5196 5.5 16.2652 5.5 16V8C5.5 7.73478 5.39464 7.48043 5.20711 7.29289C5.01957 7.10536 4.76522 7 4.5 7ZM16.5 5C16.2348 5 15.9804 5.10536 15.7929 5.29289C15.6054 5.48043 15.5 5.73478 15.5 6V18C15.5 18.2652 15.6054 18.5196 15.7929 18.7071C15.9804 18.8946 16.2348 19 16.5 19C16.7652 19 17.0196 18.8946 17.2071 18.7071C17.3946 18.5196 17.5 18.2652 17.5 18V6C17.5 5.73478 17.3946 5.48043 17.2071 5.29289C17.0196 5.10536 16.7652 5 16.5 5ZM20.5 7C20.2348 7 19.9804 7.10536 19.7929 7.29289C19.6054 7.48043 19.5 7.73478 19.5 8V16C19.5 16.2652 19.6054 16.5196 19.7929 16.7071C19.9804 16.8946 20.2348 17 20.5 17C20.7652 17 21.0196 16.8946 21.2071 16.7071C21.3946 16.5196 21.5 16.2652 21.5 16V8C21.5 7.73478 21.3946 7.48043 21.2071 7.29289C21.0196 7.10536 20.7652 7 20.5 7Z" fill="#062D47"/>
</svg>
