<svg width="24" height="25" viewBox="0 0 24 25" fill="none" xmlns="http://www.w3.org/2000/svg">
<g clip-path="url(#clip0_32_380)">
<path d="M12 0.5C8.55 0.5 5.25 2 2.925 4.625L1.875 3.575L1.35 7.325L5.1 6.8L3.975 5.675C6 3.35 8.925 2 12 2C17.775 2 22.5 6.725 22.5 12.5C22.5 18.275 17.775 23 12 23C6.225 23 1.5 18.275 1.5 12.5H0C0 19.1 5.4 24.5 12 24.5C18.6 24.5 24 19.1 24 12.5C24 5.9 18.6 0.5 12 0.5Z" fill="white"/>
<path d="M15 17C16.65 17 18 15.65 18 14C18 12.575 17.025 11.375 15.675 11.075C15.375 9.35 13.875 8 12 8C10.125 8 8.625 9.35 8.325 11.075C6.975 11.375 6 12.575 6 14C6 15.65 7.35 17 9 17H15ZM7.5 14C7.5 13.175 8.175 12.5 9 12.5H9.75V11.75C9.75 10.475 10.725 9.5 12 9.5C13.275 9.5 14.25 10.475 14.25 11.75V12.5H15C15.825 12.5 16.5 13.175 16.5 14C16.5 14.825 15.825 15.5 15 15.5H9C8.175 15.5 7.5 14.825 7.5 14Z" fill="white"/>
</g>
<defs>
<clipPath id="clip0_32_380">
<rect width="24" height="24" fill="white" transform="translate(0 0.5)"/>
</clipPath>
</defs>
</svg>
