<svg width="40" height="40" viewBox="0 0 40 40" fill="none" xmlns="http://www.w3.org/2000/svg">
<g clip-path="url(#clip0_278_10090)">
<path d="M37.692 21.1463C37.4045 21.1463 37.117 21.0088 36.9295 20.7588C31.3045 12.9963 25.417 9.13383 19.492 9.38383C9.87948 9.73383 3.04198 20.5963 2.97948 20.7088C2.70448 21.1463 2.12948 21.2838 1.69198 21.0088C1.25448 20.7338 1.11698 20.1588 1.39198 19.7213C1.69198 19.2338 8.80448 7.89631 19.4295 7.50883C26.0545 7.28383 32.4545 11.3588 38.467 19.6588C38.767 20.0838 38.6795 20.6588 38.2545 20.9713C38.0795 21.0838 37.892 21.1463 37.692 21.1463Z" fill="#002244"/>
<path d="M19.9051 32.9216C13.4801 32.9216 7.26762 28.8342 1.43014 20.7592C1.13014 20.3466 1.21764 19.7591 1.64264 19.4466C2.05514 19.1466 2.64264 19.2341 2.95514 19.6591C8.58014 27.4216 14.4677 31.2592 20.4051 31.0342C30.0301 30.6841 36.8426 19.8216 36.9051 19.7092C37.1801 19.2716 37.7551 19.1342 38.1926 19.3966C38.6301 19.6716 38.7676 20.2466 38.5051 20.6842C38.2051 21.1716 31.0926 32.5091 20.4676 32.8966C20.2801 32.9216 20.0926 32.9216 19.9051 32.9216Z" fill="#002244"/>
<path fill-rule="evenodd" clip-rule="evenodd" d="M23.4031 19.8715C21.8656 19.8715 20.6281 18.6215 20.6281 17.0965C20.6281 15.8965 21.3906 14.884 22.4531 14.4965C21.6906 14.159 20.8406 13.959 19.9406 13.959C16.4906 13.959 13.7031 16.759 13.7031 20.1965C13.7031 23.6465 16.5031 26.434 19.9406 26.434C23.3906 26.434 26.1781 23.634 26.1781 20.1965C26.1781 19.5465 26.0531 18.934 25.8656 18.3465C25.4031 19.259 24.4781 19.8715 23.4031 19.8715Z" fill="#002244"/>
</g>
<defs>
<clipPath id="clip0_278_10090">
<rect width="40" height="40" fill="white"/>
</clipPath>
</defs>
</svg>
