<svg width="24" height="24" viewBox="0 0 24 24" fill="none" xmlns="http://www.w3.org/2000/svg">
<g clip-path="url(#clip0_102_3106)">
<g clip-path="url(#clip1_102_3106)">
<path d="M12.5 21.5625C18.0574 21.5625 22.5625 17.0574 22.5625 11.5C22.5625 5.94263 18.0574 1.4375 12.5 1.4375C6.94263 1.4375 2.4375 5.94263 2.4375 11.5C2.4375 17.0574 6.94263 21.5625 12.5 21.5625Z" fill="#C4E0FF"/>
<path d="M12.5 22C6.71039 22 2 17.2896 2 11.5C2 5.71039 6.71039 1 12.5 1C18.2896 1 23 5.71039 23 11.5C23 17.2896 18.2896 22 12.5 22ZM12.5 1.875C7.19275 1.875 2.875 6.19275 2.875 11.5C2.875 16.8073 7.19275 21.125 12.5 21.125C17.8073 21.125 22.125 16.8073 22.125 11.5C22.125 6.19275 17.8073 1.875 12.5 1.875Z" fill="black"/>
<path d="M12.5001 14.7303C14.2847 14.7303 15.7314 13.2836 15.7314 11.499C15.7314 9.71431 14.2847 8.26758 12.5001 8.26758C10.7154 8.26758 9.26868 9.71431 9.26868 11.499C9.26868 13.2836 10.7154 14.7303 12.5001 14.7303Z" fill="#2BA4F5"/>
<path d="M12.5001 15.168C10.4771 15.168 8.8313 13.5219 8.8313 11.4988C8.8313 9.47583 10.4771 7.83008 12.5001 7.83008C14.5231 7.83008 16.1693 9.47583 16.1693 11.4988C16.1693 13.5219 14.5231 15.168 12.5001 15.168ZM12.5001 8.70508C10.9594 8.70508 9.7063 9.95819 9.7063 11.4988C9.7063 13.0395 10.9594 14.293 12.5001 14.293C14.0407 14.293 15.2943 13.0395 15.2943 11.4988C15.2943 9.95819 14.0407 8.70508 12.5001 8.70508Z" fill="black"/>
<path d="M12.5001 12.9813C13.3182 12.9813 13.9814 12.3181 13.9814 11.4999C13.9814 10.6818 13.3182 10.0186 12.5001 10.0186C11.6819 10.0186 11.0187 10.6818 11.0187 11.4999C11.0187 12.3181 11.6819 12.9813 12.5001 12.9813Z" fill="white"/>
<path d="M12.5001 13.4176C11.4422 13.4176 10.5813 12.5567 10.5813 11.4988C10.5813 10.441 11.4422 9.58008 12.5001 9.58008C13.5579 9.58008 14.4188 10.441 14.4188 11.4988C14.4188 12.5567 13.5579 13.4176 12.5001 13.4176ZM12.5001 10.4551C11.9246 10.4551 11.4563 10.9233 11.4563 11.4988C11.4563 12.0743 11.9246 12.5426 12.5001 12.5426C13.0756 12.5426 13.5438 12.0743 13.5438 11.4988C13.5438 10.9233 13.0756 10.4551 12.5001 10.4551Z" fill="black"/>
<path d="M4.1875 11.9365C3.94568 11.9365 3.75 11.7408 3.75 11.499C3.75 6.67413 7.67511 2.74902 12.5 2.74902C12.7418 2.74902 12.9375 2.9447 12.9375 3.18652C12.9375 3.42834 12.7418 3.62402 12.5 3.62402C8.1579 3.62402 4.625 7.15692 4.625 11.499C4.625 11.7408 4.42932 11.9365 4.1875 11.9365Z" fill="black"/>
</g>
</g>
<defs>
<clipPath id="clip0_102_3106">
<rect width="24" height="24" fill="white"/>
</clipPath>
<clipPath id="clip1_102_3106">
<rect width="24" height="24" fill="white"/>
</clipPath>
</defs>
</svg>
