<svg width="24" height="24" viewBox="0 0 24 24" fill="none" xmlns="http://www.w3.org/2000/svg">
<g clip-path="url(#clip0_154_1152)">
<path d="M17.3929 6.53991C17.4123 6.52696 17.4341 6.51288 17.462 6.49882C17.8332 6.28483 18.1215 6.18825 18.3721 6.26656C18.6226 6.34487 18.8162 6.59203 19.0165 7.00683L19.0167 7.00743C19.0671 7.11536 19.1036 7.19341 19.1375 7.25226C19.1711 7.31053 19.2 7.34592 19.2333 7.37051C19.2665 7.39502 19.3079 7.41174 19.3718 7.42571C19.4365 7.43984 19.5196 7.45027 19.6348 7.46467L19.635 7.4647C20.0784 7.52192 20.3632 7.62354 20.5123 7.83551C20.6609 8.0466 20.6635 8.35148 20.5922 8.77965L20.5921 8.78012C20.5705 8.90238 20.5549 8.99105 20.5485 9.0617C20.542 9.13176 20.5452 9.17951 20.5583 9.22041C20.5714 9.26106 20.5958 9.29959 20.6402 9.34859C20.6851 9.39824 20.7474 9.45537 20.8338 9.53457L20.8346 9.53529C21.1643 9.85066 21.336 10.1137 21.3321 10.3829C21.3282 10.6514 21.1496 10.9068 20.8349 11.2072M17.3929 6.53991L20.8 11.1714M17.3929 6.53991V5.59286H19.4857C19.5828 5.59286 19.6676 5.56028 19.7282 5.49964C19.7889 5.439 19.8214 5.35422 19.8214 5.25714V4.51429C19.8214 3.6581 19.1133 2.95 18.2571 2.95H6.42857C5.57239 2.95 4.86429 3.6581 4.86429 4.51429V18.1214H3.28571C3.18864 18.1214 3.10386 18.154 3.04322 18.2146C2.98258 18.2753 2.95 18.3601 2.95 18.4571V19.4857C2.95 20.3419 3.6581 21.05 4.51429 21.05H15.8286C16.6848 21.05 17.3929 20.3419 17.3929 19.4857V17.1832L18.2207 18.0628L18.2207 18.0629L18.2218 18.0639C18.3204 18.1626 18.453 18.1954 18.5836 18.1628C18.7286 18.1265 18.7929 17.9843 18.7929 17.8571V14.1593C18.8785 14.0409 18.9615 13.8734 19.0173 13.7342C19.0674 13.6269 19.1037 13.5492 19.1375 13.4906C19.1711 13.4323 19.2 13.3969 19.2333 13.3724C19.2665 13.3478 19.3079 13.3311 19.3718 13.3172C19.4365 13.303 19.5196 13.2926 19.6348 13.2782L19.635 13.2782C20.0793 13.2208 20.3704 13.1118 20.5229 12.8968C20.6754 12.6818 20.6778 12.377 20.5919 11.9617M17.3929 6.53991L20.5429 11.9714M20.8349 11.2072C20.8348 11.2073 20.8347 11.2075 20.8345 11.2076L20.8 11.1714M20.8349 11.2072C20.8351 11.2071 20.8352 11.2069 20.8354 11.2068L20.8 11.1714M20.8349 11.2072C20.7489 11.2933 20.6864 11.3558 20.6413 11.4091C20.5965 11.462 20.5716 11.5027 20.5583 11.5439C20.5451 11.5849 20.5421 11.6309 20.5484 11.697C20.5549 11.7638 20.5704 11.8468 20.5919 11.9617M20.8 11.1714C20.4571 11.5143 20.4571 11.5143 20.5429 11.9714M20.5919 11.9617C20.5919 11.9616 20.5918 11.9614 20.5918 11.9613L20.5429 11.9714M20.5919 11.9617C20.5919 11.9619 20.592 11.962 20.592 11.9622L20.5429 11.9714M17.7661 7.10145L17.7661 7.10143C17.4659 7.25868 17.2562 7.34286 17.0464 7.34286C16.8362 7.34286 16.6336 7.25838 16.3473 7.10095L16.3469 7.10072C16.2318 7.03599 16.1473 6.98954 16.0803 6.96241C16.0131 6.93516 15.9729 6.93152 15.9433 6.94065C15.9138 6.94973 15.8827 6.97515 15.8428 7.03626C15.803 7.09713 15.7598 7.18494 15.7024 7.307L15.7023 7.30721C15.5596 7.60686 15.4479 7.79645 15.2794 7.91901C15.1109 8.04158 14.8919 8.09247 14.5491 8.13533L14.5484 8.13541C14.4185 8.14984 14.3256 8.16025 14.2582 8.17593C14.1905 8.19168 14.1601 8.21039 14.1443 8.23263C14.1278 8.25564 14.1188 8.29353 14.1227 8.36838C14.1265 8.44233 14.1421 8.54097 14.1636 8.67774C14.2207 9.02012 14.2374 9.24554 14.1725 9.44411C14.1075 9.64312 13.9628 9.80788 13.72 10.0364L13.7197 10.0366C13.6192 10.13 13.5468 10.1991 13.4993 10.2568C13.4516 10.3147 13.4357 10.3533 13.4357 10.3857C13.4357 10.4181 13.4516 10.4568 13.4993 10.5146C13.5468 10.5723 13.6192 10.6414 13.7197 10.7348L13.72 10.735C13.9628 10.9635 14.1075 11.1283 14.1725 11.3273C14.2375 11.5259 14.2207 11.7514 14.1636 12.0939L14.1633 12.096L14.1632 12.096L14.1601 12.1106C14.1329 12.24 14.1134 12.3324 14.1064 12.4015C14.0991 12.474 14.1073 12.5073 14.1221 12.5271C14.1376 12.5477 14.1692 12.566 14.2425 12.5835C14.3004 12.5974 14.3755 12.6091 14.4742 12.6244C14.498 12.6281 14.5232 12.632 14.5499 12.6362C14.8923 12.679 15.111 12.7299 15.2794 12.8524C15.4478 12.9749 15.5595 13.1644 15.7021 13.4638C15.7664 13.5924 15.8147 13.6817 15.8576 13.7414C15.9005 13.8012 15.9325 13.8232 15.9612 13.8299C15.9911 13.8367 16.0301 13.8301 16.095 13.8016C16.1439 13.7801 16.201 13.7492 16.2731 13.7103C16.2964 13.6978 16.3213 13.6844 16.3479 13.6702L16.3482 13.67C16.6485 13.5127 16.8581 13.4286 17.0714 13.4286C17.2848 13.4286 17.4943 13.5127 17.7946 13.67L17.7972 13.6713L17.7972 13.6714C17.8675 13.7136 17.9443 13.7555 18.0134 13.7865C18.0803 13.8167 18.1332 13.8335 18.1651 13.8355C18.1804 13.8303 18.1976 13.8192 18.2169 13.7999C18.2385 13.7783 18.2603 13.7488 18.2825 13.713C18.3172 13.6569 18.3497 13.5907 18.383 13.5228C18.3927 13.5032 18.4024 13.4835 18.4122 13.4638C18.5548 13.1644 18.6664 12.9749 18.8349 12.8524C19.0034 12.7298 19.2224 12.679 19.5652 12.6361L19.5659 12.636C19.6958 12.6216 19.7887 12.6112 19.8561 12.5955C19.9238 12.5797 19.9541 12.561 19.97 12.5388C19.9865 12.5158 19.9955 12.4779 19.9916 12.403C19.9877 12.3291 19.9722 12.2305 19.9506 12.0937C19.8936 11.7513 19.8768 11.5259 19.9418 11.3273C20.0068 11.1283 20.1515 10.9635 20.3943 10.735L20.3945 10.7348C20.4951 10.6414 20.5675 10.5723 20.615 10.5146C20.6626 10.4568 20.6786 10.4181 20.6786 10.3857C20.6786 10.3533 20.6626 10.3147 20.615 10.2568C20.5675 10.1991 20.4951 10.13 20.3945 10.0366L20.3943 10.0364C20.1515 9.80788 20.0068 9.64312 19.9418 9.44411C19.8768 9.24549 19.8936 9.02002 19.9507 8.67749L19.951 8.6754L19.9511 8.67541L19.9542 8.66072C19.9814 8.53136 20.0009 8.43903 20.0078 8.36997C20.0152 8.29743 20.007 8.26408 19.9921 8.24429C19.9767 8.2237 19.945 8.20545 19.8718 8.18791C19.8139 8.17404 19.7388 8.16237 19.6401 8.14704C19.6163 8.14334 19.5911 8.13943 19.5644 8.13523C19.5642 8.13519 19.5639 8.13514 19.5636 8.1351L19.5714 8.08571C18.8857 8 18.7429 7.88571 18.4571 7.28571L17.7661 7.10145ZM17.7661 7.10145L17.7674 7.10072C17.882 7.03622 17.9663 6.99171 18.0327 6.96693C18.099 6.94218 18.1391 6.94036 18.1694 6.95082C18.2002 6.96148 18.2318 6.98869 18.2718 7.04872C18.3116 7.10847 18.3548 7.19279 18.4122 7.30765L17.7661 7.10145ZM16.6929 17.1832L15.865 18.0628L15.8639 18.0639L15.8639 18.0639C15.7593 18.1686 15.622 18.1642 15.5022 18.1342L15.4984 18.1333L15.4985 18.1331C15.4426 18.1145 15.3917 18.0703 15.3553 18.0177C15.3186 17.9647 15.2929 17.8978 15.2929 17.8286V14.1567C15.2104 14.0192 15.1261 13.8777 15.0689 13.7354C15.012 13.6288 14.9706 13.5513 14.9329 13.4926C14.8953 13.4341 14.8637 13.3981 14.8282 13.3729C14.7929 13.3479 14.7501 13.3311 14.6858 13.3172C14.6207 13.303 14.5375 13.2926 14.4224 13.2782L14.4222 13.2782C13.9787 13.2209 13.694 13.1193 13.5448 12.9073C13.3963 12.6963 13.3936 12.3914 13.465 11.9632L13.465 11.9627C13.4866 11.8405 13.5022 11.7518 13.5087 11.6812C13.5151 11.6111 13.512 11.5633 13.4988 11.5224C13.4858 11.4818 13.4613 11.4433 13.4169 11.3943C13.372 11.3446 13.3098 11.2875 13.2234 11.2083L13.2226 11.2076C12.8929 10.8922 12.7211 10.6291 12.725 10.36C12.7289 10.0915 12.9075 9.8361 13.2222 9.53567C13.3083 9.44957 13.3707 9.38709 13.4159 9.33376C13.4607 9.28084 13.4856 9.2402 13.4988 9.19899C13.512 9.15794 13.5151 9.11192 13.5087 9.04586C13.5023 8.97905 13.4868 8.89601 13.4652 8.78107C13.4652 8.78093 13.4652 8.78079 13.4651 8.78064L13.5143 8.77143C13.3429 7.94286 13.5429 7.62857 14.4286 7.51429L16.6929 17.1832ZM16.6929 17.1832V19.4857C16.6929 19.9724 16.2867 20.3786 15.8 20.3786C15.3133 20.3786 14.9071 19.9724 14.9071 19.4857V18.4571C14.9071 18.3601 14.8746 18.2753 14.8139 18.2146C14.7533 18.154 14.6685 18.1214 14.5714 18.1214H5.53571V4.51429C5.53571 4.02761 5.9419 3.62143 6.42857 3.62143H16.9867C16.8131 3.86978 16.6929 4.1676 16.6929 4.51429V4.51464V4.51505V4.5155V4.51599V4.51654V4.51712V4.51776V4.51843V4.51916V4.51992V4.52074V4.52159V4.52249V4.52344V4.52443V4.52546V4.52654V4.52765V4.52882V4.53002V4.53127V4.53256V4.53389V4.53527V4.53668V4.53814V4.53964V4.54118V4.54277V4.54439V4.54606V4.54776V4.54951V4.55129V4.55312V4.55499V4.55689V4.55884V4.56082V4.56285V4.56491V4.56701V4.56915V4.57133V4.57355V4.57581V4.5781V4.58043V4.5828V4.58521V4.58765V4.59013V4.59265V4.5952V4.59779V4.60042V4.60308V4.60578V4.60851V4.61128V4.61409V4.61693V4.6198V4.62271V4.62566V4.62864V4.63165V4.6347V4.63778V4.64089V4.64404V4.64722V4.65043V4.65368V4.65696V4.66027V4.66362V4.667V4.6704V4.67384V4.67732V4.68082V4.68436V4.68792V4.69152V4.69515V4.6988V4.70249V4.70621V4.70996V4.71374V4.71755V4.72138V4.72525V4.72915V4.73307V4.73702V4.74101V4.74501V4.74905V4.75312V4.75721V4.76133V4.76548V4.76966V4.77386V4.77809V4.78234V4.78663V4.79094V4.79527V4.79963V4.80402V4.80843V4.81287V4.81733V4.82182V4.82633V4.83086V4.83543V4.84001V4.84462V4.84925V4.85391V4.85859V4.86329V4.86802V4.87277V4.87754V4.88233V4.88715V4.89199V4.89685V4.90173V4.90664V4.91157V4.91651V4.92148V4.92647V4.93148V4.93651V4.94156V4.94663V4.95172V4.95683V4.96196V4.96711V4.97228V4.97747V4.98267V4.9879V4.99314V4.99841V5.00369V5.00898V5.0143V5.01963V5.02498V5.03035V5.03574V5.04114V5.04655V5.05199V5.05744V5.06291V5.06839V5.07389V5.0794V5.08493V5.09048V5.09603V5.10161V5.1072V5.1128V5.11842V5.12405V5.12969V5.13535V5.14102V5.14671V5.15241V5.15812V5.16384V5.16958V5.17533V5.18109V5.18686V5.19265V5.19845V5.20425V5.21007V5.2159V5.22175V5.2276V5.23346V5.23933V5.24522V5.25111V5.25701V5.26292V5.26884V5.27478V5.28071V5.28666V5.29262V5.29859V5.30456V5.31054V5.31653V5.32253V5.32854V5.33455V5.34057V5.34659V5.35263V5.35867V5.36472V5.37077V5.37683V5.38289V5.38896V5.39504V5.40112V5.40721V5.4133V5.41939V5.42549V5.4316V5.43771V5.44382V5.44994V5.45606V5.46218V5.46831V5.47444V5.48058V5.48671V5.49285V5.49899V5.50513V5.51128V5.51743V5.52358V5.52973V5.53588V5.54203V5.54818V5.55434V5.56049V5.56665V5.5728V5.57896V5.58511V5.59127V5.59742V5.60357V5.60972V5.61587V5.62202V5.62817V5.63432V5.64046V5.6466V5.65274V5.65888V5.66501V5.67115V5.67728V5.6834V5.68952V5.69564V5.70176V5.70787V5.71397V5.72008V5.72618V5.73227V5.73836V5.74444V5.75052V5.75659V5.76266V5.76872V5.77478V5.78082V5.78687V5.7929V5.79893V5.80496V5.81097V5.81698V5.82298V5.82897V5.83496V5.84094V5.8469V5.85287V5.85882V5.86476V5.8707V5.87662V5.88254V5.88844V5.89434V5.90023V5.9061V5.91197V5.91783V5.92367V5.92951V5.93533V5.94114V5.94695V5.95273V5.95851V5.96428V5.97003V5.97578V5.9815V5.98722V5.99292V5.99862V6.00429V6.00996V6.01561V6.02125V6.02687V6.03248V6.03807V6.04365V6.04922V6.05477V6.0603V6.06582V6.07133V6.07682V6.08229V6.08775V6.09319V6.09861V6.10402V6.10941V6.11479V6.12014V6.12549V6.13081V6.13611V6.1414V6.14667V6.15192V6.15715V6.16237V6.16756V6.17274V6.1779V6.18303V6.18815V6.19325V6.19833V6.20339V6.20843V6.21345V6.21844V6.22342V6.22838V6.23331V6.23822V6.24312V6.24799V6.25283V6.25766V6.26246V6.26725V6.272V6.27674V6.28145V6.28614V6.29081V6.29545V6.30007V6.30466V6.30924V6.31378V6.3183V6.3228V6.32727V6.33172V6.33614V6.34054V6.34491V6.34926V6.35357V6.35787V6.36213V6.36637V6.37059V6.37477V6.37893V6.38307V6.38717V6.39125V6.3953V6.39932V6.40331V6.40728V6.41121V6.41512V6.419V6.42285V6.42667V6.43046V6.43422V6.43795V6.44165V6.44532V6.44896V6.45257V6.45615V6.4597V6.46321V6.4667V6.47015V6.47357V6.47696V6.48032V6.48365V6.48694V6.4902V6.49343V6.49662V6.49979V6.50291V6.50601V6.50907V6.5121V6.51509V6.51805V6.52097V6.52386V6.52671V6.52953V6.53232V6.53507V6.53778V6.53991M16.6929 17.1832V6.53991M16.6929 6.53991C16.6731 6.5268 16.6511 6.51254 16.6227 6.49831L16.6929 6.53991ZM17.265 16.1086L17.265 16.1086L17.2639 16.1075C17.1643 16.0079 17.0622 16.0071 17.0286 16.0071C16.9579 16.0071 16.9054 16.0339 16.8687 16.0584C16.8569 16.0663 16.8448 16.0753 16.8358 16.082C16.8321 16.0848 16.829 16.0872 16.8266 16.0889C16.8241 16.0906 16.8223 16.0919 16.8209 16.0929H16.807L16.7922 16.1086L15.9643 16.9882V14.5055C16.1876 14.4907 16.4078 14.3806 16.6161 14.2764L16.6224 14.2733L16.6224 14.2733L16.6235 14.2727C16.7314 14.2151 16.8096 14.1735 16.8741 14.146C16.9379 14.1188 16.9844 14.1071 17.0286 14.1071C17.0727 14.1071 17.1192 14.1188 17.1831 14.146C17.2476 14.1735 17.3257 14.2151 17.4336 14.2727L17.4336 14.2727L17.4348 14.2733C17.4558 14.2838 17.4767 14.2944 17.4976 14.305C17.6858 14.4003 17.8696 14.4934 18.0929 14.5058V16.9882L17.265 16.1086ZM19.1214 4.51429V4.92143H17.3643V4.51429C17.3643 4.02761 17.7705 3.62143 18.2571 3.62143C18.7418 3.62143 19.1214 4.02559 19.1214 4.51429ZM3.62143 18.7929H14.2643V19.4857C14.2643 19.8037 14.3596 20.123 14.5517 20.3786H4.51429C4.02761 20.3786 3.62143 19.9724 3.62143 19.4857V18.7929Z" fill="white" stroke="white" stroke-width="0.1"/>
<path d="M7.17146 13.0786H10.5429C10.64 13.0786 10.7247 13.046 10.7854 12.9854C10.846 12.9247 10.8786 12.8399 10.8786 12.7429V9.00001C10.8786 8.90293 10.846 8.81815 10.7854 8.75751C10.7247 8.69687 10.64 8.66429 10.5429 8.66429H7.17146C7.07438 8.66429 6.9896 8.69687 6.92896 8.75751C6.86832 8.81815 6.83574 8.90293 6.83574 9.00001V12.7429C6.83574 12.9451 7.00429 13.0786 7.17146 13.0786ZM7.50717 9.33572H10.2072V12.4071H7.50717V9.33572ZM13.0857 14.2929H7.17146C7.07438 14.2929 6.9896 14.3254 6.92896 14.3861C6.86832 14.4467 6.83574 14.5315 6.83574 14.6286C6.83574 14.7257 6.86832 14.8104 6.92896 14.8711C6.9896 14.9317 7.07438 14.9643 7.17146 14.9643H13.0857C13.1828 14.9643 13.2676 14.9317 13.3282 14.8711C13.3889 14.8104 13.4215 14.7257 13.4215 14.6286C13.4215 14.5315 13.3889 14.4467 13.3282 14.3861C13.2676 14.3254 13.1828 14.2929 13.0857 14.2929ZM13.0857 16.15H7.17146C7.07438 16.15 6.9896 16.1826 6.92896 16.2432C6.86832 16.3039 6.83574 16.3886 6.83574 16.4857C6.83574 16.5828 6.86832 16.6676 6.92896 16.7282C6.9896 16.7889 7.07438 16.8214 7.17146 16.8214H13.0857C13.1828 16.8214 13.2676 16.7889 13.3282 16.7282C13.3889 16.6676 13.4215 16.5828 13.4215 16.4857C13.4215 16.3886 13.3889 16.3039 13.3282 16.2432C13.2676 16.1826 13.1828 16.15 13.0857 16.15ZM7.17146 7.47858H13.0572C13.1542 7.47858 13.239 7.446 13.2997 7.38536C13.3603 7.32472 13.3929 7.23994 13.3929 7.14286C13.3929 7.04579 13.3603 6.96101 13.2997 6.90037C13.239 6.83973 13.1542 6.80715 13.0572 6.80715H7.17146C7.07438 6.80715 6.9896 6.83973 6.92896 6.90037C6.86832 6.96101 6.83574 7.04579 6.83574 7.14286C6.83574 7.3451 7.00429 7.47858 7.17146 7.47858ZM7.17146 5.59286H15.0572C15.1542 5.59286 15.239 5.56029 15.2997 5.49965C15.3603 5.43901 15.3929 5.35423 15.3929 5.25715C15.3929 5.16007 15.3603 5.07529 15.2997 5.01465C15.239 4.95401 15.1542 4.92144 15.0572 4.92144H7.17146C7.07438 4.92144 6.9896 4.95401 6.92896 5.01465C6.86832 5.07529 6.83574 5.16007 6.83574 5.25715C6.83574 5.45939 7.00429 5.59286 7.17146 5.59286ZM14.8357 10.3714C14.8357 11.5986 15.8291 12.5929 17.0286 12.5929C18.2562 12.5929 19.25 11.599 19.25 10.3714C19.25 9.14296 18.2553 8.17858 17.0286 8.17858C15.8006 8.17858 14.8357 9.17283 14.8357 10.3714ZM18.5786 10.3714C18.5786 11.2295 17.8867 11.9214 17.0286 11.9214C16.1717 11.9214 15.5072 11.2307 15.5072 10.3714C15.5072 9.51393 16.1985 8.85001 17.0286 8.85001C17.8873 8.85001 18.5786 9.54249 18.5786 10.3714Z" fill="white" stroke="white" stroke-width="0.1"/>
</g>
<defs>
<clipPath id="clip0_154_1152">
<rect width="24" height="24" fill="white"/>
</clipPath>
</defs>
</svg>
