<svg width="20" height="20" viewBox="0 0 20 20" fill="none" xmlns="http://www.w3.org/2000/svg">
<path d="M5.41732 14.9999H5.83398V15.4166C5.83398 15.9691 6.05348 16.499 6.44418 16.8897C6.83488 17.2804 7.36478 17.4999 7.91732 17.4999H15.4173C15.9699 17.4999 16.4998 17.2804 16.8905 16.8897C17.2812 16.499 17.5007 15.9691 17.5007 15.4166V7.91659C17.5007 7.36405 17.2812 6.83415 16.8905 6.44345C16.4998 6.05275 15.9699 5.83325 15.4173 5.83325H15.0007V5.41659C15.0007 4.86405 14.7812 4.33415 14.3905 3.94345C13.9998 3.55275 13.4699 3.33325 12.9173 3.33325H5.41732C4.86478 3.33325 4.33488 3.55275 3.94418 3.94345C3.55348 4.33415 3.33398 4.86405 3.33398 5.41659V12.9166C3.33398 13.4691 3.55348 13.999 3.94418 14.3897C4.33488 14.7804 4.86478 14.9999 5.41732 14.9999ZM15.4173 6.66659C15.7488 6.66659 16.0668 6.79828 16.3012 7.0327C16.5356 7.26712 16.6673 7.58506 16.6673 7.91659V15.4166C16.6673 15.7481 16.5356 16.066 16.3012 16.3005C16.0668 16.5349 15.7488 16.6666 15.4173 16.6666H7.91732C7.5858 16.6666 7.26785 16.5349 7.03343 16.3005C6.79901 16.066 6.66732 15.7481 6.66732 15.4166V14.9999H12.9173C13.4699 14.9999 13.9998 14.7804 14.3905 14.3897C14.7812 13.999 15.0007 13.4691 15.0007 12.9166V6.66659H15.4173ZM4.16732 5.41659C4.16732 5.08506 4.29901 4.76712 4.53343 4.5327C4.76785 4.29828 5.0858 4.16659 5.41732 4.16659H12.9173C13.2488 4.16659 13.5668 4.29828 13.8012 4.5327C14.0356 4.76712 14.1673 5.08506 14.1673 5.41659V12.9166C14.1673 13.2481 14.0356 13.566 13.8012 13.8005C13.5668 14.0349 13.2488 14.1666 12.9173 14.1666H5.41732C5.0858 14.1666 4.76785 14.0349 4.53343 13.8005C4.29901 13.566 4.16732 13.2481 4.16732 12.9166V5.41659Z" fill="#0061C0"/>
</svg>
