<svg width="22" height="22" viewBox="0 0 22 22" fill="none" xmlns="http://www.w3.org/2000/svg">
<path d="M11 21.8002C16.9646 21.8002 21.8 16.9649 21.8 11.0002C21.8 5.03552 16.9646 0.200195 11 0.200195C5.03528 0.200195 0.199951 5.03552 0.199951 11.0002C0.199951 16.9649 5.03528 21.8002 11 21.8002Z" fill="#EE685C"/>
<path d="M14.7971 13.4397L12.3576 11.0002L14.7971 8.5607C14.8863 8.47155 14.957 8.36573 15.0052 8.24925C15.0535 8.13278 15.0783 8.00795 15.0783 7.88188C15.0783 7.75581 15.0535 7.63097 15.0052 7.5145C14.957 7.39803 14.8863 7.2922 14.7971 7.20305C14.708 7.11391 14.6022 7.0432 14.4857 6.99495C14.3692 6.94671 14.2444 6.92188 14.1183 6.92188C13.9922 6.92188 13.8674 6.94671 13.7509 6.99495C13.6345 7.0432 13.5286 7.11391 13.4395 7.20305L11 9.64257L8.56045 7.20305C8.47131 7.11391 8.36548 7.0432 8.24901 6.99495C8.13254 6.94671 8.0077 6.92188 7.88163 6.92188C7.75556 6.92188 7.63073 6.94671 7.51426 6.99495C7.39778 7.0432 7.29195 7.11391 7.20281 7.20305C7.11366 7.2922 7.04295 7.39803 6.99471 7.5145C6.94646 7.63097 6.92163 7.75581 6.92163 7.88188C6.92163 8.00795 6.94646 8.13278 6.99471 8.24925C7.04295 8.36573 7.11366 8.47155 7.20281 8.5607L9.64233 11.0002L7.20281 13.4397C7.11366 13.5289 7.04295 13.6347 6.99471 13.7512C6.94646 13.8677 6.92163 13.9925 6.92163 14.1186C6.92163 14.2446 6.94646 14.3695 6.99471 14.4859C7.04295 14.6024 7.11366 14.7082 7.20281 14.7974C7.29195 14.8865 7.39778 14.9572 7.51426 15.0055C7.63073 15.0537 7.75556 15.0786 7.88163 15.0786C8.0077 15.0786 8.13254 15.0537 8.24901 15.0055C8.36548 14.9572 8.47131 14.8865 8.56045 14.7974L11 12.3579L13.4395 14.7974C13.5286 14.8865 13.6345 14.9572 13.7509 15.0055C13.8674 15.0537 13.9922 15.0786 14.1183 15.0786C14.2444 15.0786 14.3692 15.0537 14.4857 15.0055C14.6022 14.9572 14.708 14.8865 14.7971 14.7974C14.8863 14.7082 14.957 14.6024 15.0052 14.4859C15.0535 14.3695 15.0783 14.2446 15.0783 14.1186C15.0783 13.9925 15.0535 13.8677 15.0052 13.7512C14.957 13.6347 14.8863 13.5289 14.7971 13.4397Z" fill="white"/>
</svg>
