<svg width="20" height="21" viewBox="0 0 20 21" fill="none" xmlns="http://www.w3.org/2000/svg">
<mask id="path-1-outside-1_53_235" maskUnits="userSpaceOnUse" x="0" y="0" width="20" height="21" fill="black">
<rect fill="white" width="20" height="21"/>
<path d="M12.2268 1H16.8179C17.4177 1 17.9637 1.24513 18.3588 1.64117C18.7539 2.03626 19 2.58227 19 3.18211V7.77319C19 8.37303 18.7539 8.91904 18.3588 9.31413C17.9637 9.70921 17.4177 9.9553 16.8179 9.9553H12.2268C11.627 9.9553 11.081 9.70921 10.6859 9.31413C10.2908 8.91904 10.0447 8.37303 10.0447 7.77319V3.18211C10.0447 2.58227 10.2908 2.03626 10.6859 1.64117C11.081 1.24609 11.627 1 12.2268 1ZM17.2966 13.2775H13.9398C13.6928 13.2775 13.4669 13.3794 13.3034 13.5428C13.2195 13.6264 13.1528 13.7257 13.1073 13.835C13.0618 13.9444 13.0383 14.0617 13.0381 14.1801V17.536C13.0381 17.784 13.14 18.0099 13.3034 18.1733C13.4669 18.3367 13.6928 18.4386 13.9398 18.4386H17.2966C17.5437 18.4386 17.7696 18.3367 17.9339 18.1733C18.0974 18.0099 18.1993 17.784 18.1993 17.536V14.1801C18.1993 13.9321 18.0974 13.7062 17.9339 13.5428C17.8504 13.4588 17.7511 13.3922 17.6417 13.3466C17.5323 13.3011 17.4151 13.2776 17.2966 13.2775ZM13.9398 12.4767H17.2966C17.7648 12.4767 18.1906 12.668 18.4992 12.9766C18.8077 13.2842 18.999 13.7101 18.999 14.1792V17.535C18.999 18.0041 18.8077 18.43 18.4992 18.7376C18.1906 19.0461 17.7648 19.2374 17.2966 19.2374H13.9398C13.4717 19.2374 13.0458 19.0461 12.7372 18.7376C12.4287 18.43 12.2374 18.0041 12.2374 17.535V14.1792C12.2374 13.7101 12.4287 13.2842 12.7372 12.9766C13.0458 12.668 13.4717 12.4767 13.9398 12.4767ZM7.77319 12.1816H3.18211C2.8024 12.1816 2.4573 12.3374 2.20641 12.5873C1.95551 12.8382 1.80075 13.1833 1.80075 13.563V18.1541C1.80075 18.5338 1.95648 18.8789 2.20641 19.1298C2.4573 19.3807 2.8024 19.5354 3.18211 19.5354H7.77319C8.1529 19.5354 8.498 19.3807 8.74889 19.1298C8.99979 18.8789 9.15455 18.5338 9.15455 18.1541V13.563C9.15455 13.1833 8.99979 12.8382 8.74889 12.5873C8.498 12.3374 8.1529 12.1816 7.77319 12.1816ZM3.18211 11.3809H7.77319C8.37303 11.3809 8.91904 11.627 9.31413 12.0221C9.70921 12.4171 9.9553 12.9632 9.9553 13.563V18.1541C9.9553 18.7539 9.70921 19.2999 9.31413 19.695C8.91904 20.0901 8.37303 20.3362 7.77319 20.3362H3.18211C2.58227 20.3362 2.03626 20.0901 1.64117 19.695C1.24609 19.2999 1 18.7539 1 18.1541V13.563C1 12.9632 1.24609 12.4171 1.64117 12.0221C2.03626 11.627 2.58227 11.3809 3.18211 11.3809ZM2.70339 2.09682H6.06019C6.52833 2.09682 6.95418 2.28812 7.26275 2.59669C7.57132 2.90526 7.76262 3.33111 7.76262 3.80021V7.15605C7.76262 7.62419 7.57132 8.05004 7.26275 8.35861C6.95418 8.66718 6.52833 8.85848 6.06019 8.85848H2.70339C2.23525 8.85848 1.8094 8.66718 1.50083 8.35861C1.19226 8.05004 1.00096 7.62419 1.00096 7.15605V3.80021C1.00096 3.33111 1.19226 2.90526 1.50083 2.59669C1.8094 2.28812 2.23525 2.09682 2.70339 2.09682ZM6.06019 2.89757H2.70339C2.45634 2.89757 2.23044 2.99947 2.06606 3.16288C1.98209 3.24644 1.91543 3.34575 1.8699 3.45511C1.82437 3.56448 1.80087 3.68175 1.80075 3.80021V7.15605C1.80075 7.40406 1.90264 7.629 2.06606 7.79338C2.22948 7.9568 2.45538 8.05869 2.70339 8.05869H6.06019C6.30724 8.05869 6.53314 7.9568 6.69656 7.79338C6.85997 7.62996 6.96187 7.40406 6.96187 7.15605V3.80021C6.96187 3.5522 6.85997 3.3263 6.69656 3.16288C6.61313 3.079 6.51398 3.01239 6.40479 2.96686C6.29559 2.92134 6.17849 2.89779 6.06019 2.89757ZM16.8179 1.80075H12.2268C11.8481 1.80075 11.502 1.95648 11.2511 2.20641C11.0002 2.4573 10.8454 2.8024 10.8454 3.18211V7.77319C10.8454 8.1529 11.0002 8.498 11.2511 8.74889C11.502 8.99883 11.8471 9.15455 12.2268 9.15455H16.8179C17.1976 9.15455 17.5427 8.99979 17.7936 8.74889C18.0445 8.498 18.1993 8.1529 18.1993 7.77319V3.18211C18.1993 2.8024 18.0435 2.4573 17.7936 2.20641C17.5427 1.95551 17.1976 1.80075 16.8179 1.80075Z"/>
</mask>
<path d="M12.2268 1H16.8179C17.4177 1 17.9637 1.24513 18.3588 1.64117C18.7539 2.03626 19 2.58227 19 3.18211V7.77319C19 8.37303 18.7539 8.91904 18.3588 9.31413C17.9637 9.70921 17.4177 9.9553 16.8179 9.9553H12.2268C11.627 9.9553 11.081 9.70921 10.6859 9.31413C10.2908 8.91904 10.0447 8.37303 10.0447 7.77319V3.18211C10.0447 2.58227 10.2908 2.03626 10.6859 1.64117C11.081 1.24609 11.627 1 12.2268 1ZM17.2966 13.2775H13.9398C13.6928 13.2775 13.4669 13.3794 13.3034 13.5428C13.2195 13.6264 13.1528 13.7257 13.1073 13.835C13.0618 13.9444 13.0383 14.0617 13.0381 14.1801V17.536C13.0381 17.784 13.14 18.0099 13.3034 18.1733C13.4669 18.3367 13.6928 18.4386 13.9398 18.4386H17.2966C17.5437 18.4386 17.7696 18.3367 17.9339 18.1733C18.0974 18.0099 18.1993 17.784 18.1993 17.536V14.1801C18.1993 13.9321 18.0974 13.7062 17.9339 13.5428C17.8504 13.4588 17.7511 13.3922 17.6417 13.3466C17.5323 13.3011 17.4151 13.2776 17.2966 13.2775ZM13.9398 12.4767H17.2966C17.7648 12.4767 18.1906 12.668 18.4992 12.9766C18.8077 13.2842 18.999 13.7101 18.999 14.1792V17.535C18.999 18.0041 18.8077 18.43 18.4992 18.7376C18.1906 19.0461 17.7648 19.2374 17.2966 19.2374H13.9398C13.4717 19.2374 13.0458 19.0461 12.7372 18.7376C12.4287 18.43 12.2374 18.0041 12.2374 17.535V14.1792C12.2374 13.7101 12.4287 13.2842 12.7372 12.9766C13.0458 12.668 13.4717 12.4767 13.9398 12.4767ZM7.77319 12.1816H3.18211C2.8024 12.1816 2.4573 12.3374 2.20641 12.5873C1.95551 12.8382 1.80075 13.1833 1.80075 13.563V18.1541C1.80075 18.5338 1.95648 18.8789 2.20641 19.1298C2.4573 19.3807 2.8024 19.5354 3.18211 19.5354H7.77319C8.1529 19.5354 8.498 19.3807 8.74889 19.1298C8.99979 18.8789 9.15455 18.5338 9.15455 18.1541V13.563C9.15455 13.1833 8.99979 12.8382 8.74889 12.5873C8.498 12.3374 8.1529 12.1816 7.77319 12.1816ZM3.18211 11.3809H7.77319C8.37303 11.3809 8.91904 11.627 9.31413 12.0221C9.70921 12.4171 9.9553 12.9632 9.9553 13.563V18.1541C9.9553 18.7539 9.70921 19.2999 9.31413 19.695C8.91904 20.0901 8.37303 20.3362 7.77319 20.3362H3.18211C2.58227 20.3362 2.03626 20.0901 1.64117 19.695C1.24609 19.2999 1 18.7539 1 18.1541V13.563C1 12.9632 1.24609 12.4171 1.64117 12.0221C2.03626 11.627 2.58227 11.3809 3.18211 11.3809ZM2.70339 2.09682H6.06019C6.52833 2.09682 6.95418 2.28812 7.26275 2.59669C7.57132 2.90526 7.76262 3.33111 7.76262 3.80021V7.15605C7.76262 7.62419 7.57132 8.05004 7.26275 8.35861C6.95418 8.66718 6.52833 8.85848 6.06019 8.85848H2.70339C2.23525 8.85848 1.8094 8.66718 1.50083 8.35861C1.19226 8.05004 1.00096 7.62419 1.00096 7.15605V3.80021C1.00096 3.33111 1.19226 2.90526 1.50083 2.59669C1.8094 2.28812 2.23525 2.09682 2.70339 2.09682ZM6.06019 2.89757H2.70339C2.45634 2.89757 2.23044 2.99947 2.06606 3.16288C1.98209 3.24644 1.91543 3.34575 1.8699 3.45511C1.82437 3.56448 1.80087 3.68175 1.80075 3.80021V7.15605C1.80075 7.40406 1.90264 7.629 2.06606 7.79338C2.22948 7.9568 2.45538 8.05869 2.70339 8.05869H6.06019C6.30724 8.05869 6.53314 7.9568 6.69656 7.79338C6.85997 7.62996 6.96187 7.40406 6.96187 7.15605V3.80021C6.96187 3.5522 6.85997 3.3263 6.69656 3.16288C6.61313 3.079 6.51398 3.01239 6.40479 2.96686C6.29559 2.92134 6.17849 2.89779 6.06019 2.89757ZM16.8179 1.80075H12.2268C11.8481 1.80075 11.502 1.95648 11.2511 2.20641C11.0002 2.4573 10.8454 2.8024 10.8454 3.18211V7.77319C10.8454 8.1529 11.0002 8.498 11.2511 8.74889C11.502 8.99883 11.8471 9.15455 12.2268 9.15455H16.8179C17.1976 9.15455 17.5427 8.99979 17.7936 8.74889C18.0445 8.498 18.1993 8.1529 18.1993 7.77319V3.18211C18.1993 2.8024 18.0435 2.4573 17.7936 2.20641C17.5427 1.95551 17.1976 1.80075 16.8179 1.80075Z" fill="white"/>
<path d="M12.2268 1H16.8179C17.4177 1 17.9637 1.24513 18.3588 1.64117C18.7539 2.03626 19 2.58227 19 3.18211V7.77319C19 8.37303 18.7539 8.91904 18.3588 9.31413C17.9637 9.70921 17.4177 9.9553 16.8179 9.9553H12.2268C11.627 9.9553 11.081 9.70921 10.6859 9.31413C10.2908 8.91904 10.0447 8.37303 10.0447 7.77319V3.18211C10.0447 2.58227 10.2908 2.03626 10.6859 1.64117C11.081 1.24609 11.627 1 12.2268 1ZM17.2966 13.2775H13.9398C13.6928 13.2775 13.4669 13.3794 13.3034 13.5428C13.2195 13.6264 13.1528 13.7257 13.1073 13.835C13.0618 13.9444 13.0383 14.0617 13.0381 14.1801V17.536C13.0381 17.784 13.14 18.0099 13.3034 18.1733C13.4669 18.3367 13.6928 18.4386 13.9398 18.4386H17.2966C17.5437 18.4386 17.7696 18.3367 17.9339 18.1733C18.0974 18.0099 18.1993 17.784 18.1993 17.536V14.1801C18.1993 13.9321 18.0974 13.7062 17.9339 13.5428C17.8504 13.4588 17.7511 13.3922 17.6417 13.3466C17.5323 13.3011 17.4151 13.2776 17.2966 13.2775ZM13.9398 12.4767H17.2966C17.7648 12.4767 18.1906 12.668 18.4992 12.9766C18.8077 13.2842 18.999 13.7101 18.999 14.1792V17.535C18.999 18.0041 18.8077 18.43 18.4992 18.7376C18.1906 19.0461 17.7648 19.2374 17.2966 19.2374H13.9398C13.4717 19.2374 13.0458 19.0461 12.7372 18.7376C12.4287 18.43 12.2374 18.0041 12.2374 17.535V14.1792C12.2374 13.7101 12.4287 13.2842 12.7372 12.9766C13.0458 12.668 13.4717 12.4767 13.9398 12.4767ZM7.77319 12.1816H3.18211C2.8024 12.1816 2.4573 12.3374 2.20641 12.5873C1.95551 12.8382 1.80075 13.1833 1.80075 13.563V18.1541C1.80075 18.5338 1.95648 18.8789 2.20641 19.1298C2.4573 19.3807 2.8024 19.5354 3.18211 19.5354H7.77319C8.1529 19.5354 8.498 19.3807 8.74889 19.1298C8.99979 18.8789 9.15455 18.5338 9.15455 18.1541V13.563C9.15455 13.1833 8.99979 12.8382 8.74889 12.5873C8.498 12.3374 8.1529 12.1816 7.77319 12.1816ZM3.18211 11.3809H7.77319C8.37303 11.3809 8.91904 11.627 9.31413 12.0221C9.70921 12.4171 9.9553 12.9632 9.9553 13.563V18.1541C9.9553 18.7539 9.70921 19.2999 9.31413 19.695C8.91904 20.0901 8.37303 20.3362 7.77319 20.3362H3.18211C2.58227 20.3362 2.03626 20.0901 1.64117 19.695C1.24609 19.2999 1 18.7539 1 18.1541V13.563C1 12.9632 1.24609 12.4171 1.64117 12.0221C2.03626 11.627 2.58227 11.3809 3.18211 11.3809ZM2.70339 2.09682H6.06019C6.52833 2.09682 6.95418 2.28812 7.26275 2.59669C7.57132 2.90526 7.76262 3.33111 7.76262 3.80021V7.15605C7.76262 7.62419 7.57132 8.05004 7.26275 8.35861C6.95418 8.66718 6.52833 8.85848 6.06019 8.85848H2.70339C2.23525 8.85848 1.8094 8.66718 1.50083 8.35861C1.19226 8.05004 1.00096 7.62419 1.00096 7.15605V3.80021C1.00096 3.33111 1.19226 2.90526 1.50083 2.59669C1.8094 2.28812 2.23525 2.09682 2.70339 2.09682ZM6.06019 2.89757H2.70339C2.45634 2.89757 2.23044 2.99947 2.06606 3.16288C1.98209 3.24644 1.91543 3.34575 1.8699 3.45511C1.82437 3.56448 1.80087 3.68175 1.80075 3.80021V7.15605C1.80075 7.40406 1.90264 7.629 2.06606 7.79338C2.22948 7.9568 2.45538 8.05869 2.70339 8.05869H6.06019C6.30724 8.05869 6.53314 7.9568 6.69656 7.79338C6.85997 7.62996 6.96187 7.40406 6.96187 7.15605V3.80021C6.96187 3.5522 6.85997 3.3263 6.69656 3.16288C6.61313 3.079 6.51398 3.01239 6.40479 2.96686C6.29559 2.92134 6.17849 2.89779 6.06019 2.89757ZM16.8179 1.80075H12.2268C11.8481 1.80075 11.502 1.95648 11.2511 2.20641C11.0002 2.4573 10.8454 2.8024 10.8454 3.18211V7.77319C10.8454 8.1529 11.0002 8.498 11.2511 8.74889C11.502 8.99883 11.8471 9.15455 12.2268 9.15455H16.8179C17.1976 9.15455 17.5427 8.99979 17.7936 8.74889C18.0445 8.498 18.1993 8.1529 18.1993 7.77319V3.18211C18.1993 2.8024 18.0435 2.4573 17.7936 2.20641C17.5427 1.95551 17.1976 1.80075 16.8179 1.80075Z" stroke="white" stroke-width="0.4" mask="url(#path-1-outside-1_53_235)"/>
</svg>
