<svg width="24" height="24" viewBox="0 0 24 24" fill="none" xmlns="http://www.w3.org/2000/svg">
<g clip-path="url(#clip0_102_3362)">
<g clip-path="url(#clip1_102_3362)">
<path d="M4.72547 0.363281H15.7444V20.288H0.760742V3.83492L4.72547 0.363281Z" fill="#459FD8"/>
<path d="M6.54761 1.93457H17.5665V21.8593H2.58289V5.40621L6.54761 1.93457Z" fill="#E4E4E4"/>
<path d="M8.31959 3.71191H19.3385V23.6366H4.35486V7.18355L8.31959 3.71191Z" fill="white"/>
<path d="M18.0065 22.3041V5.04297H8.82034L5.68689 7.78733V22.3041H18.0065Z" fill="#E4E4E4"/>
<path d="M16.8264 18.4752L21.4401 13.8616C21.8519 13.4498 22.5195 13.4498 22.9313 13.8616C23.3431 14.2734 23.3431 14.941 22.9313 15.3528L18.3177 19.9664L16.2668 20.5261L16.8264 18.4752Z" fill="white"/>
<path d="M22.1779 16.1062L22.9313 15.3528C23.343 14.941 23.343 14.2734 22.9313 13.8616C22.5195 13.4498 21.8518 13.4498 21.44 13.8616L20.6866 14.615L22.1779 16.1062Z" fill="#459FD8"/>
<path d="M23.0599 13.7328C22.593 13.2654 21.7785 13.2654 21.3115 13.7328L19.5203 15.524V3.52964H17.7485V1.75193H15.9262V0.181641H4.65706L0.579102 3.75266V20.47H2.40121V22.0407H4.17321V23.818H19.5203V19.0206L22.1779 16.363L23.0599 15.481C23.5379 15.0034 23.5448 14.218 23.0599 13.7328ZM22.8028 13.9899C23.1479 14.335 23.137 14.8897 22.8028 15.2239L22.1779 15.8488L20.9438 14.6149L21.5686 13.9899C21.8982 13.6603 22.4729 13.6603 22.8028 13.9899ZM0.942738 20.1063V3.91742L4.79376 0.545277H15.5626V1.75193H6.47932L2.40121 5.32331V20.1063H0.942738ZM2.76485 21.677V5.48808L6.61605 2.11557H17.3848V3.52964H8.25117L4.17321 7.10066V21.677H2.76485ZM19.1567 23.4544H4.53685V7.26542L8.38787 3.89328H19.1567V15.8876L16.6979 18.3464C16.6755 18.3688 16.6594 18.3965 16.651 18.427L16.0914 20.4778C16.0741 20.5407 16.0921 20.6081 16.1382 20.6543C16.1839 20.6997 16.2504 20.7185 16.3147 20.7012L18.3657 20.1415C18.3961 20.133 18.4239 20.117 18.4463 20.0946L19.1567 19.3842L19.1567 23.4544ZM18.2233 19.8034L16.526 20.2665L16.9891 18.5694L20.6866 14.8719L21.1751 15.3603L20.1409 16.3947C20.0699 16.4657 20.0699 16.5808 20.1409 16.6518C20.2119 16.7228 20.327 16.7228 20.398 16.6518L21.4322 15.6174L21.9208 16.1059L18.2233 19.8034Z" fill="#2F1854"/>
<path d="M13.5335 20.2306H7.20001C7.09953 20.2306 7.01819 20.3119 7.01819 20.4124C7.01819 20.5129 7.09953 20.5942 7.20001 20.5942H13.5335C13.634 20.5942 13.7153 20.5129 13.7153 20.4124C13.7153 20.3119 13.634 20.2306 13.5335 20.2306ZM15.4815 17.9845H7.20001C7.09953 17.9845 7.01819 18.0658 7.01819 18.1663C7.01819 18.2668 7.09953 18.3481 7.20001 18.3481H15.4815C15.5819 18.3481 15.6633 18.2668 15.6633 18.1663C15.6633 18.0658 15.5819 17.9845 15.4815 17.9845ZM7.20001 16.1017H16.4934C16.5938 16.1017 16.6752 16.0204 16.6752 15.9198C16.6752 15.8194 16.5938 15.738 16.4934 15.738H7.20001C7.09953 15.738 7.01819 15.8194 7.01819 15.9198C7.01819 16.0204 7.09953 16.1017 7.20001 16.1017ZM7.20001 13.8556H16.4934C16.5938 13.8556 16.6752 13.7742 16.6752 13.6738C16.6752 13.5733 16.5938 13.492 16.4934 13.492H7.20001C7.09953 13.492 7.01819 13.5733 7.01819 13.6738C7.01819 13.7742 7.09953 13.8556 7.20001 13.8556ZM7.20001 11.6091H16.4934C16.5938 11.6091 16.6752 11.5278 16.6752 11.4273C16.6752 11.3268 16.5938 11.2455 16.4934 11.2455H7.20001C7.09953 11.2455 7.01819 11.3268 7.01819 11.4273C7.01819 11.5278 7.09953 11.6091 7.20001 11.6091ZM7.20001 9.36304H16.4934C16.5938 9.36304 16.6752 9.2817 16.6752 9.18122C16.6752 9.08072 16.5938 8.99941 16.4934 8.99941H7.20001C7.09953 8.99941 7.01819 9.08072 7.01819 9.18122C7.01819 9.2817 7.09953 9.36304 7.20001 9.36304ZM11.5397 7.11657H16.4934C16.5938 7.11657 16.6752 7.03526 16.6752 6.93475C16.6752 6.83428 16.5938 6.75293 16.4934 6.75293H11.5397C11.4392 6.75293 11.3579 6.83428 11.3579 6.93475C11.3579 7.03526 11.4392 7.11657 11.5397 7.11657Z" fill="#2F1854"/>
</g>
</g>
<defs>
<clipPath id="clip0_102_3362">
<rect width="24" height="24" fill="white"/>
</clipPath>
<clipPath id="clip1_102_3362">
<rect width="24" height="24" fill="white"/>
</clipPath>
</defs>
</svg>
