<svg width="26" height="26" viewBox="0 0 26 26" fill="none" xmlns="http://www.w3.org/2000/svg">
<g clip-path="url(#clip0_117_8352)">
<path d="M16.9117 4.74512H19.0849C19.7803 4.74512 20.3888 5.35361 20.3888 6.04903V21.6959C20.3888 22.3914 19.7803 22.9998 19.0849 22.9998H6.91508C6.21967 22.9998 5.61118 22.3914 5.61118 21.6959V6.04903C5.61118 5.35361 6.21967 4.74512 6.91508 4.74512H9.08827" stroke="#062D47" stroke-opacity="0.6" stroke-width="1.6" stroke-linecap="round" stroke-linejoin="round"/>
<path d="M9.08829 12H16.9117M9.08829 14.3074H16.9117M9.08829 16.5H16.9117M9.08829 19H13.5M14.4778 3.8761C13.9562 3.00683 12.9131 2.74604 12.1307 3.26761C11.87 3.44146 11.6961 3.61532 11.5223 3.8761H9.95756C9.436 3.8761 9.08829 4.22381 9.08829 4.74537V5.18001C9.08829 5.87543 9.69678 6.48392 10.3922 6.48392H15.6078C16.3033 6.48392 16.9117 5.87543 16.9117 5.18001V4.74537C16.9117 4.22381 16.564 3.8761 16.0425 3.8761H14.4778Z" stroke="#647F91" stroke-width="1.5" stroke-linecap="round" stroke-linejoin="round"/>
</g>
<defs>
<clipPath id="clip0_117_8352">
<rect width="26" height="26" fill="white"/>
</clipPath>
</defs>
</svg>
