<svg width="22" height="22" viewBox="0 0 22 22" fill="none" xmlns="http://www.w3.org/2000/svg">
<g clip-path="url(#clip0_57_826)">
<path d="M10.6759 13.6156C10.7617 13.7017 10.8784 13.7501 11 13.7499C11.1216 13.75 11.2382 13.7017 11.324 13.6156L15.449 9.49064C15.6206 9.313 15.6206 9.03141 15.449 8.85378C15.2731 8.67172 14.983 8.66668 14.8009 8.84253L11.4583 12.1852V2.29159C11.4583 2.03847 11.2531 1.83325 11 1.83325C10.7469 1.83325 10.5416 2.03847 10.5416 2.29159V12.1852L7.19898 8.84259C7.0214 8.67105 6.73981 8.67105 6.56217 8.84259C6.38011 9.01843 6.37508 9.30858 6.55092 9.49064L10.6759 13.6156ZM19.7083 12.8333C19.4552 12.8333 19.25 13.0385 19.25 13.2916V17.8749C19.2491 18.634 18.634 19.2491 17.875 19.2499H4.12498C3.36592 19.2491 2.75082 18.634 2.74998 17.8749V13.2916C2.74998 13.0385 2.54476 12.8333 2.29165 12.8333C2.03853 12.8333 1.83331 13.0385 1.83331 13.2916V17.8749C1.83449 19.1401 2.85981 20.1654 4.12498 20.1666H17.875C19.1402 20.1654 20.1655 19.1401 20.1666 17.8749V13.2916C20.1666 13.0385 19.9614 12.8333 19.7083 12.8333Z" fill="#062D47" fill-opacity="0.6"/>
<path d="M15.5462 9.58788L15.5462 9.58787L11.4214 13.7127L11.4212 13.7129L11.324 13.6156C11.2382 13.7017 11.1216 13.75 11 13.7499L15.5462 9.58788ZM15.5462 9.58788L15.5479 9.58617M15.5462 9.58788L15.5479 9.58617M10.5785 13.7127L10.5787 13.7129L10.6759 13.6156L10.5785 13.7127ZM10.5785 13.7127L6.4537 9.58787L6.45201 9.58618L6.45202 9.58617C6.22342 9.34949 6.22997 8.97229 6.46664 8.74369L6.46665 8.74368C6.69757 8.52069 7.06363 8.52067 7.29451 8.74369L7.29622 8.74534L7.29621 8.74536L10.4041 11.8532V2.29159C10.4041 1.96253 10.6709 1.69575 11 1.69575C11.329 1.69575 11.5958 1.96253 11.5958 2.29159V11.8532M10.5785 13.7127L11.5958 11.8532M15.5479 9.58617C15.7709 9.35525 15.7709 8.98917 15.5479 8.75824C15.3193 8.52157 14.9421 8.51503 14.7054 8.74363L14.7037 8.7453M15.5479 9.58617L14.7037 8.7453M14.7037 8.7453L11.5958 11.8532M14.7037 8.7453L11.5958 11.8532M1.69581 17.8749L1.69581 17.875C1.69706 19.2161 2.78384 20.3028 4.12485 20.3041H4.12498H17.875H17.8751C19.2161 20.3028 20.3029 19.2161 20.3041 17.875V17.8749V13.2916C20.3041 12.9625 20.0374 12.6958 19.7083 12.6958C19.3793 12.6958 19.1125 12.9625 19.1125 13.2916V17.8748C19.1117 18.558 18.5581 19.1117 17.8748 19.1124H4.12513C3.44193 19.1117 2.88829 18.5581 2.88748 17.8749C2.88748 17.8748 2.88748 17.8748 2.88748 17.8748L2.88748 13.2916C2.88748 12.9625 2.6207 12.6958 2.29165 12.6958C1.96259 12.6958 1.69581 12.9625 1.69581 13.2916L1.69581 17.8749Z" stroke="#062D47" stroke-opacity="0.6" stroke-width="0.275"/>
</g>
<defs>
<clipPath id="clip0_57_826">
<rect width="22" height="22" fill="white"/>
</clipPath>
</defs>
</svg>
