<svg width="40" height="40" viewBox="0 0 40 40" fill="none" xmlns="http://www.w3.org/2000/svg">
<path d="M11.7798 5C10.9769 5 10.2111 5.34355 9.67773 5.9436L8.5376 7.22656C8.45221 7.31798 8.38597 7.42555 8.3428 7.54296C8.29962 7.66036 8.28037 7.78522 8.28619 7.91018C8.29201 8.03513 8.32277 8.15766 8.37667 8.27055C8.43056 8.38343 8.50651 8.48439 8.60002 8.56748C8.69353 8.65057 8.80273 8.7141 8.92117 8.75434C9.03961 8.79458 9.16491 8.81071 9.28968 8.80178C9.41446 8.79285 9.53618 8.75905 9.64769 8.70236C9.7592 8.64567 9.85823 8.56723 9.93896 8.47168L11.0791 7.18994C11.2574 6.98941 11.5115 6.875 11.7798 6.875H28.2202C28.4885 6.875 28.7426 6.98941 28.9209 7.18994L31.9751 10.625H27.1875C27.0633 10.6232 26.9399 10.6462 26.8246 10.6925C26.7094 10.7388 26.6044 10.8076 26.516 10.8949C26.4275 10.9821 26.3572 11.086 26.3093 11.2006C26.2613 11.3153 26.2366 11.4383 26.2366 11.5625C26.2366 11.6867 26.2613 11.8097 26.3093 11.9244C26.3572 12.039 26.4275 12.1429 26.516 12.2302C26.6044 12.3174 26.7094 12.3862 26.8246 12.4325C26.9399 12.4788 27.0633 12.5018 27.1875 12.5H32.6709C33.3098 12.5 33.8655 12.0919 34.0967 11.5771C34.3278 11.0624 34.2635 10.3774 33.8391 9.8999L30.3223 5.9436C29.7889 5.34356 29.0231 5 28.2202 5H11.7798ZM7.8125 10.625C6.27059 10.625 5 11.8956 5 13.4375V32.1875C5 33.7294 6.27059 35 7.8125 35H32.1875C33.7294 35 35 33.7294 35 32.1875V15.9375C35.0018 15.8133 34.9788 15.6899 34.9325 15.5746C34.8862 15.4594 34.8174 15.3544 34.7302 15.266C34.6429 15.1775 34.539 15.1072 34.4244 15.0593C34.3097 15.0113 34.1867 14.9866 34.0625 14.9866C33.9383 14.9866 33.8153 15.0113 33.7006 15.0593C33.586 15.1072 33.4821 15.1775 33.3948 15.266C33.3076 15.3544 33.2388 15.4594 33.1925 15.5746C33.1462 15.6899 33.1232 15.8133 33.125 15.9375V32.1875C33.125 32.7231 32.7231 33.125 32.1875 33.125H7.8125C7.27691 33.125 6.875 32.7231 6.875 32.1875V13.4375C6.875 12.9019 7.27691 12.5 7.8125 12.5H12.9431C13.0673 12.5018 13.1907 12.4788 13.306 12.4325C13.4213 12.3862 13.5262 12.3174 13.6146 12.2301C13.7031 12.1429 13.7734 12.039 13.8213 11.9244C13.8693 11.8097 13.894 11.6867 13.894 11.5625C13.894 11.4383 13.8693 11.3153 13.8213 11.2006C13.7734 11.086 13.7031 10.9821 13.6146 10.8949C13.5262 10.8076 13.4213 10.7388 13.306 10.6925C13.1907 10.6462 13.0673 10.6232 12.9431 10.625H7.8125Z" fill="#002244" fill-opacity="0.7"/>
<path d="M19.9866 10.625C19.7426 10.6286 19.5096 10.7271 19.3372 10.8997L16.2524 13.9832C16.1653 14.0703 16.0962 14.1737 16.0491 14.2876C16.0019 14.4014 15.9776 14.5234 15.9776 14.6466C15.9776 14.7699 16.0019 14.8919 16.0491 15.0057C16.0962 15.1195 16.1653 15.223 16.2524 15.3101C16.3396 15.3972 16.443 15.4663 16.5568 15.5135C16.6707 15.5606 16.7927 15.5849 16.9159 15.5849C17.0391 15.5849 17.1611 15.5606 17.275 15.5135C17.3888 15.4663 17.4922 15.3972 17.5793 15.3101L19.0625 13.8257V19.6875C19.0625 20.2231 18.6606 20.625 18.125 20.625H17.5C17.3758 20.6233 17.2524 20.6462 17.1371 20.6926C17.0219 20.7389 16.9169 20.8077 16.8285 20.8949C16.74 20.9821 16.6697 21.0861 16.6218 21.2007C16.5738 21.3153 16.5491 21.4383 16.5491 21.5625C16.5491 21.6868 16.5738 21.8098 16.6218 21.9244C16.6697 22.039 16.74 22.143 16.8285 22.2302C16.9169 22.3174 17.0219 22.3862 17.1371 22.4325C17.2524 22.4788 17.3758 22.5018 17.5 22.5H18.125C19.6669 22.5 20.9375 21.2294 20.9375 19.6875V13.8257L22.4207 15.3089C22.5077 15.396 22.611 15.4652 22.7248 15.5124C22.8386 15.5596 22.9605 15.5839 23.0837 15.584C23.2069 15.5841 23.3289 15.5599 23.4427 15.5128C23.5565 15.4657 23.66 15.3967 23.7471 15.3096C23.8342 15.2226 23.9034 15.1192 23.9506 15.0054C23.9977 14.8916 24.0221 14.7697 24.0221 14.6465C24.0221 14.5233 23.9979 14.4014 23.9508 14.2875C23.9037 14.1737 23.8346 14.0703 23.7476 13.9832L20.6628 10.8997C20.5742 10.811 20.4687 10.741 20.3525 10.6938C20.2364 10.6467 20.1119 10.6233 19.9866 10.625Z" fill="#002244" fill-opacity="0.7"/>
</svg>
