<svg width="24" height="24" viewBox="0 0 24 24" fill="none" xmlns="http://www.w3.org/2000/svg">
<g clip-path="url(#clip0_154_1073)">
<path d="M6.15587 11.1489L6.15576 11.1491L6.16154 11.152C6.24877 11.1956 6.33898 11.2188 6.43126 11.2188C6.63286 11.2188 6.83811 11.1081 6.93233 10.9215L10.4374 4.51111C10.4375 4.51102 10.4375 4.51093 10.4376 4.51083C10.6162 4.18945 10.8832 3.92339 11.201 3.76449L11.201 3.76452L11.2032 3.76336C11.7738 3.46019 12.4699 3.46019 13.0406 3.76336L13.0406 3.76339L13.0428 3.76449C13.3606 3.92339 13.6276 4.18946 13.8062 4.51086C13.8062 4.51094 13.8063 4.51103 13.8063 4.51111L16.5852 9.5668L15.841 9.30004C15.544 9.18651 15.2068 9.34626 15.0942 9.63915C14.9798 9.93647 15.1396 10.2743 15.4329 10.3871L15.434 10.3876L17.609 11.1938L17.6258 11.2H17.6438H17.6586L17.6773 11.2188H17.7115C17.7145 11.2197 17.7185 11.221 17.7246 11.223L17.7256 11.2234C17.732 11.2255 17.7413 11.2286 17.7505 11.2311C17.7587 11.2334 17.7752 11.2375 17.7938 11.2375H17.8688C17.9325 11.2375 17.9852 11.2184 18.0258 11.2036C18.0292 11.2024 18.0325 11.2012 18.0357 11.2H18.0375C18.0607 11.2 18.0847 11.1937 18.106 11.1788C18.1245 11.1658 18.1352 11.1503 18.1395 11.1438L18.1449 11.1352L18.1469 11.1321C18.1596 11.1196 18.1726 11.1096 18.1913 11.0957L18.1927 11.0946C18.2108 11.081 18.2344 11.0633 18.2582 11.0395C18.2792 11.0185 18.29 10.9968 18.295 10.9867L18.2957 10.9854C18.2967 10.9834 18.2974 10.982 18.2979 10.9811L18.3072 10.9718L18.3144 10.9573L18.3707 10.8448L18.3813 10.8237V10.8V10.7899L18.7735 8.52965L18.7736 8.52966L18.774 8.52669C18.8187 8.21391 18.6169 7.91573 18.2954 7.8698C17.9832 7.82521 17.6856 8.02616 17.6388 8.34654L17.5212 8.99949L14.8257 3.96534L14.8257 3.96534L14.8249 3.96398C14.5349 3.44189 14.1087 3.01507 13.5844 2.74297C12.6925 2.25866 11.57 2.25866 10.6781 2.74297C10.1538 3.01508 9.72764 3.44189 9.43759 3.96398L9.43727 3.96457L5.93165 10.3759C5.76996 10.6547 5.89016 10.9939 6.15587 11.1489ZM21.1981 18.6518L21.1984 18.6512C21.7414 17.7399 21.7612 16.6332 21.2563 15.7204L19.6438 12.7955L19.6439 12.7955L19.6426 12.7934C19.4874 12.5273 19.1474 12.4071 18.8684 12.5699C18.6026 12.7249 18.4824 13.0643 18.6443 13.3431C18.6445 13.3435 18.6447 13.3438 18.6449 13.3442L20.2554 16.2657C20.2556 16.2659 20.2557 16.2661 20.2558 16.2663C20.5588 16.8372 20.5573 17.5115 20.221 18.0603L20.221 18.0603L20.2196 18.0627C19.8825 18.6481 19.2608 18.9875 18.5625 18.9875H15.0148L15.5696 18.5274C15.5697 18.5274 15.5697 18.5273 15.5698 18.5272C15.8219 18.3208 15.8408 17.9573 15.6399 17.7117C15.4335 17.4594 15.0698 17.4404 14.8242 17.6414L14.8236 17.6419L13.0476 19.1188H13.0461L13.0388 19.1261L13.0063 19.1532V19.159C12.9877 19.179 12.9732 19.1982 12.9617 19.2136L12.9606 19.215C12.9463 19.2342 12.9361 19.2475 12.923 19.2606C12.9203 19.2634 12.9177 19.2661 12.9153 19.2688H12.8842L12.8614 19.3372C12.8417 19.3962 12.8188 19.4836 12.8188 19.5563C12.8188 19.6249 12.8392 19.7065 12.858 19.7651C12.8633 19.7971 12.8799 19.8229 12.8973 19.8403C12.9052 19.8483 12.915 19.8561 12.9264 19.8627C12.9489 19.8952 12.977 19.9246 13.0006 19.9484C13.0078 19.9625 13.02 19.9795 13.0399 19.9928C13.046 19.9968 13.0522 20.0002 13.0585 20.0029L14.8236 21.4707L14.8236 21.4707L14.825 21.4719C14.9335 21.5586 15.0487 21.6063 15.1875 21.6063C15.3434 21.6063 15.5236 21.5405 15.6393 21.4016L15.6399 21.4009C15.8447 21.1505 15.7976 20.7902 15.5732 20.5882L15.5732 20.5882L15.5701 20.5856L15.0148 20.125H18.5429C19.6476 20.1441 20.6364 19.5814 21.1981 18.6518ZM3.15873 14.4025L3.15879 14.4027L3.165 14.4004L3.90644 14.1346L3.02535 15.701L3.02534 15.701L3.02458 15.7024C2.52037 16.6333 2.53972 17.7208 3.08285 18.6325L3.08317 18.633C3.64486 19.5627 4.63343 20.125 5.71876 20.125H11.0438C11.3615 20.125 11.6125 19.874 11.6125 19.5563C11.6125 19.2386 11.3615 18.9875 11.0438 18.9875H5.71876C5.02198 18.9875 4.41715 18.6491 4.06053 18.0607L4.06027 18.0603C3.72393 17.5115 3.72248 16.8371 4.02552 16.2663C4.02562 16.2661 4.02572 16.2659 4.02582 16.2657L4.84544 14.7711L4.96387 15.429C4.9639 15.4292 4.96394 15.4294 4.96398 15.4297C5.01004 15.7039 5.25901 15.9063 5.53126 15.9063H5.60626H5.61336L5.6204 15.9053C5.94335 15.8592 6.14396 15.5406 6.09884 15.2473L6.09886 15.2473L6.09853 15.2455L5.70626 12.9852V12.975V12.9588L5.70113 12.9434C5.69082 12.9125 5.68053 12.8868 5.67128 12.8637L5.67098 12.8629C5.66272 12.8423 5.65529 12.8236 5.64797 12.8025C5.64731 12.799 5.64649 12.7954 5.6455 12.7919C5.64236 12.7806 5.63785 12.7708 5.63283 12.7625C5.63231 12.7616 5.63178 12.7607 5.63126 12.7599V12.7573L5.61446 12.7321C5.57525 12.6733 5.52801 12.6202 5.45567 12.5893L5.45197 12.5856L5.44497 12.5786L5.43673 12.5731C5.36228 12.5235 5.26751 12.5 5.19376 12.5H5.15626H5.1542C5.12752 12.5 5.09553 12.5 5.06517 12.5028C5.0418 12.5049 5.01404 12.5091 4.9865 12.5188H4.96957L4.95275 12.525L2.77775 13.3313L2.77661 13.3317C2.48381 13.4443 2.32494 13.7618 2.43673 14.0764C2.5333 14.3642 2.85897 14.4881 3.15873 14.4025Z" fill="white" stroke="white" stroke-width="0.2"/>
</g>
<defs>
<clipPath id="clip0_154_1073">
<rect width="24" height="24" fill="white"/>
</clipPath>
</defs>
</svg>
