<svg width="40" height="40" viewBox="0 0 40 40" fill="none" xmlns="http://www.w3.org/2000/svg">
<g clip-path="url(#clip0_278_10081)">
<path d="M33.6562 34.9375C35.1562 33.4375 36 31.4375 36 29.3125C36 27.1875 35.1562 25.1875 33.6562 23.6875C32.1562 22.1875 30.1562 21.3438 28.0312 21.3438C25.9062 21.3438 23.9062 22.1875 22.4062 23.6875C19.3125 26.7812 19.3125 31.8438 22.4062 34.9688C23.9062 36.4688 25.9062 37.3125 28.0312 37.3125C30.1562 37.2812 32.1562 36.4375 33.6562 34.9375ZM23.6875 25C24.8438 23.8437 26.375 23.2188 28 23.2188C29.625 23.2188 31.1563 23.8437 32.3125 25C33.4688 26.1562 34.0938 27.6875 34.0938 29.3125C34.0938 30.9375 33.4688 32.4687 32.3125 33.625C31.1563 34.7812 29.625 35.4062 28 35.4062C26.375 35.4062 24.8438 34.7812 23.6875 33.625C21.3125 31.25 21.3125 27.375 23.6875 25Z" fill="#002244"/>
<path d="M28.5312 33.2812V29.8125H32C32.25 29.8125 32.4688 29.5938 32.4688 29.3438C32.4688 29.0938 32.25 28.875 32 28.875H28.5312V25.4375C28.5312 25.1875 28.3125 24.9688 28.0625 24.9688C27.8125 24.9688 27.5938 25.1875 27.5938 25.4375V28.875H24.125C23.875 28.875 23.6562 29.0938 23.6562 29.3438C23.6562 29.5938 23.875 29.8125 24.125 29.8125H27.5938V33.2812C27.5938 33.5312 27.8125 33.75 28.0625 33.75C28.3125 33.75 28.5312 33.5312 28.5312 33.2812ZM27.5938 11.875C27.5938 11.8438 27.5938 11.8125 27.5625 11.7812C27.5625 11.75 27.5312 11.7188 27.5312 11.6875C27.5312 11.6563 27.5 11.625 27.5 11.5937C27.5 11.5625 27.4688 11.5313 27.4688 11.5313C27.4375 11.5 27.4375 11.4687 27.4062 11.4375C27.4062 11.4062 27.375 11.4063 27.375 11.375L21.0313 4.6875C21 4.65625 20.9688 4.625 20.9375 4.625L20.875 4.5625C20.8438 4.53125 20.8125 4.53125 20.7812 4.5C20.75 4.5 20.7188 4.46875 20.7188 4.46875C20.6875 4.46875 20.6562 4.4375 20.625 4.4375C20.5938 4.4375 20.5625 4.40625 20.5312 4.40625H6.875C6.34375 4.40625 5.9375 4.8125 5.9375 5.34375V34.5625C5.9375 35.0938 6.34375 35.5 6.875 35.5H19.6562C20.1875 35.5 20.5938 35.0938 20.5938 34.5625C20.5938 34.0312 20.1875 33.625 19.6562 33.625H7.8125V6.25H19.4062V12.0625C19.4062 12.5937 19.8125 13 20.3438 13H25.7188V19.5625C25.7188 20.0938 26.125 20.5 26.6562 20.5C27.1875 20.5 27.5938 20.0938 27.5938 19.5625V11.875ZM21.2812 7.6875L24.5 11.125H21.2812V7.6875Z" fill="#002244"/>
</g>
<defs>
<clipPath id="clip0_278_10081">
<rect width="40" height="40" fill="white"/>
</clipPath>
</defs>
</svg>
