<svg width="20" height="20" viewBox="0 0 20 20" fill="none" xmlns="http://www.w3.org/2000/svg">
<g clip-path="url(#clip0_278_8387)">
<path d="M17.5735 8.8075C15.9069 6.03167 13.0752 4.375 9.99937 4.375C6.92354 4.375 4.09187 6.03167 2.42437 8.8075C1.98354 9.54333 1.98354 10.4567 2.42437 11.1917C4.09104 13.9675 6.92271 15.6242 9.99854 15.6242C13.0744 15.6242 15.906 13.9675 17.5735 11.1917C18.0144 10.4558 18.0144 9.5425 17.5735 8.8075ZM16.5027 10.5492C15.0627 12.9442 12.6319 14.375 9.99937 14.375C7.36687 14.375 4.93604 12.9442 3.49687 10.5492C3.29354 10.2108 3.29354 9.78917 3.49687 9.45083C4.93687 7.05583 7.36771 5.625 10.0002 5.625C12.6327 5.625 15.0635 7.05583 16.5027 9.45083C16.706 9.78917 16.706 10.2108 16.5027 10.5492ZM9.99937 6.875C8.27687 6.875 6.87437 8.2775 6.87437 10C6.87437 11.7225 8.27687 13.125 9.99937 13.125C11.7219 13.125 13.1244 11.7225 13.1244 10C13.1244 8.2775 11.7219 6.875 9.99937 6.875ZM9.99937 11.875C8.96604 11.875 8.12437 11.0333 8.12437 10C8.12437 8.96667 8.96604 8.125 9.99937 8.125C11.0327 8.125 11.8744 8.96667 11.8744 10C11.8744 11.0333 11.0327 11.875 9.99937 11.875Z" fill="#002244" fill-opacity="0.9"/>
<path d="M4.99979 15.6248C4.83979 15.6248 4.67979 15.5639 4.55813 15.4414C4.31396 15.1973 4.31396 14.8014 4.55813 14.5573L14.5581 4.55727C14.8023 4.3131 15.1981 4.3131 15.4423 4.55727C15.6865 4.80144 15.6865 5.19727 15.4423 5.44144L5.44229 15.4414C5.32063 15.5631 5.15979 15.6248 4.99979 15.6248Z" fill="#549BFF"/>
</g>
<defs>
<clipPath id="clip0_278_8387">
<rect width="20" height="20" fill="white"/>
</clipPath>
</defs>
</svg>
