<svg width="25" height="24" viewBox="0 0 25 24" fill="none" xmlns="http://www.w3.org/2000/svg">
<g clip-path="url(#clip0_22_231)">
<path d="M20.676 5.64897L17.111 2.08497C16.8945 1.8671 16.6369 1.69436 16.3532 1.57678C16.0694 1.45919 15.7651 1.3991 15.458 1.39997H9.458C8.70201 1.40041 7.9705 1.66798 7.39265 2.15544C6.81481 2.64289 6.42781 3.31887 6.3 4.06397C5.55656 4.19266 4.88229 4.57935 4.39578 5.15604C3.90926 5.73272 3.64165 6.46248 3.64 7.21697V19.392C3.64079 20.2425 3.97903 21.0581 4.58048 21.6595C5.18192 22.2609 5.99743 22.5992 6.848 22.6H15.548C16.303 22.5981 17.033 22.3299 17.6096 21.8426C18.1862 21.3552 18.5724 20.6801 18.7 19.936C19.4442 19.8079 20.1193 19.4213 20.6064 18.8444C21.0935 18.2674 21.3615 17.5371 21.363 16.782V7.29997C21.3632 6.99305 21.3026 6.68912 21.1847 6.40575C21.0667 6.12238 20.8939 5.86517 20.676 5.64897ZM15.544 21.4H6.844C6.31134 21.3994 5.80065 21.1876 5.42401 20.811C5.04736 20.4343 4.83553 19.9236 4.835 19.391V7.21697C4.83626 6.79007 4.9741 6.37476 5.22834 6.03181C5.48258 5.68887 5.83989 5.43627 6.248 5.31097V16.782C6.24879 17.6326 6.587 18.4482 7.18842 19.0499C7.78983 19.6515 8.60534 19.9899 9.456 19.991H17.451C17.3243 20.3981 17.071 20.7542 16.7281 21.0076C16.3852 21.261 15.9704 21.3984 15.544 21.4ZM20.161 16.782C20.1605 17.3147 19.9487 17.8255 19.5721 18.2023C19.1954 18.5791 18.6847 18.7912 18.152 18.792H9.452C8.91925 18.7912 8.40856 18.5791 8.03195 18.2023C7.65533 17.8255 7.44353 17.3147 7.443 16.782V4.60897C7.44326 4.34489 7.49554 4.08343 7.59684 3.83955C7.69815 3.59566 7.8465 3.37412 8.03342 3.18757C8.22035 3.00101 8.44218 2.85311 8.68627 2.75229C8.93036 2.65147 9.19191 2.59971 9.456 2.59997H15.456C15.6057 2.59949 15.754 2.62866 15.8923 2.68582C16.0307 2.74297 16.1563 2.82698 16.262 2.93297L19.828 6.49997C19.9339 6.60576 20.0178 6.73143 20.0749 6.86975C20.1321 7.00807 20.1613 7.15631 20.161 7.30597V16.782ZM17.447 9.82597C17.447 9.9851 17.3838 10.1377 17.2713 10.2502C17.1587 10.3628 17.0061 10.426 16.847 10.426H10.761C10.6019 10.426 10.4493 10.3628 10.3367 10.2502C10.2242 10.1377 10.161 9.9851 10.161 9.82597C10.161 9.66684 10.2242 9.51423 10.3367 9.40171C10.4493 9.28919 10.6019 9.22597 10.761 9.22597H16.848C17.007 9.22624 17.1593 9.28957 17.2716 9.40206C17.3839 9.51456 17.447 9.66702 17.447 9.82597ZM17.447 13.667C17.447 13.8261 17.3838 13.9787 17.2713 14.0912C17.1587 14.2038 17.0061 14.267 16.847 14.267H10.761C10.6019 14.267 10.4493 14.2038 10.3367 14.0912C10.2242 13.9787 10.161 13.8261 10.161 13.667C10.161 13.5078 10.2242 13.3552 10.3367 13.2427C10.4493 13.1302 10.6019 13.067 10.761 13.067H16.848C17.007 13.0672 17.1593 13.1306 17.2716 13.2431C17.3839 13.3556 17.447 13.508 17.447 13.667Z" fill="#062D47"/>
<g clip-path="url(#clip1_22_231)">
<path d="M20.676 5.64897L17.111 2.08497C16.8945 1.8671 16.6369 1.69436 16.3532 1.57678C16.0694 1.45919 15.7651 1.3991 15.458 1.39997H9.458C8.70201 1.40041 7.9705 1.66798 7.39265 2.15544C6.81481 2.64289 6.42781 3.31887 6.3 4.06397C5.55656 4.19266 4.88229 4.57935 4.39578 5.15604C3.90926 5.73272 3.64165 6.46248 3.64 7.21697V19.392C3.64079 20.2425 3.97903 21.0581 4.58048 21.6595C5.18192 22.2609 5.99743 22.5992 6.848 22.6H15.548C16.303 22.5981 17.033 22.3299 17.6096 21.8426C18.1862 21.3552 18.5724 20.6801 18.7 19.936C19.4442 19.8079 20.1193 19.4213 20.6064 18.8444C21.0935 18.2674 21.3615 17.5371 21.363 16.782V7.29997C21.3632 6.99305 21.3026 6.68912 21.1847 6.40575C21.0667 6.12238 20.8939 5.86517 20.676 5.64897ZM15.544 21.4H6.844C6.31134 21.3994 5.80065 21.1876 5.42401 20.811C5.04736 20.4343 4.83553 19.9236 4.835 19.391V7.21697C4.83626 6.79007 4.9741 6.37476 5.22834 6.03181C5.48258 5.68887 5.83989 5.43627 6.248 5.31097V16.782C6.24879 17.6326 6.587 18.4482 7.18842 19.0499C7.78983 19.6515 8.60534 19.9899 9.456 19.991H17.451C17.3243 20.3981 17.071 20.7542 16.7281 21.0076C16.3852 21.261 15.9704 21.3984 15.544 21.4ZM20.161 16.782C20.1605 17.3147 19.9487 17.8255 19.5721 18.2023C19.1954 18.5791 18.6847 18.7912 18.152 18.792H9.452C8.91925 18.7912 8.40856 18.5791 8.03195 18.2023C7.65533 17.8255 7.44353 17.3147 7.443 16.782V4.60897C7.44326 4.34489 7.49554 4.08343 7.59684 3.83955C7.69815 3.59566 7.8465 3.37412 8.03342 3.18757C8.22035 3.00101 8.44218 2.85311 8.68627 2.75229C8.93036 2.65147 9.19191 2.59971 9.456 2.59997H15.456C15.6057 2.59949 15.754 2.62866 15.8923 2.68582C16.0307 2.74297 16.1563 2.82698 16.262 2.93297L19.828 6.49997C19.9339 6.60576 20.0178 6.73143 20.0749 6.86975C20.1321 7.00807 20.1613 7.15631 20.161 7.30597V16.782ZM17.447 9.82597C17.447 9.9851 17.3838 10.1377 17.2713 10.2502C17.1587 10.3628 17.0061 10.426 16.847 10.426H10.761C10.6019 10.426 10.4493 10.3628 10.3367 10.2502C10.2242 10.1377 10.161 9.9851 10.161 9.82597C10.161 9.66684 10.2242 9.51423 10.3367 9.40171C10.4493 9.28919 10.6019 9.22597 10.761 9.22597H16.848C17.007 9.22624 17.1593 9.28957 17.2716 9.40206C17.3839 9.51456 17.447 9.66702 17.447 9.82597ZM17.447 13.667C17.447 13.8261 17.3838 13.9787 17.2713 14.0912C17.1587 14.2038 17.0061 14.267 16.847 14.267H10.761C10.6019 14.267 10.4493 14.2038 10.3367 14.0912C10.2242 13.9787 10.161 13.8261 10.161 13.667C10.161 13.5078 10.2242 13.3552 10.3367 13.2427C10.4493 13.1302 10.6019 13.067 10.761 13.067H16.848C17.007 13.0672 17.1593 13.1306 17.2716 13.2431C17.3839 13.3556 17.447 13.508 17.447 13.667Z" fill="#062D47"/>
<g clip-path="url(#clip2_22_231)">
<path d="M20.676 5.64897L17.111 2.08497C16.8945 1.8671 16.6369 1.69436 16.3532 1.57678C16.0694 1.45919 15.7651 1.3991 15.458 1.39997H9.458C8.70201 1.40041 7.9705 1.66798 7.39265 2.15544C6.81481 2.64289 6.42781 3.31887 6.3 4.06397C5.55656 4.19266 4.88229 4.57935 4.39578 5.15604C3.90926 5.73272 3.64165 6.46248 3.64 7.21697V19.392C3.64079 20.2425 3.97903 21.0581 4.58048 21.6595C5.18192 22.2609 5.99743 22.5992 6.848 22.6H15.548C16.303 22.5981 17.033 22.3299 17.6096 21.8426C18.1862 21.3552 18.5724 20.6801 18.7 19.936C19.4442 19.8079 20.1193 19.4213 20.6064 18.8444C21.0935 18.2674 21.3615 17.5371 21.363 16.782V7.29997C21.3632 6.99305 21.3026 6.68912 21.1847 6.40575C21.0667 6.12238 20.8939 5.86517 20.676 5.64897ZM15.544 21.4H6.844C6.31134 21.3994 5.80065 21.1876 5.42401 20.811C5.04736 20.4343 4.83553 19.9236 4.835 19.391V7.21697C4.83626 6.79007 4.9741 6.37476 5.22834 6.03181C5.48258 5.68887 5.83989 5.43627 6.248 5.31097V16.782C6.24879 17.6326 6.587 18.4482 7.18842 19.0499C7.78983 19.6515 8.60534 19.9899 9.456 19.991H17.451C17.3243 20.3981 17.071 20.7542 16.7281 21.0076C16.3852 21.261 15.9704 21.3984 15.544 21.4ZM20.161 16.782C20.1605 17.3147 19.9487 17.8255 19.5721 18.2023C19.1954 18.5791 18.6847 18.7912 18.152 18.792H9.452C8.91925 18.7912 8.40856 18.5791 8.03195 18.2023C7.65533 17.8255 7.44353 17.3147 7.443 16.782V4.60897C7.44326 4.34489 7.49554 4.08343 7.59684 3.83955C7.69815 3.59566 7.8465 3.37412 8.03342 3.18757C8.22035 3.00101 8.44218 2.85311 8.68627 2.75229C8.93036 2.65147 9.19191 2.59971 9.456 2.59997H15.456C15.6057 2.59949 15.754 2.62866 15.8923 2.68582C16.0307 2.74297 16.1563 2.82698 16.262 2.93297L19.828 6.49997C19.9339 6.60576 20.0178 6.73143 20.0749 6.86975C20.1321 7.00807 20.1613 7.15631 20.161 7.30597V16.782ZM17.447 9.82597C17.447 9.9851 17.3838 10.1377 17.2713 10.2502C17.1587 10.3628 17.0061 10.426 16.847 10.426H10.761C10.6019 10.426 10.4493 10.3628 10.3367 10.2502C10.2242 10.1377 10.161 9.9851 10.161 9.82597C10.161 9.66684 10.2242 9.51423 10.3367 9.40171C10.4493 9.28919 10.6019 9.22597 10.761 9.22597H16.848C17.007 9.22624 17.1593 9.28957 17.2716 9.40206C17.3839 9.51456 17.447 9.66702 17.447 9.82597ZM17.447 13.667C17.447 13.8261 17.3838 13.9787 17.2713 14.0912C17.1587 14.2038 17.0061 14.267 16.847 14.267H10.761C10.6019 14.267 10.4493 14.2038 10.3367 14.0912C10.2242 13.9787 10.161 13.8261 10.161 13.667C10.161 13.5078 10.2242 13.3552 10.3367 13.2427C10.4493 13.1302 10.6019 13.067 10.761 13.067H16.848C17.007 13.0672 17.1593 13.1306 17.2716 13.2431C17.3839 13.3556 17.447 13.508 17.447 13.667Z" fill="#062D47"/>
<g clip-path="url(#clip3_22_231)">
<path d="M20.676 5.64897L17.111 2.08497C16.8945 1.8671 16.6369 1.69436 16.3532 1.57678C16.0694 1.45919 15.7651 1.3991 15.458 1.39997H9.458C8.70201 1.40041 7.9705 1.66798 7.39265 2.15544C6.81481 2.64289 6.42781 3.31887 6.3 4.06397C5.55656 4.19266 4.88229 4.57935 4.39578 5.15604C3.90926 5.73272 3.64165 6.46248 3.64 7.21697V19.392C3.64079 20.2425 3.97903 21.0581 4.58048 21.6595C5.18192 22.2609 5.99743 22.5992 6.848 22.6H15.548C16.303 22.5981 17.033 22.3299 17.6096 21.8426C18.1862 21.3552 18.5724 20.6801 18.7 19.936C19.4442 19.8079 20.1193 19.4213 20.6064 18.8444C21.0935 18.2674 21.3615 17.5371 21.363 16.782V7.29997C21.3632 6.99305 21.3026 6.68912 21.1847 6.40575C21.0667 6.12238 20.8939 5.86517 20.676 5.64897ZM15.544 21.4H6.844C6.31134 21.3994 5.80065 21.1876 5.42401 20.811C5.04736 20.4343 4.83553 19.9236 4.835 19.391V7.21697C4.83626 6.79007 4.9741 6.37476 5.22834 6.03181C5.48258 5.68887 5.83989 5.43627 6.248 5.31097V16.782C6.24879 17.6326 6.587 18.4482 7.18842 19.0499C7.78983 19.6515 8.60534 19.9899 9.456 19.991H17.451C17.3243 20.3981 17.071 20.7542 16.7281 21.0076C16.3852 21.261 15.9704 21.3984 15.544 21.4ZM20.161 16.782C20.1605 17.3147 19.9487 17.8255 19.5721 18.2023C19.1954 18.5791 18.6847 18.7912 18.152 18.792H9.452C8.91925 18.7912 8.40856 18.5791 8.03195 18.2023C7.65533 17.8255 7.44353 17.3147 7.443 16.782V4.60897C7.44326 4.34489 7.49554 4.08343 7.59684 3.83955C7.69815 3.59566 7.8465 3.37412 8.03342 3.18757C8.22035 3.00101 8.44218 2.85311 8.68627 2.75229C8.93036 2.65147 9.19191 2.59971 9.456 2.59997H15.456C15.6057 2.59949 15.754 2.62866 15.8923 2.68582C16.0307 2.74297 16.1563 2.82698 16.262 2.93297L19.828 6.49997C19.9339 6.60576 20.0178 6.73143 20.0749 6.86975C20.1321 7.00807 20.1613 7.15631 20.161 7.30597V16.782ZM17.447 9.82597C17.447 9.9851 17.3838 10.1377 17.2713 10.2502C17.1587 10.3628 17.0061 10.426 16.847 10.426H10.761C10.6019 10.426 10.4493 10.3628 10.3367 10.2502C10.2242 10.1377 10.161 9.9851 10.161 9.82597C10.161 9.66684 10.2242 9.51423 10.3367 9.40171C10.4493 9.28919 10.6019 9.22597 10.761 9.22597H16.848C17.007 9.22624 17.1593 9.28957 17.2716 9.40206C17.3839 9.51456 17.447 9.66702 17.447 9.82597ZM17.447 13.667C17.447 13.8261 17.3838 13.9787 17.2713 14.0912C17.1587 14.2038 17.0061 14.267 16.847 14.267H10.761C10.6019 14.267 10.4493 14.2038 10.3367 14.0912C10.2242 13.9787 10.161 13.8261 10.161 13.667C10.161 13.5078 10.2242 13.3552 10.3367 13.2427C10.4493 13.1302 10.6019 13.067 10.761 13.067H16.848C17.007 13.0672 17.1593 13.1306 17.2716 13.2431C17.3839 13.3556 17.447 13.508 17.447 13.667Z" fill="#062D47"/>
</g>
<g clip-path="url(#clip4_22_231)">
<path d="M20.676 5.64897L17.111 2.08497C16.8945 1.8671 16.6369 1.69436 16.3532 1.57678C16.0694 1.45919 15.7651 1.3991 15.458 1.39997H9.458C8.70201 1.40041 7.9705 1.66798 7.39265 2.15544C6.81481 2.64289 6.42781 3.31887 6.3 4.06397C5.55656 4.19266 4.88229 4.57935 4.39578 5.15604C3.90926 5.73272 3.64165 6.46248 3.64 7.21697V19.392C3.64079 20.2425 3.97903 21.0581 4.58048 21.6595C5.18192 22.2609 5.99743 22.5992 6.848 22.6H15.548C16.303 22.5981 17.033 22.3299 17.6096 21.8426C18.1862 21.3552 18.5724 20.6801 18.7 19.936C19.4442 19.8079 20.1193 19.4213 20.6064 18.8444C21.0935 18.2674 21.3615 17.5371 21.363 16.782V7.29997C21.3632 6.99305 21.3026 6.68912 21.1847 6.40575C21.0667 6.12238 20.8939 5.86517 20.676 5.64897ZM15.544 21.4H6.844C6.31134 21.3994 5.80065 21.1876 5.42401 20.811C5.04736 20.4343 4.83553 19.9236 4.835 19.391V7.21697C4.83626 6.79007 4.9741 6.37476 5.22834 6.03181C5.48258 5.68887 5.83989 5.43627 6.248 5.31097V16.782C6.24879 17.6326 6.587 18.4482 7.18842 19.0499C7.78983 19.6515 8.60534 19.9899 9.456 19.991H17.451C17.3243 20.3981 17.071 20.7542 16.7281 21.0076C16.3852 21.261 15.9704 21.3984 15.544 21.4ZM20.161 16.782C20.1605 17.3147 19.9487 17.8255 19.5721 18.2023C19.1954 18.5791 18.6847 18.7912 18.152 18.792H9.452C8.91925 18.7912 8.40856 18.5791 8.03195 18.2023C7.65533 17.8255 7.44353 17.3147 7.443 16.782V4.60897C7.44326 4.34489 7.49554 4.08343 7.59684 3.83955C7.69815 3.59566 7.8465 3.37412 8.03342 3.18757C8.22035 3.00101 8.44218 2.85311 8.68627 2.75229C8.93036 2.65147 9.19191 2.59971 9.456 2.59997H15.456C15.6057 2.59949 15.754 2.62866 15.8923 2.68582C16.0307 2.74297 16.1563 2.82698 16.262 2.93297L19.828 6.49997C19.9339 6.60576 20.0178 6.73143 20.0749 6.86975C20.1321 7.00807 20.1613 7.15631 20.161 7.30597V16.782ZM17.447 9.82597C17.447 9.9851 17.3838 10.1377 17.2713 10.2502C17.1587 10.3628 17.0061 10.426 16.847 10.426H10.761C10.6019 10.426 10.4493 10.3628 10.3367 10.2502C10.2242 10.1377 10.161 9.9851 10.161 9.82597C10.161 9.66684 10.2242 9.51423 10.3367 9.40171C10.4493 9.28919 10.6019 9.22597 10.761 9.22597H16.848C17.007 9.22624 17.1593 9.28957 17.2716 9.40206C17.3839 9.51456 17.447 9.66702 17.447 9.82597ZM17.447 13.667C17.447 13.8261 17.3838 13.9787 17.2713 14.0912C17.1587 14.2038 17.0061 14.267 16.847 14.267H10.761C10.6019 14.267 10.4493 14.2038 10.3367 14.0912C10.2242 13.9787 10.161 13.8261 10.161 13.667C10.161 13.5078 10.2242 13.3552 10.3367 13.2427C10.4493 13.1302 10.6019 13.067 10.761 13.067H16.848C17.007 13.0672 17.1593 13.1306 17.2716 13.2431C17.3839 13.3556 17.447 13.508 17.447 13.667Z" fill="#062D47"/>
<g clip-path="url(#clip5_22_231)">
<path d="M20.676 5.64897L17.111 2.08497C16.8945 1.8671 16.6369 1.69436 16.3532 1.57678C16.0694 1.45919 15.7651 1.3991 15.458 1.39997H9.458C8.70201 1.40041 7.9705 1.66798 7.39265 2.15544C6.81481 2.64289 6.42781 3.31887 6.3 4.06397C5.55656 4.19266 4.88229 4.57935 4.39578 5.15604C3.90926 5.73272 3.64165 6.46248 3.64 7.21697V19.392C3.64079 20.2425 3.97903 21.0581 4.58048 21.6595C5.18192 22.2609 5.99743 22.5992 6.848 22.6H15.548C16.303 22.5981 17.033 22.3299 17.6096 21.8426C18.1862 21.3552 18.5724 20.6801 18.7 19.936C19.4442 19.8079 20.1193 19.4213 20.6064 18.8444C21.0935 18.2674 21.3615 17.5371 21.363 16.782V7.29997C21.3632 6.99305 21.3026 6.68912 21.1847 6.40575C21.0667 6.12238 20.8939 5.86517 20.676 5.64897ZM15.544 21.4H6.844C6.31134 21.3994 5.80065 21.1876 5.42401 20.811C5.04736 20.4343 4.83553 19.9236 4.835 19.391V7.21697C4.83626 6.79007 4.9741 6.37476 5.22834 6.03181C5.48258 5.68887 5.83989 5.43627 6.248 5.31097V16.782C6.24879 17.6326 6.587 18.4482 7.18842 19.0499C7.78983 19.6515 8.60534 19.9899 9.456 19.991H17.451C17.3243 20.3981 17.071 20.7542 16.7281 21.0076C16.3852 21.261 15.9704 21.3984 15.544 21.4ZM20.161 16.782C20.1605 17.3147 19.9487 17.8255 19.5721 18.2023C19.1954 18.5791 18.6847 18.7912 18.152 18.792H9.452C8.91925 18.7912 8.40856 18.5791 8.03195 18.2023C7.65533 17.8255 7.44353 17.3147 7.443 16.782V4.60897C7.44326 4.34489 7.49554 4.08343 7.59684 3.83955C7.69815 3.59566 7.8465 3.37412 8.03342 3.18757C8.22035 3.00101 8.44218 2.85311 8.68627 2.75229C8.93036 2.65147 9.19191 2.59971 9.456 2.59997H15.456C15.6057 2.59949 15.754 2.62866 15.8923 2.68582C16.0307 2.74297 16.1563 2.82698 16.262 2.93297L19.828 6.49997C19.9339 6.60576 20.0178 6.73143 20.0749 6.86975C20.1321 7.00807 20.1613 7.15631 20.161 7.30597V16.782ZM17.447 9.82597C17.447 9.9851 17.3838 10.1377 17.2713 10.2502C17.1587 10.3628 17.0061 10.426 16.847 10.426H10.761C10.6019 10.426 10.4493 10.3628 10.3367 10.2502C10.2242 10.1377 10.161 9.9851 10.161 9.82597C10.161 9.66684 10.2242 9.51423 10.3367 9.40171C10.4493 9.28919 10.6019 9.22597 10.761 9.22597H16.848C17.007 9.22624 17.1593 9.28957 17.2716 9.40206C17.3839 9.51456 17.447 9.66702 17.447 9.82597ZM17.447 13.667C17.447 13.8261 17.3838 13.9787 17.2713 14.0912C17.1587 14.2038 17.0061 14.267 16.847 14.267H10.761C10.6019 14.267 10.4493 14.2038 10.3367 14.0912C10.2242 13.9787 10.161 13.8261 10.161 13.667C10.161 13.5078 10.2242 13.3552 10.3367 13.2427C10.4493 13.1302 10.6019 13.067 10.761 13.067H16.848C17.007 13.0672 17.1593 13.1306 17.2716 13.2431C17.3839 13.3556 17.447 13.508 17.447 13.667Z" fill="#062D47"/>
<g clip-path="url(#clip6_22_231)">
<path d="M20.676 5.64897L17.111 2.08497C16.8945 1.8671 16.6369 1.69436 16.3532 1.57678C16.0694 1.45919 15.7651 1.3991 15.458 1.39997H9.458C8.70201 1.40041 7.9705 1.66798 7.39265 2.15544C6.81481 2.64289 6.42781 3.31887 6.3 4.06397C5.55656 4.19266 4.88229 4.57935 4.39578 5.15604C3.90926 5.73272 3.64165 6.46248 3.64 7.21697V19.392C3.64079 20.2425 3.97903 21.0581 4.58048 21.6595C5.18192 22.2609 5.99743 22.5992 6.848 22.6H15.548C16.303 22.5981 17.033 22.3299 17.6096 21.8426C18.1862 21.3552 18.5724 20.6801 18.7 19.936C19.4442 19.8079 20.1193 19.4213 20.6064 18.8444C21.0935 18.2674 21.3615 17.5371 21.363 16.782V7.29997C21.3632 6.99305 21.3026 6.68912 21.1847 6.40575C21.0667 6.12238 20.8939 5.86517 20.676 5.64897ZM15.544 21.4H6.844C6.31134 21.3994 5.80065 21.1876 5.42401 20.811C5.04736 20.4343 4.83553 19.9236 4.835 19.391V7.21697C4.83626 6.79007 4.9741 6.37476 5.22834 6.03181C5.48258 5.68887 5.83989 5.43627 6.248 5.31097V16.782C6.24879 17.6326 6.587 18.4482 7.18842 19.0499C7.78983 19.6515 8.60534 19.9899 9.456 19.991H17.451C17.3243 20.3981 17.071 20.7542 16.7281 21.0076C16.3852 21.261 15.9704 21.3984 15.544 21.4ZM20.161 16.782C20.1605 17.3147 19.9487 17.8255 19.5721 18.2023C19.1954 18.5791 18.6847 18.7912 18.152 18.792H9.452C8.91925 18.7912 8.40856 18.5791 8.03195 18.2023C7.65533 17.8255 7.44353 17.3147 7.443 16.782V4.60897C7.44326 4.34489 7.49554 4.08343 7.59684 3.83955C7.69815 3.59566 7.8465 3.37412 8.03342 3.18757C8.22035 3.00101 8.44218 2.85311 8.68627 2.75229C8.93036 2.65147 9.19191 2.59971 9.456 2.59997H15.456C15.6057 2.59949 15.754 2.62866 15.8923 2.68582C16.0307 2.74297 16.1563 2.82698 16.262 2.93297L19.828 6.49997C19.9339 6.60576 20.0178 6.73143 20.0749 6.86975C20.1321 7.00807 20.1613 7.15631 20.161 7.30597V16.782ZM17.447 9.82597C17.447 9.9851 17.3838 10.1377 17.2713 10.2502C17.1587 10.3628 17.0061 10.426 16.847 10.426H10.761C10.6019 10.426 10.4493 10.3628 10.3367 10.2502C10.2242 10.1377 10.161 9.9851 10.161 9.82597C10.161 9.66684 10.2242 9.51423 10.3367 9.40171C10.4493 9.28919 10.6019 9.22597 10.761 9.22597H16.848C17.007 9.22624 17.1593 9.28957 17.2716 9.40206C17.3839 9.51456 17.447 9.66702 17.447 9.82597ZM17.447 13.667C17.447 13.8261 17.3838 13.9787 17.2713 14.0912C17.1587 14.2038 17.0061 14.267 16.847 14.267H10.761C10.6019 14.267 10.4493 14.2038 10.3367 14.0912C10.2242 13.9787 10.161 13.8261 10.161 13.667C10.161 13.5078 10.2242 13.3552 10.3367 13.2427C10.4493 13.1302 10.6019 13.067 10.761 13.067H16.848C17.007 13.0672 17.1593 13.1306 17.2716 13.2431C17.3839 13.3556 17.447 13.508 17.447 13.667Z" fill="#062D47"/>
<g clip-path="url(#clip7_22_231)">
<path d="M20.676 5.64897L17.111 2.08497C16.8945 1.8671 16.6369 1.69436 16.3532 1.57678C16.0694 1.45919 15.7651 1.3991 15.458 1.39997H9.458C8.70201 1.40041 7.9705 1.66798 7.39265 2.15544C6.81481 2.64289 6.42781 3.31887 6.3 4.06397C5.55656 4.19266 4.88229 4.57935 4.39578 5.15604C3.90926 5.73272 3.64165 6.46248 3.64 7.21697V19.392C3.64079 20.2425 3.97903 21.0581 4.58048 21.6595C5.18192 22.2609 5.99743 22.5992 6.848 22.6H15.548C16.303 22.5981 17.033 22.3299 17.6096 21.8426C18.1862 21.3552 18.5724 20.6801 18.7 19.936C19.4442 19.8079 20.1193 19.4213 20.6064 18.8444C21.0935 18.2674 21.3615 17.5371 21.363 16.782V7.29997C21.3632 6.99305 21.3026 6.68912 21.1847 6.40575C21.0667 6.12238 20.8939 5.86517 20.676 5.64897ZM15.544 21.4H6.844C6.31134 21.3994 5.80065 21.1876 5.42401 20.811C5.04736 20.4343 4.83553 19.9236 4.835 19.391V7.21697C4.83626 6.79007 4.9741 6.37476 5.22834 6.03181C5.48258 5.68887 5.83989 5.43627 6.248 5.31097V16.782C6.24879 17.6326 6.587 18.4482 7.18842 19.0499C7.78983 19.6515 8.60534 19.9899 9.456 19.991H17.451C17.3243 20.3981 17.071 20.7542 16.7281 21.0076C16.3852 21.261 15.9704 21.3984 15.544 21.4ZM20.161 16.782C20.1605 17.3147 19.9487 17.8255 19.5721 18.2023C19.1954 18.5791 18.6847 18.7912 18.152 18.792H9.452C8.91925 18.7912 8.40856 18.5791 8.03195 18.2023C7.65533 17.8255 7.44353 17.3147 7.443 16.782V4.60897C7.44326 4.34489 7.49554 4.08343 7.59684 3.83955C7.69815 3.59566 7.8465 3.37412 8.03342 3.18757C8.22035 3.00101 8.44218 2.85311 8.68627 2.75229C8.93036 2.65147 9.19191 2.59971 9.456 2.59997H15.456C15.6057 2.59949 15.754 2.62866 15.8923 2.68582C16.0307 2.74297 16.1563 2.82698 16.262 2.93297L19.828 6.49997C19.9339 6.60576 20.0178 6.73143 20.0749 6.86975C20.1321 7.00807 20.1613 7.15631 20.161 7.30597V16.782ZM17.447 9.82597C17.447 9.9851 17.3838 10.1377 17.2713 10.2502C17.1587 10.3628 17.0061 10.426 16.847 10.426H10.761C10.6019 10.426 10.4493 10.3628 10.3367 10.2502C10.2242 10.1377 10.161 9.9851 10.161 9.82597C10.161 9.66684 10.2242 9.51423 10.3367 9.40171C10.4493 9.28919 10.6019 9.22597 10.761 9.22597H16.848C17.007 9.22624 17.1593 9.28957 17.2716 9.40206C17.3839 9.51456 17.447 9.66702 17.447 9.82597ZM17.447 13.667C17.447 13.8261 17.3838 13.9787 17.2713 14.0912C17.1587 14.2038 17.0061 14.267 16.847 14.267H10.761C10.6019 14.267 10.4493 14.2038 10.3367 14.0912C10.2242 13.9787 10.161 13.8261 10.161 13.667C10.161 13.5078 10.2242 13.3552 10.3367 13.2427C10.4493 13.1302 10.6019 13.067 10.761 13.067H16.848C17.007 13.0672 17.1593 13.1306 17.2716 13.2431C17.3839 13.3556 17.447 13.508 17.447 13.667Z" fill="#062D47"/>
</g>
</g>
</g>
</g>
</g>
</g>
</g>
<defs>
<clipPath id="clip0_22_231">
<rect width="24" height="24" fill="white" transform="translate(0.5)"/>
</clipPath>
<clipPath id="clip1_22_231">
<rect width="24" height="24" fill="white" transform="translate(0.5)"/>
</clipPath>
<clipPath id="clip2_22_231">
<rect width="24" height="24" fill="white" transform="translate(0.5)"/>
</clipPath>
<clipPath id="clip3_22_231">
<rect width="24" height="24" fill="white" transform="translate(0.5)"/>
</clipPath>
<clipPath id="clip4_22_231">
<rect width="24" height="24" fill="white" transform="translate(0.5)"/>
</clipPath>
<clipPath id="clip5_22_231">
<rect width="24" height="24" fill="white" transform="translate(0.5)"/>
</clipPath>
<clipPath id="clip6_22_231">
<rect width="24" height="24" fill="white" transform="translate(0.5)"/>
</clipPath>
<clipPath id="clip7_22_231">
<rect width="24" height="24" fill="white" transform="translate(0.5)"/>
</clipPath>
</defs>
</svg>
