<svg width="27" height="27" viewBox="0 0 27 27" fill="none" xmlns="http://www.w3.org/2000/svg">
<g clip-path="url(#clip0_102_2941)">
<path d="M3.90714 15.4343L12.8446 3.2476C12.9236 3.14985 13.0235 3.07101 13.1369 3.01684C13.2503 2.96268 13.3744 2.93457 13.5 2.93457C13.6257 2.93457 13.7498 2.96268 13.8632 3.01684C13.9766 3.07101 14.0765 3.14985 14.1554 3.2476L23.0929 15.4343C23.1927 15.5809 23.2423 15.756 23.2342 15.9332C23.2262 16.1104 23.1609 16.2802 23.0482 16.4172C22.9355 16.5542 22.7815 16.651 22.6092 16.693C22.4369 16.7351 22.2556 16.7203 22.0924 16.6507L13.5 12.6135L4.90765 16.6506C4.74442 16.7217 4.56248 16.7376 4.38938 16.696C4.21629 16.6544 4.06146 16.5575 3.94837 16.42C3.83527 16.2825 3.77006 16.1119 3.76262 15.9341C3.75518 15.7562 3.80592 15.5807 3.90714 15.4343ZM22.7653 18.313L13.9054 14.4035C13.8031 14.358 13.6923 14.3343 13.5803 14.334C13.4682 14.3337 13.3574 14.3569 13.2548 14.4019L4.23953 18.3113C4.09409 18.3742 3.97024 18.4782 3.88324 18.6106C3.79625 18.743 3.74993 18.898 3.75 19.0564V23.2721C3.75296 23.4055 3.78824 23.5362 3.85282 23.6529C3.9174 23.7697 4.00934 23.869 4.12075 23.9425C4.23217 24.0159 4.35974 24.0612 4.49251 24.0744C4.62528 24.0877 4.75928 24.0686 4.88303 24.0187L13.6492 20.2505L22.1073 24.0147C22.2312 24.0676 22.3661 24.0891 22.5003 24.0775C22.6345 24.0659 22.7638 24.0214 22.8767 23.948C22.9896 23.8746 23.0827 23.7746 23.1478 23.6567C23.2129 23.5388 23.248 23.4066 23.25 23.272V19.0564C23.2501 18.8988 23.2043 18.7445 23.1182 18.6125C23.0321 18.4805 22.9095 18.3765 22.7653 18.313Z" fill="#FFCF4D"/>
</g>
<defs>
<clipPath id="clip0_102_2941">
<rect width="26" height="26" fill="white" transform="translate(0.5 0.5)"/>
</clipPath>
</defs>
</svg>
