<svg width="24" height="24" viewBox="0 0 24 24" fill="none" xmlns="http://www.w3.org/2000/svg">
<g clip-path="url(#clip0_102_2951)">
<path d="M19.8422 3.82358H9.42641C9.15874 3.82358 8.90064 3.72451 8.70172 3.54543L6.91323 1.93538C6.71431 1.75633 6.45617 1.65723 6.18853 1.65723H1.78968C1.19148 1.65723 0.706543 2.14217 0.706543 2.74037V17.5434C0.706543 18.1416 1.19148 18.6266 1.78968 18.6266H19.8421C20.4404 18.6266 20.9253 18.1416 20.9253 17.5434V4.90672C20.9254 4.30852 20.4404 3.82358 19.8422 3.82358Z" fill="#FBC41A"/>
<path d="M20.9253 4.90485V17.543C20.9253 18.1392 20.4427 18.6265 19.8465 18.6265H1.7906C1.19441 18.6265 0.707031 18.1392 0.707031 17.543V16.6156C18.8954 16.0667 17.0501 3.82129 17.0501 3.82129H19.8465C20.4427 3.82129 20.9253 4.3039 20.9253 4.90485Z" fill="#F59F02"/>
<path d="M22.2116 7.54038H11.7958C11.5281 7.54038 11.27 7.44131 11.0711 7.26222L9.28261 5.65218C9.08369 5.47313 8.82555 5.37402 8.55792 5.37402H4.15907C3.56087 5.37402 3.07593 5.85896 3.07593 6.45716V21.2602C3.07593 21.8584 3.56087 22.3434 4.15907 22.3434H22.2115C22.8098 22.3434 23.2947 21.8584 23.2947 21.2602V8.62352C23.2948 8.02532 22.8098 7.54038 22.2116 7.54038Z" fill="#92DA0D"/>
<path d="M23.2948 8.62263V21.2607C23.2948 21.8569 22.8122 22.3443 22.216 22.3443H4.1601C3.56391 22.3443 3.07654 21.8569 3.07654 21.2607V20.3334C21.2649 19.7845 19.4196 7.53906 19.4196 7.53906H22.216C22.8122 7.53906 23.2948 8.02167 23.2948 8.62263Z" fill="#73B816"/>
<path d="M21.2789 10.3818H20.573V11.0877H21.2789V10.3818Z" fill="#002244"/>
<path d="M22.2106 7.18724H21.2788V4.90724C21.2788 4.11312 20.6329 3.47077 19.8423 3.47077H9.42702C9.24706 3.47077 9.07059 3.40371 8.93643 3.28371L7.15055 1.67077C6.88585 1.4343 6.54349 1.30371 6.18702 1.30371H1.78938C0.998788 1.30371 0.352905 1.94959 0.352905 2.74018V17.5425C0.352905 18.3367 0.998788 18.979 1.78938 18.979H2.72467V21.259C2.72467 22.0531 3.36702 22.6955 4.15761 22.6955H22.2106C23.0047 22.6955 23.647 22.0531 23.647 21.259V8.62371C23.647 7.83312 23.0047 7.18724 22.2106 7.18724ZM22.2106 7.89312C22.6129 7.89312 22.9411 8.22136 22.9411 8.62371V10.3814H3.43055C3.43055 9.37315 3.43055 7.46059 3.43055 6.45665C3.43055 6.0543 3.75526 5.72606 4.15761 5.72606H8.55879C8.73879 5.72606 8.91173 5.79312 9.04585 5.91312C9.08643 5.9505 10.8733 7.58684 11.107 7.71665C11.3153 7.83312 11.5517 7.89312 11.7953 7.89312C12.0805 7.89312 22.8002 7.89312 22.2106 7.89312ZM1.78938 2.00959H6.18702C6.37055 2.00959 6.54349 2.07665 6.67761 2.19665L8.46702 3.80606C8.7282 4.0461 9.07055 4.17665 9.42702 4.17665H19.8423C20.2447 4.17665 20.5729 4.50489 20.5729 4.90724V7.01077V7.18724H11.7953C11.6223 7.18724 11.4529 7.12371 11.3223 7.01077C11.3188 7.00724 11.3117 7.00371 11.3082 7.00018L9.51879 5.39077C9.25408 5.15077 8.91173 5.02018 8.55879 5.02018H4.15761C3.36702 5.02018 2.72467 5.66606 2.72467 6.45665V7.01077H1.05879V2.74018C1.05879 2.33783 1.38702 2.00959 1.78938 2.00959ZM1.78938 18.2731C1.38702 18.2731 1.05879 17.9449 1.05879 17.5425V7.71665H2.72467V18.2731H1.78938ZM22.2106 21.9896H4.15761C3.75526 21.9896 3.43055 21.6614 3.43055 21.259C3.43055 17.4592 3.43055 14.8164 3.43055 11.0872H22.9411V21.259C22.9411 21.6614 22.6129 21.9896 22.2106 21.9896Z" fill="#002244"/>
<path d="M20.006 20.1539C19.8599 20.1539 19.7413 20.0354 19.7413 19.8892V18.4238C19.7413 18.2777 19.8599 18.1591 20.006 18.1591C20.1522 18.1591 20.2707 18.2777 20.2707 18.4238V19.8892C20.2707 20.0354 20.1522 20.1539 20.006 20.1539ZM20.006 16.4273C19.8599 16.4273 19.7413 16.3088 19.7413 16.1626V14.9415C19.7413 14.7953 19.8599 14.6768 20.006 14.6768C20.1522 14.6768 20.2707 14.7953 20.2707 14.9415V16.1626C20.2707 16.3088 20.1522 16.4273 20.006 16.4273Z" fill="white"/>
</g>
<defs>
<clipPath id="clip0_102_2951">
<rect width="24" height="24" fill="white"/>
</clipPath>
</defs>
</svg>
