<svg width="24" height="24" viewBox="0 0 24 24" fill="none" xmlns="http://www.w3.org/2000/svg">
<g clip-path="url(#clip0_278_6378)">
<path d="M8.51211 15.4879L15.4879 8.51211M7.61887 10.3411L5.23689 12.7231C4.44467 13.52 4 14.5981 4 15.7218C4 16.8456 4.44467 17.9236 5.23689 18.7206C6.03385 19.5128 7.11191 19.9575 8.23563 19.9575C9.35935 19.9575 10.4374 19.5128 11.2344 18.7206L13.6163 16.3386M16.3811 13.6163L18.7631 11.2344C19.5553 10.4374 20 9.35935 20 8.23563C20 7.11191 19.5553 6.03384 18.7631 5.23689C17.9662 4.44467 16.8881 4 15.7644 4C14.6406 4 13.5626 4.44467 12.7656 5.23689L10.3837 7.61887" stroke="black" stroke-width="1.6" stroke-linecap="round" stroke-linejoin="round"/>
</g>
<defs>
<clipPath id="clip0_278_6378">
<rect width="24" height="24" fill="white"/>
</clipPath>
</defs>
</svg>
