<svg width="25" height="24" viewBox="0 0 25 24" fill="none" xmlns="http://www.w3.org/2000/svg">
<g clip-path="url(#clip0_432_935)">
<path d="M20.853 9.247C21.334 10.4082 21.5514 11.6615 21.4898 12.9169C21.4281 14.1722 21.0888 15.3982 20.4963 16.5066C19.9039 17.615 19.073 18.5783 18.0635 19.327C17.054 20.0757 15.891 20.5912 14.6584 20.8364C13.4257 21.0816 12.154 21.0504 10.9348 20.745C9.71563 20.4397 8.57935 19.8678 7.60779 19.0704C6.63623 18.2731 5.85357 17.2703 5.31618 16.1342C4.77879 14.998 4.50004 13.7568 4.5 12.5C4.5 12.3674 4.55268 12.2402 4.64645 12.1464C4.74021 12.0527 4.86739 12 5 12C5.13261 12 5.25979 12.0527 5.35355 12.1464C5.44732 12.2402 5.5 12.3674 5.5 12.5C5.49663 14.2243 6.08707 15.8973 7.17204 17.2375C8.25702 18.5777 9.77036 19.5035 11.4576 19.8592C13.1449 20.215 14.9032 19.9789 16.4369 19.1907C17.9705 18.4025 19.1861 17.1103 19.8791 15.5314C20.5721 13.9524 20.7004 12.183 20.2423 10.5206C19.7841 8.85819 18.7676 7.40422 17.3636 6.40314C15.9596 5.40206 14.2538 4.91491 12.5328 5.02361C10.8119 5.13231 9.18089 5.83022 7.914 7H10C10.1326 7 10.2598 7.05268 10.3536 7.14645C10.4473 7.24021 10.5 7.36739 10.5 7.5C10.5 7.63261 10.4473 7.75979 10.3536 7.85355C10.2598 7.94732 10.1326 8 10 8H7C6.86739 8 6.74021 7.94732 6.64645 7.85355C6.55268 7.75979 6.5 7.63261 6.5 7.5V4.5C6.5 4.36739 6.55268 4.24021 6.64645 4.14645C6.74021 4.05268 6.86739 4 7 4C7.13261 4 7.25979 4.05268 7.35355 4.14645C7.44732 4.24021 7.5 4.36739 7.5 4.5V6.027C8.52048 5.16029 9.73127 4.54689 11.0337 4.23679C12.3362 3.92669 13.6935 3.92865 14.9951 4.24252C16.2966 4.55638 17.5056 5.17327 18.5236 6.04293C19.5416 6.91259 20.3397 8.01043 20.853 9.247ZM13 7C12.8674 7 12.7402 7.05268 12.6464 7.14645C12.5527 7.24021 12.5 7.36739 12.5 7.5V12.5C12.4999 12.5657 12.5127 12.6308 12.5378 12.6915C12.5628 12.7523 12.5996 12.8075 12.646 12.854L15.646 15.854C15.7399 15.9479 15.8672 16.0006 16 16.0006C16.1328 16.0006 16.2601 15.9479 16.354 15.854C16.4479 15.7601 16.5006 15.6328 16.5006 15.5C16.5006 15.3672 16.4479 15.2399 16.354 15.146L13.5 12.293V7.5C13.5 7.36739 13.4473 7.24021 13.3536 7.14645C13.2598 7.05268 13.1326 7 13 7Z" fill="#002244" fill-opacity="0.6"/>
</g>
<defs>
<clipPath id="clip0_432_935">
<rect width="24" height="24" fill="white" transform="translate(0.5)"/>
</clipPath>
</defs>
</svg>
