<svg width="25" height="24" viewBox="0 0 25 24" fill="none" xmlns="http://www.w3.org/2000/svg">
<g clip-path="url(#clip0_22_186)">
<path d="M3.25 19.25L8.8295 13.6705C9.26885 13.2312 9.98115 13.2312 10.4205 13.6705L11.8295 15.0795C12.2689 15.5189 12.9811 15.5189 13.4205 15.0795L18.7045 9.79552C19.1439 9.35617 19.8561 9.35617 20.2955 9.79552L21.875 11.375" stroke="#062D47" stroke-width="1.25" stroke-linecap="round"/>
<path d="M9.25 9.25C10.0784 9.25 10.75 8.57843 10.75 7.75C10.75 6.92157 10.0784 6.25 9.25 6.25C8.42157 6.25 7.75 6.92157 7.75 7.75C7.75 8.57843 8.42157 9.25 9.25 9.25Z" stroke="#062D47" stroke-width="1.25"/>
<path d="M6.5 21.5H18.25C20.3211 21.5 22 19.8211 22 17.75V12.3157V6C22 3.92893 20.3211 2.25 18.25 2.25H17.6352H6.5C4.42893 2.25 2.75 3.92893 2.75 6V17.75C2.75 19.8211 4.42893 21.5 6.5 21.5Z" stroke="#062D47" stroke-width="1.25"/>
</g>
<defs>
<clipPath id="clip0_22_186">
<rect width="24" height="24" fill="white" transform="translate(0.5)"/>
</clipPath>
</defs>
</svg>
