<svg width="25" height="24" viewBox="0 0 25 24" fill="none" xmlns="http://www.w3.org/2000/svg">
<path d="M12.5 8.375C12.1548 8.375 11.875 8.65485 11.875 9C11.875 9.34515 12.1548 9.625 12.5 9.625C12.8452 9.625 13.125 9.34515 13.125 9C13.125 8.65485 12.8452 8.375 12.5 8.375ZM12.5 10.5C12.2239 10.5 12 10.7239 12 11V15.0005C12.0002 15.2766 12.224 15.5002 12.5 15.5C12.7759 15.4998 13.0002 15.276 13 15V11C13 10.7239 12.7761 10.5 12.5 10.5ZM12.5 2C6.97717 2 2.5 6.47717 2.5 12C2.5 17.5228 6.97717 22 12.5 22C18.0201 21.9935 22.4935 17.5201 22.5 12C22.5 6.47717 18.0228 2 12.5 2ZM12.5 21C7.52942 21 3.5 16.9706 3.5 12C3.5 7.02942 7.52942 3 12.5 3C17.4683 3.00543 21.4946 7.03168 21.5 12C21.5 16.9706 17.4706 21 12.5 21Z" fill="#002244" fill-opacity="0.6"/>
</svg>
