<svg width="26" height="26" viewBox="0 0 26 26" fill="none" xmlns="http://www.w3.org/2000/svg">
<g clip-path="url(#clip0_278_6363)">
<path fill-rule="evenodd" clip-rule="evenodd" d="M10.6648 2.00003C9.89602 1.99786 9.1344 2.14769 8.42374 2.44091C7.71308 2.73414 7.06741 3.16497 6.52385 3.70863C5.98029 4.25229 5.54958 4.89805 5.25649 5.60876C4.9634 6.31948 4.81371 7.08113 4.81603 7.8499C4.81385 8.61873 4.96368 9.3804 5.25689 10.0911C5.5501 10.8018 5.98092 11.4476 6.52456 11.9912C7.06821 12.5349 7.71396 12.9657 8.42468 13.2589C9.1354 13.5521 9.89707 13.7019 10.6659 13.6998C11.4348 13.7021 12.1965 13.5524 12.9073 13.2592C13.6181 12.966 14.2639 12.5352 14.8076 11.9916C15.3512 11.4479 15.782 10.8021 16.0752 10.0913C16.3684 9.38051 16.5181 8.61877 16.5158 7.8499C16.5182 7.0809 16.3686 6.31901 16.0754 5.60808C15.7822 4.89715 15.3513 4.25124 14.8075 3.70752C14.2637 3.1638 13.6177 2.73302 12.9067 2.43998C12.1957 2.14694 11.4338 1.99742 10.6648 2.00003ZM10.6648 3.65005C11.217 3.64758 11.7643 3.75452 12.2749 3.96471C12.7856 4.17489 13.2496 4.48415 13.6401 4.87464C14.0305 5.26513 14.3398 5.7291 14.55 6.23976C14.7602 6.75043 14.8671 7.29768 14.8646 7.8499C14.867 8.40208 14.7599 8.94926 14.5497 9.45986C14.3395 9.97047 14.0302 10.4344 13.6397 10.8248C13.2493 11.2153 12.7854 11.5246 12.2748 11.7348C11.7642 11.945 11.217 12.0521 10.6648 12.0497C10.1127 12.0518 9.56575 11.9445 9.05535 11.7342C8.54494 11.5238 8.08122 11.2145 7.69091 10.8241C7.30059 10.4337 6.99142 9.9699 6.7812 9.45944C6.57098 8.94897 6.46387 8.40195 6.46605 7.8499C6.46372 7.29781 6.57073 6.75072 6.7809 6.24019C6.99107 5.72967 7.30024 5.2658 7.69058 4.87536C8.08092 4.48492 8.5447 4.17562 9.05517 3.96532C9.56565 3.75502 10.1127 3.64787 10.6648 3.65005ZM10.6648 15.7018C5.13174 15.7018 2 16.7523 2 19.7278C2 22.7056 5.14604 23.7759 10.6648 23.7759L11.3732 23.7693C16.463 23.6802 19.3296 22.5945 19.3296 19.7498C19.3296 16.837 16.32 15.7491 11.0223 15.704L10.6648 15.7018ZM10.6648 17.3518C15.2871 17.3518 17.6796 18.1658 17.6796 19.7498C17.6796 21.324 15.2926 22.1259 10.6648 22.1259C6.04365 22.1259 3.65002 21.3119 3.65002 19.7278C3.65002 18.1944 5.90944 17.3958 10.2941 17.354L10.6648 17.3518ZM20.9246 8.51101C21.124 8.51102 21.3166 8.58322 21.4668 8.71425C21.6171 8.84529 21.7148 9.02631 21.7419 9.22382L21.7496 9.33602V10.7165H23.1752C23.3843 10.7166 23.5855 10.796 23.7382 10.9387C23.891 11.0814 23.9838 11.2768 23.9981 11.4853C24.0123 11.6939 23.9469 11.9 23.815 12.0622C23.6831 12.2243 23.4945 12.3304 23.2874 12.3589L23.1752 12.3666H21.7496V13.7471C21.7496 13.9561 21.6702 14.1573 21.5275 14.31C21.3848 14.4628 21.1894 14.5557 20.9808 14.5699C20.7723 14.5842 20.5661 14.5187 20.404 14.3868C20.2418 14.2549 20.1358 14.0663 20.1073 13.8593L20.0996 13.7471V12.3666H18.6762C18.4672 12.3665 18.266 12.2871 18.1132 12.1444C17.9605 12.0017 17.8676 11.8063 17.8534 11.5978C17.8391 11.3892 17.9045 11.1831 18.0365 11.0209C18.1684 10.8588 18.3569 10.7527 18.564 10.7242L18.6762 10.7165H20.0996V9.33602C20.0996 9.11721 20.1865 8.90737 20.3412 8.75265C20.496 8.59793 20.7058 8.51101 20.9246 8.51101Z" fill="#200E32"/>
</g>
<defs>
<clipPath id="clip0_278_6363">
<rect width="26" height="26" fill="white"/>
</clipPath>
</defs>
</svg>
