<svg width="22" height="22" viewBox="0 0 22 22" fill="none" xmlns="http://www.w3.org/2000/svg">
<path d="M9.16391 5.68091V5.58091H9.06391H4.12774C3.97736 5.58091 3.84427 5.63147 3.74852 5.72722C3.65277 5.82296 3.60221 5.95606 3.60221 6.10644V15.2128C3.60221 15.3632 3.65277 15.4963 3.74852 15.592C3.84427 15.6878 3.97736 15.7384 4.12774 15.7384H17.915C18.2184 15.7384 18.4405 15.5302 18.4405 15.2554V6.10644C18.4405 5.95606 18.3899 5.82296 18.2942 5.72722C18.1985 5.63147 18.0654 5.58091 17.915 5.58091H12.9363H12.8363V5.68091V6.53197V6.63197H12.9363H17.432V14.7298H4.65327V6.63197H9.06391H9.16391V6.53197V5.68091Z" fill="white" stroke="white" stroke-width="0.2"/>
<path d="M3.66148 14.9871L3.66086 14.9867L3.65538 14.9975L0.977096 20.3116C0.873138 20.4722 0.874314 20.6832 0.980625 20.8427C1.03402 20.9228 1.11146 20.9862 1.19195 21.0295C1.27198 21.0726 1.36269 21.1 1.44681 21.1H20.5957C20.6799 21.1 20.7706 21.0726 20.8506 21.0295C20.9311 20.9862 21.0085 20.9228 21.0619 20.8427L21.0694 20.8316L21.0736 20.8189C21.0956 20.753 21.1201 20.6689 21.1263 20.5816C21.1325 20.4956 21.1214 20.399 21.0657 20.312L18.43 14.9981L18.4299 14.9978C18.3814 14.9009 18.3177 14.8221 18.2363 14.7679C18.1543 14.7132 18.0601 14.6872 17.9574 14.6872H4.12766C3.90436 14.6872 3.75061 14.8534 3.66148 14.9871ZM10.6527 1.05695L10.6526 1.05687L10.6495 1.0603L7.58716 4.42036C7.43701 4.57167 7.38018 4.78252 7.4803 4.99249C7.54244 5.21644 7.76454 5.31277 7.95745 5.31277H8.75106V7.17021C8.75106 7.3206 8.80163 7.45369 8.89737 7.54943C8.99312 7.64518 9.12621 7.69574 9.2766 7.69574H12.766C12.9171 7.69574 13.0484 7.64479 13.148 7.55183C13.2467 7.45968 13.3085 7.33186 13.3327 7.18665L13.334 7.17849V7.17021V5.31277H14.1277C14.2303 5.31277 14.3245 5.28683 14.4065 5.23214C14.4879 5.17787 14.5516 5.09914 14.6001 5.00217L14.605 4.99235L14.6077 4.9817C14.6528 4.80092 14.6617 4.5857 14.498 4.42037L11.4356 1.0603L11.4357 1.06023L11.4324 1.05695C11.2231 0.847684 10.862 0.847684 10.6527 1.05695ZM19.7524 20.0489H2.29015L4.44452 15.7809H17.598L19.7524 20.0489ZM12.2404 4.78723V6.64468H9.80213V4.82979C9.80213 4.6794 9.75156 4.54631 9.65582 4.45057C9.56007 4.35482 9.42698 4.30426 9.2766 4.30426H9.15919L11.022 2.21339L12.8806 4.2617H12.766C12.6156 4.2617 12.4825 4.31227 12.3867 4.40801C12.291 4.50376 12.2404 4.63685 12.2404 4.78723Z" fill="white" stroke="white" stroke-width="0.2"/>
<path d="M9.02136 18.3894H8.92136V18.4894V19.3404V19.4404H9.02136H13.0214H13.1214V19.3404V18.4894V18.3894H13.0214H9.02136Z" fill="white" stroke="white" stroke-width="0.2"/>
</svg>
