<svg width="25" height="24" viewBox="0 0 25 24" fill="none" xmlns="http://www.w3.org/2000/svg">
<path d="M17.881 13.3711C19.4342 12.5228 20.5001 10.8944 20.5001 9C20.5001 6.23859 18.2615 4 15.5001 4C15.3595 4.00256 15.2192 4.01465 15.0802 4.03613L14.9445 4.05371L14.9408 4.05414C14.6664 4.08588 14.4697 4.33405 14.5014 4.60846C14.5332 4.88287 14.7814 5.07959 15.0558 5.04785L15.215 5.02734C15.3093 5.01184 15.4045 5.00275 15.5001 5C17.7093 5 19.5001 6.79083 19.5001 9C19.5001 11.2092 17.7093 13 15.5001 13C15.224 13 15.0001 13.2239 15.0001 13.5C15.0001 13.7761 15.224 14 15.5001 14C19.1799 14.0087 22.2263 16.8619 22.4757 20.5332C22.4935 20.7958 22.7116 20.9998 22.9747 21C22.9855 21 22.9962 21 23.0079 20.999C23.2835 20.9805 23.4919 20.7424 23.4738 20.4668C23.2441 17.0976 20.952 14.3356 17.881 13.3711ZM11.8795 13.3696C13.4321 12.521 14.4979 10.8936 14.5001 9C14.5001 6.23859 12.2615 4 9.50013 4C6.73872 4 4.50013 6.23859 4.50013 9C4.50013 10.8936 5.56519 12.5214 7.11726 13.3701C4.05842 14.3276 1.74934 17.0767 1.5265 20.4668C1.50831 20.7424 1.7168 20.9805 1.99232 20.999C1.99647 20.9993 2.00068 20.9996 2.00483 20.9999C2.27723 21.0145 2.50989 20.8056 2.52454 20.5332C2.7541 17.0328 5.5423 14.2445 9.04273 14.015C12.8953 13.7624 16.2232 16.6807 16.4757 20.5332C16.4935 20.7958 16.7116 20.9998 16.9747 21C16.9855 21 16.9962 21 17.0079 20.999C17.2835 20.9805 17.492 20.7424 17.4738 20.4668C17.2532 17.1099 14.9708 14.3337 11.8795 13.3696ZM9.50013 13C7.29096 13 5.50013 11.2092 5.50013 9C5.50013 6.79083 7.29096 5 9.50013 5C11.7084 5.0022 13.4979 6.79175 13.5001 9C13.5001 11.2092 11.7093 13 9.50013 13Z" fill="#002244" fill-opacity="0.6"/>
</svg>
