<svg width="14" height="14" viewBox="0 0 14 14" fill="none" xmlns="http://www.w3.org/2000/svg">
<g clip-path="url(#clip0_951_8)">
<path d="M2.44455 12.0422C2.53526 12.107 2.65283 12.1206 2.75596 12.0785L6.32903 10.6159C6.38173 10.5944 6.42785 10.5593 6.46269 10.5143L11.6881 3.76726C12.0224 3.3355 12.1701 2.78769 12.0979 2.24621C12.0258 1.70486 11.7399 1.21482 11.3039 0.885675L10.7029 0.431614C9.80848 -0.239216 8.54144 -0.069703 7.85477 0.812701L2.6033 7.60791C2.56339 7.65972 2.53995 7.72243 2.53615 7.78768L2.30912 11.7597C2.30279 11.8709 2.35397 11.9776 2.44455 12.0422ZM3.14794 8.45015L5.53455 10.24L2.98603 11.2831L3.14794 8.45015ZM6.13405 9.87884L3.30669 7.75842L7.57124 2.24026L10.3918 4.38146L6.13405 9.87884ZM8.368 1.20924C8.83675 0.607081 9.70142 0.491285 10.3119 0.949147L10.913 1.40321C11.2106 1.62783 11.4057 1.9623 11.455 2.33185C11.5042 2.70141 11.4034 3.07528 11.1751 3.37009L10.7889 3.86862L7.96791 1.72703L8.368 1.20924Z" fill="black"/>
<path d="M13.6757 13.3525H0.324329C0.145188 13.3525 0 13.4977 0 13.6769C0 13.856 0.145188 14.0012 0.324329 14.0012H13.6757C13.8548 14.0012 14 13.856 14 13.6769C14 13.4977 13.8548 13.3525 13.6757 13.3525Z" fill="black"/>
</g>
<defs>
<clipPath id="clip0_951_8">
<rect width="14" height="14" fill="white"/>
</clipPath>
</defs>
</svg>
