<svg width="30" height="30" viewBox="0 0 30 30" fill="none" xmlns="http://www.w3.org/2000/svg">
<g clip-path="url(#clip0_102_3416)">
<g clip-path="url(#clip1_102_3416)">
<path d="M24.4154 0.692383H14.4923V20.077H29.5846V5.86161L24.4154 0.692383Z" fill="white"/>
<path d="M16.3385 18.2304V2.53809H23.6308L27.7385 6.59962V18.2304H16.3385Z" fill="#44C4A1"/>
<path d="M23.6309 6.64578H27.7386L23.6309 2.53809V6.64578Z" fill="#D3D7DA"/>
<path d="M17.6308 9.92285H7.75391V29.3075H22.8001V15.0921L17.6308 9.92285Z" fill="white"/>
<path d="M9.6001 27.4609V11.7686H16.8463L20.9539 15.8301V27.4609H9.6001Z" fill="#FFBF5D"/>
<path d="M16.8462 15.8762H20.9539L16.8462 11.7686V15.8762Z" fill="#D3D7DA"/>
<path d="M15.0462 19.2921C15.0462 19.2921 6.23078 21.3229 0.969238 9.92285C0.969238 9.92285 2.9077 21.969 15.2308 23.169V25.1998L19.4308 20.9998L14.9077 17.3536L15.0462 19.2921Z" fill="white"/>
<path d="M14.4 13.3389H15.323V14.2619H14.4V13.3389ZM11.6307 13.3389H12.5538V14.2619H11.6307V13.3389Z" fill="#193651"/>
<path d="M24.8746 0.505056C24.6988 0.329241 24.4603 0.230469 24.2117 0.230469H14.9683C14.4505 0.230469 14.0308 0.650202 14.0308 1.16797V8.52374C14.0308 9.04151 13.611 9.46124 13.0933 9.46124H8.22982C7.71205 9.46124 7.29232 9.88097 7.29232 10.3987V15.3062C7.29232 16.0494 6.4759 16.4832 5.90925 16.0024C4.70521 14.9807 3.75446 13.8095 2.95564 12.5752C2.36599 11.6641 1.05757 12.1012 1.44774 13.1139C2.40898 15.6087 4.03871 18.3197 6.90021 20.4817C7.1425 20.6648 7.29232 20.9493 7.29232 21.253V28.8314C7.29232 29.3492 7.71205 29.7689 8.22982 29.7689H22.324C22.8418 29.7689 23.2615 29.3492 23.2615 28.8314V21.4757C23.2615 20.9579 23.6813 20.5382 24.199 20.5382H29.1087C29.6264 20.5382 30.0462 20.1184 30.0462 19.6007V6.06495C30.0462 5.81631 29.9474 5.57785 29.7716 5.40204L24.8746 0.505056ZM9.5003 21.0944C8.4855 20.5786 9.6868 19.2945 10.7952 19.5542C13.0743 20.0884 14.7982 19.808 15.0943 19.7601C15.1262 19.7549 15.1543 19.7496 15.1857 19.7417C15.3719 19.6952 15.4977 19.5216 15.4841 19.3301L15.483 19.3152C15.4573 18.9552 15.8731 18.7377 16.1542 18.9641L17.9255 20.391C18.3597 20.7407 18.3945 21.3898 18.0003 21.784L16.3828 23.4016C16.128 23.6563 15.6923 23.4759 15.6923 23.1156C15.6923 22.9095 15.5374 22.7363 15.3325 22.7136L15.2769 22.7074C13.0034 22.4929 11.0975 21.9063 9.5003 21.0944ZM22.3385 28.8459H9.1529C8.63513 28.8459 8.2154 28.4261 8.2154 27.9084V23.0784C8.2154 22.348 9.0201 21.8889 9.68194 22.1977C10.955 22.7917 12.4057 23.2596 14.0463 23.5272C14.4578 23.5944 14.7692 23.9438 14.7692 24.3607C14.7692 25.0961 15.6584 25.4644 16.1784 24.9444L19.389 21.7338C19.7817 21.3411 19.7488 20.6948 19.3181 20.344L15.8105 17.487C15.2685 17.0455 14.4599 17.4566 14.4973 18.1547C14.5204 18.5845 14.2022 18.9598 13.7719 18.9707C12.6339 18.9996 10.7503 18.8637 8.67269 17.8831C8.35933 17.7352 8.16924 17.4139 8.16924 17.0674V11.3218C8.16924 10.804 8.58897 10.3843 9.10674 10.3843H17.0117C17.2603 10.3843 17.4988 10.4831 17.6746 10.6589L22.0177 15.002C22.1935 15.1778 22.2923 15.4163 22.2923 15.6649V28.7997C22.2923 28.8252 22.313 28.8459 22.3385 28.8459ZM29.1231 19.6151H24.199C23.6813 19.6151 23.2615 19.1954 23.2615 18.6776V15.2957C23.2615 15.0471 23.1628 14.8086 22.987 14.6328L18.09 9.73583C17.9142 9.56001 17.6757 9.46124 17.4271 9.46124H15.8914C15.3736 9.46124 14.9539 9.0415 14.9539 8.52374V2.09105C14.9539 1.57328 15.3736 1.15355 15.8914 1.15355H23.7963C24.0449 1.15355 24.2834 1.25232 24.4592 1.42813L28.8023 5.77127C28.9782 5.94708 29.0769 6.18554 29.0769 6.43418V19.5689C29.0769 19.5944 29.0976 19.6151 29.1231 19.6151Z" fill="#193651"/>
<path d="M21.1846 4.56934H22.1077V5.49241H21.1846V4.56934ZM18.4154 4.56934H19.3385V5.49241H18.4154V4.56934Z" fill="#193651"/>
</g>
</g>
<defs>
<clipPath id="clip0_102_3416">
<rect width="30" height="30" fill="white"/>
</clipPath>
<clipPath id="clip1_102_3416">
<rect width="30" height="30" fill="white"/>
</clipPath>
</defs>
</svg>
