<svg width="20" height="20" viewBox="0 0 20 20" fill="none" xmlns="http://www.w3.org/2000/svg">
<path d="M1.25 18.1249C1.20234 18.1249 1.15422 18.1194 1.10656 18.1085C0.824531 18.0413 0.625 17.7898 0.625 17.4999C0.625 11.8205 1.34344 7.09711 10 6.88226V2.49992C10 2.25148 10.147 2.02695 10.3742 1.92742C10.6006 1.82851 10.8661 1.87133 11.0492 2.04101L19.1742 9.54101C19.3023 9.65867 19.375 9.82539 19.375 9.99992C19.375 10.1745 19.3023 10.3412 19.1742 10.459L11.0492 17.959C10.8667 18.1287 10.6012 18.1726 10.3742 18.0726C10.147 17.9729 10 17.7484 10 17.4999V13.1323C4.06187 13.2744 2.96625 15.4651 1.80906 17.7795C1.70172 17.9949 1.4825 18.1249 1.25 18.1249ZM10.625 11.8749C10.9705 11.8749 11.25 12.1545 11.25 12.4999V16.0723L17.8284 9.99992L11.25 3.92758V7.49992C11.25 7.84539 10.9705 8.12492 10.625 8.12492C3.72063 8.12492 2.23391 10.7952 1.94156 15.0604C3.23609 13.3215 5.4425 11.8749 10.625 11.8749Z" fill="white"/>
</svg>
