<svg width="24" height="24" viewBox="0 0 24 24" fill="none" xmlns="http://www.w3.org/2000/svg">
<g clip-path="url(#clip0_53_248)">
<mask id="path-1-outside-1_53_248" maskUnits="userSpaceOnUse" x="2" y="2" width="22" height="22" fill="black">
<rect fill="white" x="2" y="2" width="22" height="22"/>
<path d="M3.97827 15.3526C3.88341 14.8514 3.83487 14.3426 3.83328 13.8325C3.83328 9.44625 7.24055 5.84925 11.5461 5.53006L9.78788 7.28772C9.71199 7.36631 9.66999 7.47157 9.67094 7.58083C9.67189 7.69009 9.71571 7.7946 9.79296 7.87186C9.8702 7.94912 9.9747 7.99295 10.0839 7.9939C10.1932 7.99485 10.2984 7.95284 10.377 7.87694L12.8035 5.45005C12.888 5.3956 12.9494 5.31192 12.976 5.21503L12.9802 5.19752C12.986 5.17169 12.9977 5.14835 12.9993 5.12168C13.0002 5.10168 12.9927 5.08418 12.9902 5.06418C12.9893 5.04668 12.9968 5.03084 12.9943 5.01417C12.991 4.99917 12.9802 4.98751 12.9752 4.97167C12.9716 4.96104 12.9671 4.95073 12.9618 4.94083C12.9291 4.84161 12.8597 4.75869 12.7677 4.70915L9.43457 3.04233C9.33579 2.99404 9.22194 2.98676 9.11782 3.02207C9.01369 3.05739 8.92775 3.13243 8.87871 3.23085C8.82967 3.32927 8.82152 3.44308 8.85603 3.54749C8.89053 3.6519 8.96491 3.73843 9.06293 3.78823L10.9861 4.74998C6.48893 5.33254 3 9.17872 3 13.8325C3 14.3775 3.0525 14.9243 3.15916 15.5043C3.16794 15.5592 3.18762 15.6117 3.21702 15.6589C3.24642 15.706 3.28496 15.7468 3.33036 15.7789C3.37576 15.8109 3.42711 15.8335 3.48138 15.8454C3.53566 15.8573 3.59177 15.8583 3.6464 15.8481C3.70104 15.838 3.75309 15.8171 3.79952 15.7865C3.84594 15.756 3.88578 15.7165 3.9167 15.6703C3.94763 15.6241 3.969 15.5722 3.97958 15.5177C3.99015 15.4631 3.9897 15.407 3.97827 15.3526ZM22.9412 16.5361C22.8844 16.4413 22.7923 16.3728 22.6852 16.3458C22.578 16.3188 22.4645 16.3354 22.3695 16.3919L20.5722 17.4653C21.0721 16.3194 21.3308 15.0828 21.3321 13.8325C21.3321 9.96213 18.8764 6.49181 15.2217 5.19836C15.1175 5.16171 15.003 5.16778 14.9032 5.21525C14.8035 5.26271 14.7265 5.34772 14.6892 5.45171C14.6526 5.55594 14.6589 5.67042 14.7065 5.77007C14.7541 5.86973 14.8393 5.94645 14.9434 5.98343C16.5657 6.55886 17.9705 7.62202 18.9651 9.02721C19.9596 10.4324 20.4954 12.1108 20.4988 13.8325C20.4977 15.0463 20.2298 16.245 19.7139 17.3436L19.2414 15.0009C19.2306 14.9472 19.2094 14.8962 19.1789 14.8507C19.1484 14.8053 19.1092 14.7663 19.0637 14.7359C19.0181 14.7056 18.967 14.6845 18.9133 14.6739C18.8596 14.6633 18.8043 14.6634 18.7506 14.6742C18.6969 14.685 18.6459 14.7063 18.6005 14.7368C18.555 14.7673 18.516 14.8064 18.4856 14.852C18.4553 14.8976 18.4343 14.9487 18.4237 15.0024C18.4131 15.0561 18.4132 15.1114 18.424 15.1651L19.1114 18.5729C19.1148 18.6671 19.1473 18.7563 19.2106 18.8288L19.2139 18.8321C19.2389 18.8604 19.2614 18.8896 19.2947 18.9104C19.3056 18.9171 19.3189 18.9146 19.3297 18.9205C19.3439 18.9288 19.3522 18.943 19.3672 18.9496C19.428 18.9773 19.4946 18.9897 19.5613 18.9858C19.6279 18.9819 19.6926 18.9617 19.7497 18.9271L22.7962 17.1078C22.8433 17.0798 22.8844 17.0428 22.9172 16.9989C22.9499 16.955 22.9737 16.9051 22.9872 16.852C23.0007 16.7989 23.0035 16.7437 22.9956 16.6894C22.9877 16.6352 22.9692 16.5831 22.9412 16.5361ZM17.5749 20.1639C16.0679 21.4544 14.1499 22.1645 12.1661 22.1666C10.8111 22.1677 9.47652 21.8367 8.2791 21.2025C7.08167 20.5683 6.05789 19.6503 5.29735 18.5287L7.89051 19.2355C7.99714 19.2645 8.11095 19.2501 8.2069 19.1952C8.30285 19.1403 8.37308 19.0496 8.40214 18.943C8.4312 18.8363 8.41671 18.7225 8.36186 18.6265C8.30701 18.5305 8.21629 18.4603 8.10966 18.4312L4.55573 17.4637C4.47923 17.4312 4.39475 17.4225 4.31325 17.4386C4.30158 17.4403 4.29158 17.4453 4.27991 17.4478C4.25408 17.4553 4.22659 17.457 4.20159 17.4695C4.18825 17.4762 4.17992 17.4887 4.16826 17.4962C4.15659 17.5028 4.14326 17.5037 4.13242 17.512C4.11659 17.5237 4.10909 17.5412 4.09576 17.5545C4.08322 17.5673 4.07152 17.581 4.06076 17.5953C4.00379 17.6618 3.96937 17.7447 3.96244 17.832L3.83244 21.3182C3.82839 21.4286 3.86833 21.5361 3.94349 21.617C4.01865 21.698 4.12287 21.7458 4.23325 21.7499H4.24908C4.35683 21.7498 4.46036 21.708 4.53801 21.6332C4.61566 21.5585 4.66142 21.4567 4.66572 21.349L4.74655 19.1996C5.59227 20.3771 6.70637 21.336 7.99651 21.9969C9.28665 22.6578 10.7157 23.0016 12.1652 23C14.3426 23 16.4558 22.2183 18.1157 20.7973C18.1594 20.7625 18.1957 20.7192 18.2224 20.67C18.2491 20.6208 18.2656 20.5668 18.271 20.5111C18.2763 20.4555 18.2704 20.3993 18.2536 20.3459C18.2368 20.2926 18.2094 20.2432 18.1731 20.2006C18.1367 20.1581 18.0922 20.1233 18.0422 20.0983C17.9921 20.0734 17.9376 20.0587 17.8818 20.0553C17.8259 20.0519 17.77 20.0597 17.7173 20.0784C17.6645 20.097 17.6161 20.1261 17.5749 20.1639Z"/>
</mask>
<path d="M3.97827 15.3526C3.88341 14.8514 3.83487 14.3426 3.83328 13.8325C3.83328 9.44625 7.24055 5.84925 11.5461 5.53006L9.78788 7.28772C9.71199 7.36631 9.66999 7.47157 9.67094 7.58083C9.67189 7.69009 9.71571 7.7946 9.79296 7.87186C9.8702 7.94912 9.9747 7.99295 10.0839 7.9939C10.1932 7.99485 10.2984 7.95284 10.377 7.87694L12.8035 5.45005C12.888 5.3956 12.9494 5.31192 12.976 5.21503L12.9802 5.19752C12.986 5.17169 12.9977 5.14835 12.9993 5.12168C13.0002 5.10168 12.9927 5.08418 12.9902 5.06418C12.9893 5.04668 12.9968 5.03084 12.9943 5.01417C12.991 4.99917 12.9802 4.98751 12.9752 4.97167C12.9716 4.96104 12.9671 4.95073 12.9618 4.94083C12.9291 4.84161 12.8597 4.75869 12.7677 4.70915L9.43457 3.04233C9.33579 2.99404 9.22194 2.98676 9.11782 3.02207C9.01369 3.05739 8.92775 3.13243 8.87871 3.23085C8.82967 3.32927 8.82152 3.44308 8.85603 3.54749C8.89053 3.6519 8.96491 3.73843 9.06293 3.78823L10.9861 4.74998C6.48893 5.33254 3 9.17872 3 13.8325C3 14.3775 3.0525 14.9243 3.15916 15.5043C3.16794 15.5592 3.18762 15.6117 3.21702 15.6589C3.24642 15.706 3.28496 15.7468 3.33036 15.7789C3.37576 15.8109 3.42711 15.8335 3.48138 15.8454C3.53566 15.8573 3.59177 15.8583 3.6464 15.8481C3.70104 15.838 3.75309 15.8171 3.79952 15.7865C3.84594 15.756 3.88578 15.7165 3.9167 15.6703C3.94763 15.6241 3.969 15.5722 3.97958 15.5177C3.99015 15.4631 3.9897 15.407 3.97827 15.3526ZM22.9412 16.5361C22.8844 16.4413 22.7923 16.3728 22.6852 16.3458C22.578 16.3188 22.4645 16.3354 22.3695 16.3919L20.5722 17.4653C21.0721 16.3194 21.3308 15.0828 21.3321 13.8325C21.3321 9.96213 18.8764 6.49181 15.2217 5.19836C15.1175 5.16171 15.003 5.16778 14.9032 5.21525C14.8035 5.26271 14.7265 5.34772 14.6892 5.45171C14.6526 5.55594 14.6589 5.67042 14.7065 5.77007C14.7541 5.86973 14.8393 5.94645 14.9434 5.98343C16.5657 6.55886 17.9705 7.62202 18.9651 9.02721C19.9596 10.4324 20.4954 12.1108 20.4988 13.8325C20.4977 15.0463 20.2298 16.245 19.7139 17.3436L19.2414 15.0009C19.2306 14.9472 19.2094 14.8962 19.1789 14.8507C19.1484 14.8053 19.1092 14.7663 19.0637 14.7359C19.0181 14.7056 18.967 14.6845 18.9133 14.6739C18.8596 14.6633 18.8043 14.6634 18.7506 14.6742C18.6969 14.685 18.6459 14.7063 18.6005 14.7368C18.555 14.7673 18.516 14.8064 18.4856 14.852C18.4553 14.8976 18.4343 14.9487 18.4237 15.0024C18.4131 15.0561 18.4132 15.1114 18.424 15.1651L19.1114 18.5729C19.1148 18.6671 19.1473 18.7563 19.2106 18.8288L19.2139 18.8321C19.2389 18.8604 19.2614 18.8896 19.2947 18.9104C19.3056 18.9171 19.3189 18.9146 19.3297 18.9205C19.3439 18.9288 19.3522 18.943 19.3672 18.9496C19.428 18.9773 19.4946 18.9897 19.5613 18.9858C19.6279 18.9819 19.6926 18.9617 19.7497 18.9271L22.7962 17.1078C22.8433 17.0798 22.8844 17.0428 22.9172 16.9989C22.9499 16.955 22.9737 16.9051 22.9872 16.852C23.0007 16.7989 23.0035 16.7437 22.9956 16.6894C22.9877 16.6352 22.9692 16.5831 22.9412 16.5361ZM17.5749 20.1639C16.0679 21.4544 14.1499 22.1645 12.1661 22.1666C10.8111 22.1677 9.47652 21.8367 8.2791 21.2025C7.08167 20.5683 6.05789 19.6503 5.29735 18.5287L7.89051 19.2355C7.99714 19.2645 8.11095 19.2501 8.2069 19.1952C8.30285 19.1403 8.37308 19.0496 8.40214 18.943C8.4312 18.8363 8.41671 18.7225 8.36186 18.6265C8.30701 18.5305 8.21629 18.4603 8.10966 18.4312L4.55573 17.4637C4.47923 17.4312 4.39475 17.4225 4.31325 17.4386C4.30158 17.4403 4.29158 17.4453 4.27991 17.4478C4.25408 17.4553 4.22659 17.457 4.20159 17.4695C4.18825 17.4762 4.17992 17.4887 4.16826 17.4962C4.15659 17.5028 4.14326 17.5037 4.13242 17.512C4.11659 17.5237 4.10909 17.5412 4.09576 17.5545C4.08322 17.5673 4.07152 17.581 4.06076 17.5953C4.00379 17.6618 3.96937 17.7447 3.96244 17.832L3.83244 21.3182C3.82839 21.4286 3.86833 21.5361 3.94349 21.617C4.01865 21.698 4.12287 21.7458 4.23325 21.7499H4.24908C4.35683 21.7498 4.46036 21.708 4.53801 21.6332C4.61566 21.5585 4.66142 21.4567 4.66572 21.349L4.74655 19.1996C5.59227 20.3771 6.70637 21.336 7.99651 21.9969C9.28665 22.6578 10.7157 23.0016 12.1652 23C14.3426 23 16.4558 22.2183 18.1157 20.7973C18.1594 20.7625 18.1957 20.7192 18.2224 20.67C18.2491 20.6208 18.2656 20.5668 18.271 20.5111C18.2763 20.4555 18.2704 20.3993 18.2536 20.3459C18.2368 20.2926 18.2094 20.2432 18.1731 20.2006C18.1367 20.1581 18.0922 20.1233 18.0422 20.0983C17.9921 20.0734 17.9376 20.0587 17.8818 20.0553C17.8259 20.0519 17.77 20.0597 17.7173 20.0784C17.6645 20.097 17.6161 20.1261 17.5749 20.1639Z" fill="white"/>
<path d="M3.97827 15.3526C3.88341 14.8514 3.83487 14.3426 3.83328 13.8325C3.83328 9.44625 7.24055 5.84925 11.5461 5.53006L9.78788 7.28772C9.71199 7.36631 9.66999 7.47157 9.67094 7.58083C9.67189 7.69009 9.71571 7.7946 9.79296 7.87186C9.8702 7.94912 9.9747 7.99295 10.0839 7.9939C10.1932 7.99485 10.2984 7.95284 10.377 7.87694L12.8035 5.45005C12.888 5.3956 12.9494 5.31192 12.976 5.21503L12.9802 5.19752C12.986 5.17169 12.9977 5.14835 12.9993 5.12168C13.0002 5.10168 12.9927 5.08418 12.9902 5.06418C12.9893 5.04668 12.9968 5.03084 12.9943 5.01417C12.991 4.99917 12.9802 4.98751 12.9752 4.97167C12.9716 4.96104 12.9671 4.95073 12.9618 4.94083C12.9291 4.84161 12.8597 4.75869 12.7677 4.70915L9.43457 3.04233C9.33579 2.99404 9.22194 2.98676 9.11782 3.02207C9.01369 3.05739 8.92775 3.13243 8.87871 3.23085C8.82967 3.32927 8.82152 3.44308 8.85603 3.54749C8.89053 3.6519 8.96491 3.73843 9.06293 3.78823L10.9861 4.74998C6.48893 5.33254 3 9.17872 3 13.8325C3 14.3775 3.0525 14.9243 3.15916 15.5043C3.16794 15.5592 3.18762 15.6117 3.21702 15.6589C3.24642 15.706 3.28496 15.7468 3.33036 15.7789C3.37576 15.8109 3.42711 15.8335 3.48138 15.8454C3.53566 15.8573 3.59177 15.8583 3.6464 15.8481C3.70104 15.838 3.75309 15.8171 3.79952 15.7865C3.84594 15.756 3.88578 15.7165 3.9167 15.6703C3.94763 15.6241 3.969 15.5722 3.97958 15.5177C3.99015 15.4631 3.9897 15.407 3.97827 15.3526ZM22.9412 16.5361C22.8844 16.4413 22.7923 16.3728 22.6852 16.3458C22.578 16.3188 22.4645 16.3354 22.3695 16.3919L20.5722 17.4653C21.0721 16.3194 21.3308 15.0828 21.3321 13.8325C21.3321 9.96213 18.8764 6.49181 15.2217 5.19836C15.1175 5.16171 15.003 5.16778 14.9032 5.21525C14.8035 5.26271 14.7265 5.34772 14.6892 5.45171C14.6526 5.55594 14.6589 5.67042 14.7065 5.77007C14.7541 5.86973 14.8393 5.94645 14.9434 5.98343C16.5657 6.55886 17.9705 7.62202 18.9651 9.02721C19.9596 10.4324 20.4954 12.1108 20.4988 13.8325C20.4977 15.0463 20.2298 16.245 19.7139 17.3436L19.2414 15.0009C19.2306 14.9472 19.2094 14.8962 19.1789 14.8507C19.1484 14.8053 19.1092 14.7663 19.0637 14.7359C19.0181 14.7056 18.967 14.6845 18.9133 14.6739C18.8596 14.6633 18.8043 14.6634 18.7506 14.6742C18.6969 14.685 18.6459 14.7063 18.6005 14.7368C18.555 14.7673 18.516 14.8064 18.4856 14.852C18.4553 14.8976 18.4343 14.9487 18.4237 15.0024C18.4131 15.0561 18.4132 15.1114 18.424 15.1651L19.1114 18.5729C19.1148 18.6671 19.1473 18.7563 19.2106 18.8288L19.2139 18.8321C19.2389 18.8604 19.2614 18.8896 19.2947 18.9104C19.3056 18.9171 19.3189 18.9146 19.3297 18.9205C19.3439 18.9288 19.3522 18.943 19.3672 18.9496C19.428 18.9773 19.4946 18.9897 19.5613 18.9858C19.6279 18.9819 19.6926 18.9617 19.7497 18.9271L22.7962 17.1078C22.8433 17.0798 22.8844 17.0428 22.9172 16.9989C22.9499 16.955 22.9737 16.9051 22.9872 16.852C23.0007 16.7989 23.0035 16.7437 22.9956 16.6894C22.9877 16.6352 22.9692 16.5831 22.9412 16.5361ZM17.5749 20.1639C16.0679 21.4544 14.1499 22.1645 12.1661 22.1666C10.8111 22.1677 9.47652 21.8367 8.2791 21.2025C7.08167 20.5683 6.05789 19.6503 5.29735 18.5287L7.89051 19.2355C7.99714 19.2645 8.11095 19.2501 8.2069 19.1952C8.30285 19.1403 8.37308 19.0496 8.40214 18.943C8.4312 18.8363 8.41671 18.7225 8.36186 18.6265C8.30701 18.5305 8.21629 18.4603 8.10966 18.4312L4.55573 17.4637C4.47923 17.4312 4.39475 17.4225 4.31325 17.4386C4.30158 17.4403 4.29158 17.4453 4.27991 17.4478C4.25408 17.4553 4.22659 17.457 4.20159 17.4695C4.18825 17.4762 4.17992 17.4887 4.16826 17.4962C4.15659 17.5028 4.14326 17.5037 4.13242 17.512C4.11659 17.5237 4.10909 17.5412 4.09576 17.5545C4.08322 17.5673 4.07152 17.581 4.06076 17.5953C4.00379 17.6618 3.96937 17.7447 3.96244 17.832L3.83244 21.3182C3.82839 21.4286 3.86833 21.5361 3.94349 21.617C4.01865 21.698 4.12287 21.7458 4.23325 21.7499H4.24908C4.35683 21.7498 4.46036 21.708 4.53801 21.6332C4.61566 21.5585 4.66142 21.4567 4.66572 21.349L4.74655 19.1996C5.59227 20.3771 6.70637 21.336 7.99651 21.9969C9.28665 22.6578 10.7157 23.0016 12.1652 23C14.3426 23 16.4558 22.2183 18.1157 20.7973C18.1594 20.7625 18.1957 20.7192 18.2224 20.67C18.2491 20.6208 18.2656 20.5668 18.271 20.5111C18.2763 20.4555 18.2704 20.3993 18.2536 20.3459C18.2368 20.2926 18.2094 20.2432 18.1731 20.2006C18.1367 20.1581 18.0922 20.1233 18.0422 20.0983C17.9921 20.0734 17.9376 20.0587 17.8818 20.0553C17.8259 20.0519 17.77 20.0597 17.7173 20.0784C17.6645 20.097 17.6161 20.1261 17.5749 20.1639Z" stroke="white" stroke-width="0.4" mask="url(#path-1-outside-1_53_248)"/>
</g>
<defs>
<clipPath id="clip0_53_248">
<rect width="24" height="24" fill="white"/>
</clipPath>
</defs>
</svg>
