<svg width="24" height="24" viewBox="0 0 24 24" fill="none" xmlns="http://www.w3.org/2000/svg">
<g clip-path="url(#clip0_57_918)">
<path d="M19.2375 4.65006C15.5625 1.05005 9.8625 0.750055 5.85 3.71256L7.4625 5.32506C10.575 3.18756 14.85 3.48756 17.6625 6.26256C19.1625 7.72506 19.95 9.63755 20.0625 11.5501V12.3001L15.75 13.2376L20.4375 17.9626C21.75 16.1251 22.35 13.9876 22.3125 11.8126C22.275 9.18756 21.225 6.60006 19.2375 4.65006ZM5.775 17.1001C4.65 15.7501 4.05 14.1001 3.975 12.4501V11.7001L8.2875 10.7626L3.5625 6.07506C2.25 7.91256 1.65 10.0501 1.6875 12.2251C1.725 14.5501 2.55 16.8751 4.1625 18.7126L5.775 17.1001ZM16.5375 18.6751C13.6875 20.6251 9.9 20.5126 7.125 18.4126L5.5125 20.0251C9.1875 22.9876 14.4 23.0626 18.15 20.2876L16.5375 18.6751Z" fill="#03A2F2"/>
</g>
<defs>
<clipPath id="clip0_57_918">
<rect width="24" height="24" fill="white"/>
</clipPath>
</defs>
</svg>
