<svg width="18" height="18" viewBox="0 0 18 18" fill="none" xmlns="http://www.w3.org/2000/svg">
<g clip-path="url(#clip0_278_5451)">
<path d="M7.3125 9C7.3125 9.93038 8.06962 10.6875 9 10.6875C9.93038 10.6875 10.6875 9.93038 10.6875 9C10.6875 8.06962 9.93038 7.3125 9 7.3125C8.06962 7.3125 7.3125 8.06962 7.3125 9ZM7.3125 14.625C7.3125 15.5554 8.06962 16.3125 9 16.3125C9.93038 16.3125 10.6875 15.5554 10.6875 14.625C10.6875 13.6946 9.93038 12.9375 9 12.9375C8.06962 12.9375 7.3125 13.6946 7.3125 14.625ZM7.3125 3.375C7.3125 4.30538 8.06962 5.0625 9 5.0625C9.93038 5.0625 10.6875 4.30538 10.6875 3.375C10.6875 2.44462 9.93038 1.6875 9 1.6875C8.06962 1.6875 7.3125 2.44462 7.3125 3.375Z" fill="black"/>
</g>
<defs>
<clipPath id="clip0_278_5451">
<rect width="18" height="18" fill="white"/>
</clipPath>
</defs>
</svg>
