<svg width="26" height="27" viewBox="0 0 26 27" fill="none" xmlns="http://www.w3.org/2000/svg">
<g clip-path="url(#clip0_102_3069)">
<path d="M3.40714 15.4343L12.3446 3.2476C12.4236 3.14985 12.5235 3.07101 12.6369 3.01684C12.7503 2.96268 12.8744 2.93457 13 2.93457C13.1257 2.93457 13.2498 2.96268 13.3632 3.01684C13.4766 3.07101 13.5765 3.14985 13.6554 3.2476L22.5929 15.4343C22.6927 15.5809 22.7423 15.756 22.7342 15.9332C22.7262 16.1104 22.6609 16.2802 22.5482 16.4172C22.4355 16.5542 22.2815 16.651 22.1092 16.693C21.9369 16.7351 21.7556 16.7203 21.5924 16.6507L13 12.6135L4.40765 16.6506C4.24442 16.7217 4.06248 16.7376 3.88938 16.696C3.71629 16.6544 3.56146 16.5575 3.44837 16.42C3.33527 16.2825 3.27006 16.1119 3.26262 15.9341C3.25518 15.7562 3.30592 15.5807 3.40714 15.4343ZM22.2653 18.313L13.4054 14.4035C13.3031 14.358 13.1923 14.3343 13.0803 14.334C12.9682 14.3337 12.8574 14.3569 12.7548 14.4019L3.73953 18.3113C3.59409 18.3742 3.47024 18.4782 3.38324 18.6106C3.29625 18.743 3.24993 18.898 3.25 19.0564V23.2721C3.25296 23.4055 3.28824 23.5362 3.35282 23.6529C3.4174 23.7697 3.50934 23.869 3.62075 23.9425C3.73217 24.0159 3.85974 24.0612 3.99251 24.0744C4.12528 24.0877 4.25928 24.0686 4.38303 24.0187L13.1492 20.2505L21.6073 24.0147C21.7312 24.0676 21.8661 24.0891 22.0003 24.0775C22.1345 24.0659 22.2638 24.0214 22.3767 23.948C22.4896 23.8746 22.5827 23.7746 22.6478 23.6567C22.7129 23.5388 22.748 23.4066 22.75 23.272V19.0564C22.7501 18.8988 22.7043 18.7445 22.6182 18.6125C22.5321 18.4805 22.4095 18.3765 22.2653 18.313Z" fill="#002244"/>
</g>
<defs>
<clipPath id="clip0_102_3069">
<rect width="26" height="26" fill="white" transform="translate(0 0.5)"/>
</clipPath>
</defs>
</svg>
