<svg width="24" height="25" viewBox="0 0 24 25" fill="none" xmlns="http://www.w3.org/2000/svg">
<g clip-path="url(#clip0_32_363)">
<path d="M14.85 23.66C14.5423 23.6581 14.2407 23.5736 13.9768 23.4153C13.7129 23.257 13.4965 23.0306 13.35 22.76L9.22499 15.365C9.20442 15.3249 9.1733 15.2912 9.13499 15.2675L1.73999 11.165C1.44678 11.0004 1.20753 10.7544 1.0512 10.4567C0.894859 10.159 0.828126 9.8224 0.859069 9.48758C0.890012 9.15275 1.01731 8.83407 1.22555 8.57007C1.4338 8.30607 1.71408 8.10807 2.03249 8L20.445 1.85C20.7522 1.74634 21.0823 1.73057 21.398 1.80448C21.7137 1.87839 22.0024 2.03903 22.2317 2.2683C22.461 2.49757 22.6216 2.78633 22.6955 3.10203C22.7694 3.41772 22.7537 3.74779 22.65 4.055L16.5 22.4675C16.3946 22.7909 16.196 23.0759 15.9291 23.2868C15.6623 23.4976 15.339 23.6249 15 23.6525L14.85 23.66ZM20.9175 3.2675L2.51249 9.41C2.46664 9.42339 2.42583 9.45016 2.39528 9.48687C2.36473 9.52359 2.34582 9.56858 2.34099 9.6161C2.33616 9.66362 2.34562 9.7115 2.36815 9.75361C2.39069 9.79573 2.42527 9.83016 2.46749 9.8525L9.86249 13.9625C10.1463 14.1199 10.3801 14.3537 10.5375 14.6375L14.6475 22.0325C14.6686 22.0749 14.7022 22.1099 14.7438 22.1326C14.7853 22.1554 14.8329 22.165 14.88 22.16C14.9277 22.1574 14.9735 22.1402 15.011 22.1107C15.0486 22.0811 15.0762 22.0408 15.09 21.995L21.2325 3.575C21.2476 3.53239 21.25 3.48627 21.2394 3.44231C21.2287 3.39835 21.2055 3.35845 21.1725 3.3275C21.141 3.29529 21.1011 3.27258 21.0574 3.26197C21.0136 3.25136 20.9677 3.25328 20.925 3.2675H20.9175Z" fill="#2184E5"/>
<path d="M21.1676 2.26935L9.18741 14.2495L10.2481 15.3102L22.2282 3.33001L21.1676 2.26935Z" fill="#2184E5"/>
</g>
<defs>
<clipPath id="clip0_32_363">
<rect width="24" height="24" fill="white" transform="translate(0 0.5)"/>
</clipPath>
</defs>
</svg>
