<svg width="24" height="24" viewBox="0 0 24 24" fill="none" xmlns="http://www.w3.org/2000/svg">
<g clip-path="url(#clip0_53_254)">
<path d="M21.4722 5.2H16.7222V3.625C16.7209 2.1758 15.5402 1.00135 14.0833 1H10.9167C9.4598 1.00135 8.27913 2.1758 8.27778 3.625V5.2H3.52778C3.23631 5.2 3 5.43507 3 5.725C3 6.01493 3.23631 6.25 3.52778 6.25H5.11111V19.375C5.11246 20.8242 6.29313 21.9987 7.75 22H17.25C18.7069 21.9987 19.8875 20.8242 19.8889 19.375V6.25H21.4722C21.7637 6.25 22 6.01493 22 5.725C22 5.43507 21.7637 5.2 21.4722 5.2ZM9.33333 3.625C9.3343 2.75553 10.0426 2.05096 10.9167 2.05H14.0833C14.9574 2.05096 15.6657 2.75553 15.6667 3.625V5.2H9.33333V3.625ZM18.8333 19.375C18.8324 20.2445 18.1241 20.949 17.25 20.95H7.75C6.87593 20.949 6.16763 20.2445 6.16667 19.375V6.25H18.8333V19.375ZM9.86111 17.8C10.1524 17.7998 10.3891 17.5648 10.3889 17.275V9.925C10.3889 9.63507 10.1526 9.4 9.86111 9.4C9.56965 9.4 9.33333 9.63507 9.33333 9.925V17.2756C9.33353 17.5654 9.56978 17.8002 9.86111 17.8ZM15.1389 17.8C15.4302 17.7998 15.6669 17.5648 15.6667 17.275V9.925C15.6667 9.63507 15.4304 9.4 15.1389 9.4C14.8474 9.4 14.6111 9.63507 14.6111 9.925V17.2756C14.6113 17.5654 14.8476 17.8002 15.1389 17.8Z" fill="white"/>
</g>
<defs>
<clipPath id="clip0_53_254">
<rect width="24" height="24" fill="white"/>
</clipPath>
</defs>
</svg>
