<svg width="40" height="40" viewBox="0 0 40 40" fill="none" xmlns="http://www.w3.org/2000/svg">
<path d="M30.8333 30C30.6123 30 30.4004 29.9122 30.2441 29.7559C30.0878 29.5997 30 29.3877 30 29.1667C30 28.9457 30.0878 28.7337 30.2441 28.5774C30.4004 28.4212 30.6123 28.3334 30.8333 28.3334C34.9683 28.3334 38.3333 24.9684 38.3333 20.8334C38.3333 16.6984 34.9683 13.3334 30.8333 13.3334C30.4483 13.3484 29.9383 13.0467 29.8783 12.63C29.1233 7.33002 24.5183 3.33335 19.1667 3.33335C16.2946 3.33688 13.5411 4.47938 11.5102 6.51026C9.47936 8.54114 8.33686 11.2946 8.33333 14.1667C8.33333 14.6367 8.37333 15.1334 8.46 15.7284C8.47719 15.8479 8.4682 15.9697 8.43367 16.0853C8.39914 16.201 8.33988 16.3078 8.26 16.3984C8.09833 16.5817 7.85333 16.655 7.62 16.68C7.56085 16.6778 7.50186 16.6722 7.44333 16.6634C4.28333 16.6667 1.66667 19.2834 1.66667 22.5C1.66667 25.7167 4.28333 28.3334 7.5 28.3334C7.72101 28.3334 7.93297 28.4212 8.08926 28.5774C8.24554 28.7337 8.33333 28.9457 8.33333 29.1667C8.33333 29.3877 8.24554 29.5997 8.08926 29.7559C7.93297 29.9122 7.72101 30 7.5 30C5.51155 29.9978 3.60518 29.2069 2.19914 27.8009C0.79309 26.3948 0.00220571 24.4885 0 22.5C0.00239336 20.6494 0.687827 18.8649 1.92487 17.4885C3.16191 16.1121 4.86349 15.2408 6.70333 15.0417C6.67912 14.7506 6.66689 14.4587 6.66667 14.1667C6.66667 7.27335 12.2733 1.66669 19.1667 1.66669C25.1067 1.66669 30.2517 5.93502 31.41 11.705C36.2633 12.0534 40 16.015 40 20.8334C40 25.8884 35.8867 30 30.8333 30Z" fill="#002244" fill-opacity="0.7"/>
<path d="M19.1667 38.3333C14.1133 38.3333 10 34.2217 10 29.1667C10 24.1117 14.1133 20 19.1667 20C24.22 20 28.3333 24.1117 28.3333 29.1667C28.3333 34.2217 24.22 38.3333 19.1667 38.3333ZM19.1667 21.6667C15.0317 21.6667 11.6667 25.0317 11.6667 29.1667C11.6667 33.3017 15.0317 36.6667 19.1667 36.6667C23.3017 36.6667 26.6667 33.3017 26.6667 29.1667C26.6667 25.0317 23.3017 21.6667 19.1667 21.6667Z" fill="#002244" fill-opacity="0.7"/>
<path d="M19.1667 35C18.9457 35 18.7337 34.9122 18.5774 34.7559C18.4211 34.5996 18.3333 34.3877 18.3333 34.1666V24.1666C18.3333 23.9456 18.4211 23.7337 18.5774 23.5774C18.7337 23.4211 18.9457 23.3333 19.1667 23.3333C19.3877 23.3333 19.5997 23.4211 19.7559 23.5774C19.9122 23.7337 20 23.9456 20 24.1666V34.1666C20 34.3877 19.9122 34.5996 19.7559 34.7559C19.5997 34.9122 19.3877 35 19.1667 35Z" fill="#002244" fill-opacity="0.7"/>
<path d="M22.5 28.3334C22.2789 28.3334 22.0668 28.2459 21.91 28.09L19.1667 25.345L16.4233 28.0884C16.2662 28.2402 16.0557 28.3242 15.8372 28.3223C15.6187 28.3204 15.4097 28.2327 15.2552 28.0782C15.1006 27.9237 15.013 27.7147 15.0111 27.4962C15.0092 27.2777 15.0932 27.0672 15.245 26.91L18.5783 23.5767C18.7346 23.4205 18.9465 23.3327 19.1675 23.3327C19.3885 23.3327 19.6004 23.4205 19.7567 23.5767L23.09 26.91C23.2068 27.0266 23.2865 27.1752 23.3187 27.337C23.351 27.4989 23.3345 27.6667 23.2713 27.8191C23.2081 27.9716 23.1011 28.1018 22.9638 28.1934C22.8264 28.2849 22.665 28.3337 22.5 28.3334Z" fill="#002244" fill-opacity="0.7"/>
</svg>
