<svg width="24" height="24" viewBox="0 0 24 24" fill="none" xmlns="http://www.w3.org/2000/svg">
<path d="M16.8164 5.72251L15.7595 4.13707C16.7302 4.24933 17.6432 4.66368 18.3681 5.32421C19.1152 6.00506 19.6204 6.9092 19.8095 7.90001H15.7348L16.8164 6.27751C16.8164 6.2775 16.8164 6.27749 16.8164 6.27748C16.8712 6.19532 16.9005 6.09877 16.9005 6.00001C16.9005 5.90125 16.8712 5.8047 16.8164 5.72255C16.8164 5.72253 16.8164 5.72252 16.8164 5.72251ZM5.30413 5.65462C5.88387 5.00979 6.63149 4.5396 7.46276 4.29616L8.59979 6.00003L7.33289 7.90001H4.19053C4.34987 7.06475 4.73462 6.28808 5.30413 5.65462ZM8.8 3.10001C5.64917 3.10001 3.1 5.64918 3.1 8.80001V15.2C3.1 18.3508 5.64917 20.9 8.8 20.9H15.2C18.3508 20.9 20.9 18.3508 20.9 15.2V8.80001C20.9 5.64918 18.3508 3.10001 15.2 3.10001H8.8ZM8.8 4.10001H10.9325L12.1994 6.00001L10.9325 7.90001H8.53444L9.61599 6.27751C9.61599 6.2775 9.616 6.27749 9.61601 6.27748C9.67081 6.19532 9.70006 6.09877 9.70006 6.00001C9.70006 5.90124 9.67081 5.80468 9.61599 5.72251L8.54034 4.10867C8.62659 4.10329 8.71294 4.10001 8.8 4.10001ZM13.216 5.72251L12.1344 4.10001H14.5325L15.7994 6.00001L14.5325 7.90001H12.1344L13.216 6.27751C13.216 6.2775 13.216 6.27749 13.216 6.27748C13.2708 6.19532 13.3001 6.09877 13.3001 6.00001C13.3001 5.90125 13.2708 5.8047 13.216 5.72255C13.216 5.72253 13.216 5.72252 13.216 5.72251ZM4.1 8.90001H19.9V15.2C19.9 17.8112 17.8108 19.9 15.2 19.9H8.8C6.18883 19.9 4.1 17.8112 4.1 15.2V8.90001Z" fill="#062D47" stroke="#062D47" stroke-width="0.2"/>
</svg>
