<svg width="24" height="24" viewBox="0 0 24 24" fill="none" xmlns="http://www.w3.org/2000/svg">
<g clip-path="url(#clip0_102_3079)">
<g clip-path="url(#clip1_102_3079)">
<g clip-path="url(#clip2_102_3079)">
<path d="M21.7725 21.667H2.22751C1.78126 21.667 1.42126 21.307 1.42126 20.8608V3.13828C1.42126 2.69203 1.78126 2.33203 2.22751 2.33203H7.03126C7.25251 2.33203 7.47001 2.40703 7.64626 2.54203L9.72001 4.13953C9.89627 4.27453 10.1138 4.34953 10.335 4.34953H21.7725C22.2188 4.34953 22.5788 4.70953 22.5788 5.15578V20.8608C22.5788 21.3033 22.2188 21.667 21.7725 21.667Z" fill="#D08230"/>
<path d="M2.93628 7.11035H21.06V17.4529H2.93628V7.11035Z" fill="#EFF3F5"/>
<path d="M2.93628 6.375H21.06V7.11H2.93628V6.375Z" fill="#E5E5E5"/>
<path d="M2.93628 5.64355H21.06V6.37855H2.93628V5.64355Z" fill="#C6C1C1"/>
<path d="M23.9925 8.7866L22.68 20.9779C22.6515 21.1687 22.5557 21.3432 22.4099 21.4697C22.2642 21.5962 22.078 21.6665 21.885 21.6679H2.11499C1.92135 21.6673 1.73432 21.5974 1.58779 21.4708C1.44126 21.3442 1.34492 21.1693 1.31624 20.9779L0.00748714 8.7866C-0.0637629 8.2991 0.311237 7.86035 0.802487 7.86035H23.19C23.3063 7.86022 23.4212 7.88513 23.527 7.93338C23.6328 7.98162 23.7269 8.05208 23.8031 8.13995C23.8792 8.22783 23.9355 8.33106 23.9682 8.44265C24.0009 8.55423 24.0092 8.67154 23.9925 8.7866Z" fill="#F1B974"/>
<path d="M23.9925 8.78652L22.68 20.9815C22.6518 21.1732 22.5557 21.3484 22.409 21.4751C22.2624 21.6018 22.0751 21.6715 21.8813 21.6715H2.11877C1.9247 21.6711 1.73718 21.6013 1.59002 21.4748C1.44287 21.3483 1.34578 21.1733 1.31627 20.9815L0.00751928 8.78652C-0.0112307 8.64027 0.00751928 8.49777 0.0562693 8.37402L1.31252 20.2315C1.34159 20.4235 1.43856 20.5987 1.58581 20.7253C1.73306 20.852 1.92083 20.9216 2.11502 20.9215H21.8813C22.2788 20.9215 22.62 20.629 22.68 20.2315L23.9438 8.37402C23.9925 8.49402 24.0113 8.63652 23.9925 8.78652Z" fill="#D08230"/>
<path d="M14.9475 12.6599V10.3461H13.1887V11.0774L12 10.0049L6.96375 14.5424H7.88625V19.1249C7.88625 19.3461 8.06625 19.5261 8.2875 19.5261H10.8075C11.0287 19.5261 11.2087 19.3461 11.2087 19.1249V17.1374H12.795V19.1249C12.795 19.3461 12.975 19.5261 13.1962 19.5261H15.7162C15.9375 19.5261 16.1175 19.3461 16.1175 19.1249V14.5424H17.04L14.9475 12.6599Z" fill="#D08230"/>
</g>
</g>
</g>
<defs>
<clipPath id="clip0_102_3079">
<rect width="24" height="24" fill="white"/>
</clipPath>
<clipPath id="clip1_102_3079">
<rect width="24" height="24" fill="white"/>
</clipPath>
<clipPath id="clip2_102_3079">
<rect width="24" height="24" fill="white"/>
</clipPath>
</defs>
</svg>
