<svg width="20" height="20" viewBox="0 0 20 20" fill="none" xmlns="http://www.w3.org/2000/svg">
<path d="M15.8554 12.7829V5.19308C15.8554 4.31425 15.1043 3.59521 14.1864 3.59521H9.59668" stroke="white" stroke-width="1.5" stroke-linecap="round" stroke-linejoin="round"/>
<path d="M11.6832 1.5979L9.17969 3.59523L11.6832 5.59256" stroke="white" stroke-width="1.5" stroke-linecap="round" stroke-linejoin="round"/>
<path d="M15.8551 17.5766C17.2377 17.5766 18.3586 16.5035 18.3586 15.1798C18.3586 13.856 17.2377 12.783 15.8551 12.783C14.4724 12.783 13.3516 13.856 13.3516 15.1798C13.3516 16.5035 14.4724 17.5766 15.8551 17.5766Z" stroke="white" stroke-width="1.5" stroke-linecap="round" stroke-linejoin="round"/>
<path d="M4.17285 6.39148V13.9813C4.17285 14.8602 4.92389 15.5792 5.84184 15.5792H10.4316" stroke="white" stroke-width="1.5" stroke-linecap="round" stroke-linejoin="round"/>
<path d="M8.34473 17.5766L10.8482 15.5792L8.34473 13.5819" stroke="white" stroke-width="1.5" stroke-linecap="round" stroke-linejoin="round"/>
<path d="M4.17243 6.3915C5.55506 6.3915 6.67591 5.31841 6.67591 3.9947C6.67591 2.67098 5.55506 1.5979 4.17243 1.5979C2.7898 1.5979 1.66895 2.67098 1.66895 3.9947C1.66895 5.31841 2.7898 6.3915 4.17243 6.3915Z" stroke="white" stroke-width="1.5" stroke-linecap="round" stroke-linejoin="round"/>
</svg>
