<svg width="8" height="8" viewBox="0 0 8 8" fill="none" xmlns="http://www.w3.org/2000/svg">
<rect width="1" height="1" transform="matrix(1 0 0 -1 7 8)" fill="white" fill-opacity="0.12"/>
<rect width="1" height="1" transform="matrix(1 0 0 -1 6 7)" fill="white" fill-opacity="0.12"/>
<rect width="1" height="1" transform="matrix(1 0 0 -1 7 7)" fill="white" fill-opacity="0.06"/>
<rect width="1" height="1" transform="matrix(1 0 0 -1 6 8)" fill="white" fill-opacity="0.32"/>
<rect width="1" height="1" transform="matrix(1 0 0 -1 7 2)" fill="white" fill-opacity="0.12"/>
<rect width="1" height="1" transform="matrix(1 0 0 -1 6 1)" fill="white" fill-opacity="0.12"/>
<rect width="1" height="1" transform="matrix(1 0 0 -1 7 1)" fill="white" fill-opacity="0.06"/>
<rect width="1" height="1" transform="matrix(1 0 0 -1 6 2)" fill="white" fill-opacity="0.32"/>
<rect width="1" height="1" transform="matrix(1 0 0 -1 1 2)" fill="white" fill-opacity="0.12"/>
<rect width="1" height="1" transform="matrix(1 0 0 -1 0 1)" fill="white" fill-opacity="0.12"/>
<rect width="1" height="1" transform="matrix(1 0 0 -1 1 1)" fill="white" fill-opacity="0.06"/>
<rect width="1" height="1" transform="matrix(1 0 0 -1 0 2)" fill="white" fill-opacity="0.32"/>
<rect width="1" height="1" transform="matrix(1 0 0 -1 1 8)" fill="#29A0A7" fill-opacity="0.64"/>
<rect width="1" height="1" transform="matrix(1 0 0 -1 0 7)" fill="#29A0A7" fill-opacity="0.64"/>
<rect width="1" height="1" transform="matrix(1 0 0 -1 1 7)" fill="#29A0A7" fill-opacity="0.16"/>
<rect width="1" height="1" transform="matrix(1 0 0 -1 0 8)" fill="#29A0A7"/>
</svg>
