<svg width="8" height="8" viewBox="0 0 8 8" fill="none" xmlns="http://www.w3.org/2000/svg">
<rect x="1" y="8" width="1" height="1" transform="rotate(180 1 8)" fill="white" fill-opacity="0.12"/>
<rect x="2" y="7" width="1" height="1" transform="rotate(180 2 7)" fill="white" fill-opacity="0.12"/>
<rect x="1" y="7" width="1" height="1" transform="rotate(180 1 7)" fill="white" fill-opacity="0.06"/>
<rect x="2" y="8" width="1" height="1" transform="rotate(180 2 8)" fill="white" fill-opacity="0.32"/>
<rect x="1" y="2" width="1" height="1" transform="rotate(180 1 2)" fill="white" fill-opacity="0.12"/>
<rect x="2" y="1" width="1" height="1" transform="rotate(180 2 1)" fill="white" fill-opacity="0.12"/>
<rect x="1" y="1" width="1" height="1" transform="rotate(180 1 1)" fill="white" fill-opacity="0.06"/>
<rect x="2" y="2" width="1" height="1" transform="rotate(180 2 2)" fill="white" fill-opacity="0.32"/>
<rect x="7" y="2" width="1" height="1" transform="rotate(180 7 2)" fill="white" fill-opacity="0.12"/>
<rect x="8" y="1" width="1" height="1" transform="rotate(180 8 1)" fill="white" fill-opacity="0.12"/>
<rect x="7" y="1" width="1" height="1" transform="rotate(180 7 1)" fill="white" fill-opacity="0.06"/>
<rect x="8" y="2" width="1" height="1" transform="rotate(180 8 2)" fill="white" fill-opacity="0.32"/>
<rect x="7" y="8" width="1" height="1" transform="rotate(180 7 8)" fill="#29A0A7" fill-opacity="0.64"/>
<rect x="8" y="7" width="1" height="1" transform="rotate(180 8 7)" fill="#29A0A7" fill-opacity="0.64"/>
<rect x="7" y="7" width="1" height="1" transform="rotate(180 7 7)" fill="#29A0A7" fill-opacity="0.16"/>
<rect x="8" y="8" width="1" height="1" transform="rotate(180 8 8)" fill="#29A0A7"/>
</svg>
