<svg width="50" height="19" viewBox="0 0 50 19" fill="none" xmlns="http://www.w3.org/2000/svg">
<rect x="7" width="1" height="1" fill="white" fill-opacity="0.12"/>
<rect x="6" y="1" width="1" height="1" fill="white" fill-opacity="0.12"/>
<rect x="7" y="1" width="1" height="1" fill="white" fill-opacity="0.06"/>
<rect x="6" width="1" height="1" fill="white" fill-opacity="0.32"/>
<rect x="19" width="1" height="1" fill="white" fill-opacity="0.12"/>
<rect x="18" y="1" width="1" height="1" fill="white" fill-opacity="0.12"/>
<rect x="19" y="1" width="1" height="1" fill="white" fill-opacity="0.06"/>
<rect x="18" width="1" height="1" fill="white" fill-opacity="0.32"/>
<rect x="25" width="1" height="1" fill="white" fill-opacity="0.12"/>
<rect x="24" y="1" width="1" height="1" fill="white" fill-opacity="0.12"/>
<rect x="25" y="1" width="1" height="1" fill="white" fill-opacity="0.06"/>
<rect x="24" width="1" height="1" fill="white" fill-opacity="0.32"/>
<rect x="31" y="6" width="1" height="1" fill="white" fill-opacity="0.12"/>
<rect x="30" y="7" width="1" height="1" fill="white" fill-opacity="0.12"/>
<rect x="31" y="7" width="1" height="1" fill="white" fill-opacity="0.06"/>
<rect x="30" y="6" width="1" height="1" fill="white" fill-opacity="0.32"/>
<rect x="37" y="6" width="1" height="1" fill="white" fill-opacity="0.12"/>
<rect x="36" y="7" width="1" height="1" fill="white" fill-opacity="0.12"/>
<rect x="37" y="7" width="1" height="1" fill="white" fill-opacity="0.06"/>
<rect x="36" y="6" width="1" height="1" fill="white" fill-opacity="0.32"/>
<rect x="31" width="1" height="1" fill="white" fill-opacity="0.12"/>
<rect x="30" y="1" width="1" height="1" fill="white" fill-opacity="0.12"/>
<rect x="31" y="1" width="1" height="1" fill="white" fill-opacity="0.06"/>
<rect x="30" width="1" height="1" fill="white" fill-opacity="0.32"/>
<rect x="7" y="6" width="1" height="1" fill="white" fill-opacity="0.12"/>
<rect x="6" y="7" width="1" height="1" fill="white" fill-opacity="0.12"/>
<rect x="7" y="7" width="1" height="1" fill="white" fill-opacity="0.06"/>
<rect x="6" y="6" width="1" height="1" fill="white" fill-opacity="0.32"/>
<rect x="1" width="1" height="1" fill="white" fill-opacity="0.12"/>
<rect y="1" width="1" height="1" fill="white" fill-opacity="0.12"/>
<rect x="1" y="1" width="1" height="1" fill="white" fill-opacity="0.06"/>
<rect width="1" height="1" fill="white" fill-opacity="0.32"/>
<rect x="13" y="6" width="1" height="1" fill="white" fill-opacity="0.12"/>
<rect x="12" y="7" width="1" height="1" fill="white" fill-opacity="0.12"/>
<rect x="13" y="7" width="1" height="1" fill="white" fill-opacity="0.06"/>
<rect x="12" y="6" width="1" height="1" fill="white" fill-opacity="0.32"/>
<rect x="25" y="6" width="1" height="1" fill="white" fill-opacity="0.12"/>
<rect x="24" y="7" width="1" height="1" fill="white" fill-opacity="0.12"/>
<rect x="25" y="7" width="1" height="1" fill="white" fill-opacity="0.06"/>
<rect x="24" y="6" width="1" height="1" fill="white" fill-opacity="0.32"/>
<rect x="43" y="6" width="1" height="1" fill="white" fill-opacity="0.12"/>
<rect x="42" y="7" width="1" height="1" fill="white" fill-opacity="0.12"/>
<rect x="43" y="7" width="1" height="1" fill="white" fill-opacity="0.06"/>
<rect x="42" y="6" width="1" height="1" fill="white" fill-opacity="0.32"/>
<rect x="1" y="17" width="1" height="1" fill="white" fill-opacity="0.12"/>
<rect y="18" width="1" height="1" fill="white" fill-opacity="0.12"/>
<rect x="1" y="18" width="1" height="1" fill="white" fill-opacity="0.06"/>
<rect y="17" width="1" height="1" fill="white" fill-opacity="0.32"/>
<rect x="19" y="11" width="1" height="1" fill="white" fill-opacity="0.12"/>
<rect x="18" y="12" width="1" height="1" fill="white" fill-opacity="0.12"/>
<rect x="19" y="12" width="1" height="1" fill="white" fill-opacity="0.06"/>
<rect x="18" y="11" width="1" height="1" fill="white" fill-opacity="0.32"/>
<rect x="31" y="11" width="1" height="1" fill="white" fill-opacity="0.12"/>
<rect x="30" y="12" width="1" height="1" fill="white" fill-opacity="0.12"/>
<rect x="31" y="12" width="1" height="1" fill="white" fill-opacity="0.06"/>
<rect x="30" y="11" width="1" height="1" fill="white" fill-opacity="0.32"/>
<rect x="37" y="11" width="1" height="1" fill="white" fill-opacity="0.12"/>
<rect x="36" y="12" width="1" height="1" fill="white" fill-opacity="0.12"/>
<rect x="37" y="12" width="1" height="1" fill="white" fill-opacity="0.06"/>
<rect x="36" y="11" width="1" height="1" fill="white" fill-opacity="0.32"/>
<rect x="43" y="11" width="1" height="1" fill="white" fill-opacity="0.12"/>
<rect x="42" y="12" width="1" height="1" fill="white" fill-opacity="0.12"/>
<rect x="43" y="12" width="1" height="1" fill="white" fill-opacity="0.06"/>
<rect x="42" y="11" width="1" height="1" fill="white" fill-opacity="0.32"/>
<rect x="7" y="17" width="1" height="1" fill="white" fill-opacity="0.12"/>
<rect x="6" y="18" width="1" height="1" fill="white" fill-opacity="0.12"/>
<rect x="7" y="18" width="1" height="1" fill="white" fill-opacity="0.06"/>
<rect x="6" y="17" width="1" height="1" fill="white" fill-opacity="0.32"/>
<rect x="7" y="11" width="1" height="1" fill="white" fill-opacity="0.12"/>
<rect x="6" y="12" width="1" height="1" fill="white" fill-opacity="0.12"/>
<rect x="7" y="12" width="1" height="1" fill="white" fill-opacity="0.06"/>
<rect x="6" y="11" width="1" height="1" fill="white" fill-opacity="0.32"/>
<rect x="19" y="17" width="1" height="1" fill="white" fill-opacity="0.12"/>
<rect x="18" y="18" width="1" height="1" fill="white" fill-opacity="0.12"/>
<rect x="19" y="18" width="1" height="1" fill="white" fill-opacity="0.06"/>
<rect x="18" y="17" width="1" height="1" fill="white" fill-opacity="0.32"/>
<rect x="13" y="17" width="1" height="1" fill="white" fill-opacity="0.12"/>
<rect x="12" y="18" width="1" height="1" fill="white" fill-opacity="0.12"/>
<rect x="13" y="18" width="1" height="1" fill="white" fill-opacity="0.06"/>
<rect x="12" y="17" width="1" height="1" fill="white" fill-opacity="0.32"/>
<rect x="25" y="11" width="1" height="1" fill="white" fill-opacity="0.12"/>
<rect x="24" y="12" width="1" height="1" fill="white" fill-opacity="0.12"/>
<rect x="25" y="12" width="1" height="1" fill="white" fill-opacity="0.06"/>
<rect x="24" y="11" width="1" height="1" fill="white" fill-opacity="0.32"/>
<rect x="31" y="17" width="1" height="1" fill="white" fill-opacity="0.12"/>
<rect x="30" y="18" width="1" height="1" fill="white" fill-opacity="0.12"/>
<rect x="31" y="18" width="1" height="1" fill="white" fill-opacity="0.06"/>
<rect x="30" y="17" width="1" height="1" fill="white" fill-opacity="0.32"/>
<rect x="37" y="17" width="1" height="1" fill="white" fill-opacity="0.12"/>
<rect x="36" y="18" width="1" height="1" fill="white" fill-opacity="0.12"/>
<rect x="37" y="18" width="1" height="1" fill="white" fill-opacity="0.06"/>
<rect x="36" y="17" width="1" height="1" fill="white" fill-opacity="0.32"/>
<rect x="43" y="17" width="1" height="1" fill="white" fill-opacity="0.12"/>
<rect x="42" y="18" width="1" height="1" fill="white" fill-opacity="0.12"/>
<rect x="43" y="18" width="1" height="1" fill="white" fill-opacity="0.06"/>
<rect x="42" y="17" width="1" height="1" fill="white" fill-opacity="0.32"/>
<rect x="49" y="11" width="1" height="1" fill="white" fill-opacity="0.12"/>
<rect x="48" y="12" width="1" height="1" fill="white" fill-opacity="0.12"/>
<rect x="49" y="12" width="1" height="1" fill="white" fill-opacity="0.06"/>
<rect x="48" y="11" width="1" height="1" fill="white" fill-opacity="0.32"/>
<rect x="13" width="1" height="1" fill="#29A0A7" fill-opacity="0.64"/>
<rect x="12" y="1" width="1" height="1" fill="#29A0A7" fill-opacity="0.64"/>
<rect x="13" y="1" width="1" height="1" fill="#29A0A7" fill-opacity="0.16"/>
<rect x="12" width="1" height="1" fill="#29A0A7"/>
<rect x="13" y="11" width="1" height="1" fill="#29A0A7" fill-opacity="0.64"/>
<rect x="12" y="12" width="1" height="1" fill="#29A0A7" fill-opacity="0.64"/>
<rect x="13" y="12" width="1" height="1" fill="#29A0A7" fill-opacity="0.16"/>
<rect x="12" y="11" width="1" height="1" fill="#29A0A7"/>
<rect x="19" y="6" width="1" height="1" fill="#29A0A7" fill-opacity="0.64"/>
<rect x="18" y="7" width="1" height="1" fill="#29A0A7" fill-opacity="0.64"/>
<rect x="19" y="7" width="1" height="1" fill="#29A0A7" fill-opacity="0.16"/>
<rect x="18" y="6" width="1" height="1" fill="#29A0A7"/>
<rect x="25" y="17" width="1" height="1" fill="#29A0A7" fill-opacity="0.64"/>
<rect x="24" y="18" width="1" height="1" fill="#29A0A7" fill-opacity="0.64"/>
<rect x="25" y="18" width="1" height="1" fill="#29A0A7" fill-opacity="0.16"/>
<rect x="24" y="17" width="1" height="1" fill="#29A0A7"/>
<rect x="43" width="1" height="1" fill="#29A0A7" fill-opacity="0.64"/>
<rect x="42" y="1" width="1" height="1" fill="#29A0A7" fill-opacity="0.64"/>
<rect x="43" y="1" width="1" height="1" fill="#29A0A7" fill-opacity="0.16"/>
<rect x="42" width="1" height="1" fill="#29A0A7"/>
<rect x="37" width="1" height="1" fill="#29A0A7" fill-opacity="0.64"/>
<rect x="36" y="1" width="1" height="1" fill="#29A0A7" fill-opacity="0.64"/>
<rect x="37" y="1" width="1" height="1" fill="#29A0A7" fill-opacity="0.16"/>
<rect x="36" width="1" height="1" fill="#29A0A7"/>
<rect x="49" y="6" width="1" height="1" fill="#29A0A7" fill-opacity="0.64"/>
<rect x="48" y="7" width="1" height="1" fill="#29A0A7" fill-opacity="0.64"/>
<rect x="49" y="7" width="1" height="1" fill="#29A0A7" fill-opacity="0.16"/>
<rect x="48" y="6" width="1" height="1" fill="#29A0A7"/>
</svg>
