<svg width="50" height="19" viewBox="0 0 50 19" fill="none" xmlns="http://www.w3.org/2000/svg">
<g id="Group 47">
<g id="Group 4">
<rect id="Rectangle 148" x="7" width="1" height="1" fill="white" fill-opacity="0.12"/>
<rect id="Rectangle 150" x="6" y="1" width="1" height="1" fill="white" fill-opacity="0.12"/>
<rect id="Rectangle 151" x="7" y="1" width="1" height="1" fill="white" fill-opacity="0.06"/>
<rect id="Rectangle 149" x="6" width="1" height="1" fill="white" fill-opacity="0.32"/>
</g>
<g id="Group 9">
<rect id="Rectangle 148_2" x="13" width="1" height="1" fill="white" fill-opacity="0.12"/>
<rect id="Rectangle 150_2" x="12" y="1" width="1" height="1" fill="white" fill-opacity="0.12"/>
<rect id="Rectangle 151_2" x="13" y="1" width="1" height="1" fill="white" fill-opacity="0.06"/>
<rect id="Rectangle 149_2" x="12" width="1" height="1" fill="white" fill-opacity="0.32"/>
</g>
<g id="Group 13">
<rect id="Rectangle 148_3" x="19" width="1" height="1" fill="white" fill-opacity="0.12"/>
<rect id="Rectangle 150_3" x="18" y="1" width="1" height="1" fill="white" fill-opacity="0.12"/>
<rect id="Rectangle 151_3" x="19" y="1" width="1" height="1" fill="white" fill-opacity="0.06"/>
<rect id="Rectangle 149_3" x="18" width="1" height="1" fill="white" fill-opacity="0.32"/>
</g>
<g id="Group 17">
<rect id="Rectangle 148_4" x="25" width="1" height="1" fill="white" fill-opacity="0.12"/>
<rect id="Rectangle 150_4" x="24" y="1" width="1" height="1" fill="white" fill-opacity="0.12"/>
<rect id="Rectangle 151_4" x="25" y="1" width="1" height="1" fill="white" fill-opacity="0.06"/>
<rect id="Rectangle 149_4" x="24" width="1" height="1" fill="white" fill-opacity="0.32"/>
</g>
<g id="Group 21">
<rect id="Rectangle 148_5" x="31" width="1" height="1" fill="white" fill-opacity="0.12"/>
<rect id="Rectangle 150_5" x="30" y="1" width="1" height="1" fill="white" fill-opacity="0.12"/>
<rect id="Rectangle 151_5" x="31" y="1" width="1" height="1" fill="white" fill-opacity="0.06"/>
<rect id="Rectangle 149_5" x="30" width="1" height="1" fill="white" fill-opacity="0.32"/>
</g>
<g id="Group 25">
<rect id="Rectangle 148_6" x="37" width="1" height="1" fill="white" fill-opacity="0.12"/>
<rect id="Rectangle 150_6" x="36" y="1" width="1" height="1" fill="white" fill-opacity="0.12"/>
<rect id="Rectangle 151_6" x="37" y="1" width="1" height="1" fill="white" fill-opacity="0.06"/>
<rect id="Rectangle 149_6" x="36" width="1" height="1" fill="white" fill-opacity="0.32"/>
</g>
<g id="Group 29">
<rect id="Rectangle 148_7" x="43" width="1" height="1" fill="white" fill-opacity="0.12"/>
<rect id="Rectangle 150_7" x="42" y="1" width="1" height="1" fill="white" fill-opacity="0.12"/>
<rect id="Rectangle 151_7" x="43" y="1" width="1" height="1" fill="white" fill-opacity="0.06"/>
<rect id="Rectangle 149_7" x="42" width="1" height="1" fill="white" fill-opacity="0.32"/>
</g>
<g id="Group 6">
<rect id="Rectangle 148_8" x="7" y="6" width="1" height="1" fill="white" fill-opacity="0.12"/>
<rect id="Rectangle 150_8" x="6" y="7" width="1" height="1" fill="white" fill-opacity="0.12"/>
<rect id="Rectangle 151_8" x="7" y="7" width="1" height="1" fill="white" fill-opacity="0.06"/>
<rect id="Rectangle 149_8" x="6" y="6" width="1" height="1" fill="white" fill-opacity="0.32"/>
</g>
<g id="Group 37">
<rect id="Rectangle 148_9" x="1" y="6" width="1" height="1" fill="white" fill-opacity="0.12"/>
<rect id="Rectangle 150_9" y="7" width="1" height="1" fill="white" fill-opacity="0.12"/>
<rect id="Rectangle 151_9" x="1" y="7" width="1" height="1" fill="white" fill-opacity="0.06"/>
<rect id="Rectangle 149_9" y="6" width="1" height="1" fill="white" fill-opacity="0.32"/>
</g>
<g id="Group 10">
<rect id="Rectangle 148_10" x="13" y="6" width="1" height="1" fill="white" fill-opacity="0.12"/>
<rect id="Rectangle 150_10" x="12" y="7" width="1" height="1" fill="white" fill-opacity="0.12"/>
<rect id="Rectangle 151_10" x="13" y="7" width="1" height="1" fill="white" fill-opacity="0.06"/>
<rect id="Rectangle 149_10" x="12" y="6" width="1" height="1" fill="white" fill-opacity="0.32"/>
</g>
<g id="Group 14">
<rect id="Rectangle 148_11" x="19" y="6" width="1" height="1" fill="white" fill-opacity="0.12"/>
<rect id="Rectangle 150_11" x="18" y="7" width="1" height="1" fill="white" fill-opacity="0.12"/>
<rect id="Rectangle 151_11" x="19" y="7" width="1" height="1" fill="white" fill-opacity="0.06"/>
<rect id="Rectangle 149_11" x="18" y="6" width="1" height="1" fill="white" fill-opacity="0.32"/>
</g>
<g id="Group 30">
<rect id="Rectangle 148_12" x="43" y="6" width="1" height="1" fill="white" fill-opacity="0.12"/>
<rect id="Rectangle 150_12" x="42" y="7" width="1" height="1" fill="white" fill-opacity="0.12"/>
<rect id="Rectangle 151_12" x="43" y="7" width="1" height="1" fill="white" fill-opacity="0.06"/>
<rect id="Rectangle 149_12" x="42" y="6" width="1" height="1" fill="white" fill-opacity="0.32"/>
</g>
<g id="Group 38">
<rect id="Rectangle 148_13" x="1" y="11" width="1" height="1" fill="white" fill-opacity="0.12"/>
<rect id="Rectangle 150_13" y="12" width="1" height="1" fill="white" fill-opacity="0.12"/>
<rect id="Rectangle 151_13" x="1" y="12" width="1" height="1" fill="white" fill-opacity="0.06"/>
<rect id="Rectangle 149_13" y="11" width="1" height="1" fill="white" fill-opacity="0.32"/>
</g>
<g id="Group 15">
<rect id="Rectangle 148_14" x="19" y="11" width="1" height="1" fill="white" fill-opacity="0.12"/>
<rect id="Rectangle 150_14" x="18" y="12" width="1" height="1" fill="white" fill-opacity="0.12"/>
<rect id="Rectangle 151_14" x="19" y="12" width="1" height="1" fill="white" fill-opacity="0.06"/>
<rect id="Rectangle 149_14" x="18" y="11" width="1" height="1" fill="white" fill-opacity="0.32"/>
</g>
<g id="Group 23">
<rect id="Rectangle 148_15" x="31" y="11" width="1" height="1" fill="white" fill-opacity="0.12"/>
<rect id="Rectangle 150_15" x="30" y="12" width="1" height="1" fill="white" fill-opacity="0.12"/>
<rect id="Rectangle 151_15" x="31" y="12" width="1" height="1" fill="white" fill-opacity="0.06"/>
<rect id="Rectangle 149_15" x="30" y="11" width="1" height="1" fill="white" fill-opacity="0.32"/>
</g>
<g id="Group 27">
<rect id="Rectangle 148_16" x="37" y="11" width="1" height="1" fill="white" fill-opacity="0.12"/>
<rect id="Rectangle 150_16" x="36" y="12" width="1" height="1" fill="white" fill-opacity="0.12"/>
<rect id="Rectangle 151_16" x="37" y="12" width="1" height="1" fill="white" fill-opacity="0.06"/>
<rect id="Rectangle 149_16" x="36" y="11" width="1" height="1" fill="white" fill-opacity="0.32"/>
</g>
<g id="Group 31">
<rect id="Rectangle 148_17" x="43" y="11" width="1" height="1" fill="white" fill-opacity="0.12"/>
<rect id="Rectangle 150_17" x="42" y="12" width="1" height="1" fill="white" fill-opacity="0.12"/>
<rect id="Rectangle 151_17" x="43" y="12" width="1" height="1" fill="white" fill-opacity="0.06"/>
<rect id="Rectangle 149_17" x="42" y="11" width="1" height="1" fill="white" fill-opacity="0.32"/>
</g>
<g id="Group 8">
<rect id="Rectangle 148_18" x="7" y="17" width="1" height="1" fill="white" fill-opacity="0.12"/>
<rect id="Rectangle 150_18" x="6" y="18" width="1" height="1" fill="white" fill-opacity="0.12"/>
<rect id="Rectangle 151_18" x="7" y="18" width="1" height="1" fill="white" fill-opacity="0.06"/>
<rect id="Rectangle 149_18" x="6" y="17" width="1" height="1" fill="white" fill-opacity="0.32"/>
</g>
<g id="Group 16">
<rect id="Rectangle 148_19" x="19" y="17" width="1" height="1" fill="white" fill-opacity="0.12"/>
<rect id="Rectangle 150_19" x="18" y="18" width="1" height="1" fill="white" fill-opacity="0.12"/>
<rect id="Rectangle 151_19" x="19" y="18" width="1" height="1" fill="white" fill-opacity="0.06"/>
<rect id="Rectangle 149_19" x="18" y="17" width="1" height="1" fill="white" fill-opacity="0.32"/>
</g>
<g id="Group 20">
<rect id="Rectangle 148_20" x="25" y="17" width="1" height="1" fill="white" fill-opacity="0.12"/>
<rect id="Rectangle 150_20" x="24" y="18" width="1" height="1" fill="white" fill-opacity="0.12"/>
<rect id="Rectangle 151_20" x="25" y="18" width="1" height="1" fill="white" fill-opacity="0.06"/>
<rect id="Rectangle 149_20" x="24" y="17" width="1" height="1" fill="white" fill-opacity="0.32"/>
</g>
<g id="Group 24">
<rect id="Rectangle 148_21" x="31" y="17" width="1" height="1" fill="white" fill-opacity="0.12"/>
<rect id="Rectangle 150_21" x="30" y="18" width="1" height="1" fill="white" fill-opacity="0.12"/>
<rect id="Rectangle 151_21" x="31" y="18" width="1" height="1" fill="white" fill-opacity="0.06"/>
<rect id="Rectangle 149_21" x="30" y="17" width="1" height="1" fill="white" fill-opacity="0.32"/>
</g>
<g id="Group 28">
<rect id="Rectangle 148_22" x="37" y="17" width="1" height="1" fill="white" fill-opacity="0.12"/>
<rect id="Rectangle 150_22" x="36" y="18" width="1" height="1" fill="white" fill-opacity="0.12"/>
<rect id="Rectangle 151_22" x="37" y="18" width="1" height="1" fill="white" fill-opacity="0.06"/>
<rect id="Rectangle 149_22" x="36" y="17" width="1" height="1" fill="white" fill-opacity="0.32"/>
</g>
<g id="Group 32">
<rect id="Rectangle 148_23" x="43" y="17" width="1" height="1" fill="white" fill-opacity="0.12"/>
<rect id="Rectangle 150_23" x="42" y="18" width="1" height="1" fill="white" fill-opacity="0.12"/>
<rect id="Rectangle 151_23" x="43" y="18" width="1" height="1" fill="white" fill-opacity="0.06"/>
<rect id="Rectangle 149_23" x="42" y="17" width="1" height="1" fill="white" fill-opacity="0.32"/>
</g>
<g id="Group 36">
<rect id="Rectangle 148_24" x="49" y="17" width="1" height="1" fill="white" fill-opacity="0.12"/>
<rect id="Rectangle 150_24" x="48" y="18" width="1" height="1" fill="white" fill-opacity="0.12"/>
<rect id="Rectangle 151_24" x="49" y="18" width="1" height="1" fill="white" fill-opacity="0.06"/>
<rect id="Rectangle 149_24" x="48" y="17" width="1" height="1" fill="white" fill-opacity="0.32"/>
</g>
<g id="Group 5">
<rect id="Rectangle 148_25" x="13" width="1" height="1" fill="#A72956" fill-opacity="0.64"/>
<rect id="Rectangle 150_25" x="12" y="1" width="1" height="1" fill="#A72956" fill-opacity="0.64"/>
<rect id="Rectangle 151_25" x="13" y="1" width="1" height="1" fill="#A72956" fill-opacity="0.16"/>
<rect id="Rectangle 149_25" x="12" width="1" height="1" fill="#A72956"/>
</g>
<g id="Group 39">
<rect id="Rectangle 148_26" x="13" y="11" width="1" height="1" fill="#A72956" fill-opacity="0.64"/>
<rect id="Rectangle 150_26" x="12" y="12" width="1" height="1" fill="#A72956" fill-opacity="0.64"/>
<rect id="Rectangle 151_26" x="13" y="12" width="1" height="1" fill="#A72956" fill-opacity="0.16"/>
<rect id="Rectangle 149_26" x="12" y="11" width="1" height="1" fill="#A72956"/>
</g>
<g id="Group 42">
<rect id="Rectangle 148_27" x="25" y="6" width="1" height="1" fill="#A72956" fill-opacity="0.64"/>
<rect id="Rectangle 150_27" x="24" y="7" width="1" height="1" fill="#A72956" fill-opacity="0.64"/>
<rect id="Rectangle 151_27" x="25" y="7" width="1" height="1" fill="#A72956" fill-opacity="0.16"/>
<rect id="Rectangle 149_27" x="24" y="6" width="1" height="1" fill="#A72956"/>
</g>
<g id="Group 46">
<rect id="Rectangle 148_28" x="25" y="11" width="1" height="1" fill="#A72956" fill-opacity="0.64"/>
<rect id="Rectangle 150_28" x="24" y="12" width="1" height="1" fill="#A72956" fill-opacity="0.64"/>
<rect id="Rectangle 151_28" x="25" y="12" width="1" height="1" fill="#A72956" fill-opacity="0.16"/>
<rect id="Rectangle 149_28" x="24" y="11" width="1" height="1" fill="#A72956"/>
</g>
<g id="Group 43">
<rect id="Rectangle 148_29" x="31" y="6" width="1" height="1" fill="#A72956" fill-opacity="0.64"/>
<rect id="Rectangle 150_29" x="30" y="7" width="1" height="1" fill="#A72956" fill-opacity="0.64"/>
<rect id="Rectangle 151_29" x="31" y="7" width="1" height="1" fill="#A72956" fill-opacity="0.16"/>
<rect id="Rectangle 149_29" x="30" y="6" width="1" height="1" fill="#A72956"/>
</g>
<g id="Group 44">
<rect id="Rectangle 148_30" x="37" y="6" width="1" height="1" fill="#A72956" fill-opacity="0.64"/>
<rect id="Rectangle 150_30" x="36" y="7" width="1" height="1" fill="#A72956" fill-opacity="0.64"/>
<rect id="Rectangle 151_30" x="37" y="7" width="1" height="1" fill="#A72956" fill-opacity="0.16"/>
<rect id="Rectangle 149_30" x="36" y="6" width="1" height="1" fill="#A72956"/>
</g>
<g id="Group 45">
<rect id="Rectangle 148_31" x="49" width="1" height="1" fill="#A72956" fill-opacity="0.64"/>
<rect id="Rectangle 150_31" x="48" y="1" width="1" height="1" fill="#A72956" fill-opacity="0.64"/>
<rect id="Rectangle 151_31" x="49" y="1" width="1" height="1" fill="#A72956" fill-opacity="0.16"/>
<rect id="Rectangle 149_31" x="48" width="1" height="1" fill="#A72956"/>
</g>
<g id="Group 40">
<rect id="Rectangle 148_32" x="13" y="17" width="1" height="1" fill="#A72956" fill-opacity="0.64"/>
<rect id="Rectangle 150_32" x="12" y="18" width="1" height="1" fill="#A72956" fill-opacity="0.64"/>
<rect id="Rectangle 151_32" x="13" y="18" width="1" height="1" fill="#A72956" fill-opacity="0.16"/>
<rect id="Rectangle 149_32" x="12" y="17" width="1" height="1" fill="#A72956"/>
</g>
<g id="Group 41">
<rect id="Rectangle 148_33" x="7" y="11" width="1" height="1" fill="#A72956" fill-opacity="0.64"/>
<rect id="Rectangle 150_33" x="6" y="12" width="1" height="1" fill="#A72956" fill-opacity="0.64"/>
<rect id="Rectangle 151_33" x="7" y="12" width="1" height="1" fill="#A72956" fill-opacity="0.16"/>
<rect id="Rectangle 149_33" x="6" y="11" width="1" height="1" fill="#A72956"/>
</g>
</g>
</svg>
