<svg width="8" height="8" viewBox="0 0 8 8" fill="none" xmlns="http://www.w3.org/2000/svg">
<rect width="1" height="1" transform="matrix(-1 0 0 1 1 0)" fill="white" fill-opacity="0.12"/>
<rect width="1" height="1" transform="matrix(-1 0 0 1 2 1)" fill="white" fill-opacity="0.12"/>
<rect width="1" height="1" transform="matrix(-1 0 0 1 1 1)" fill="white" fill-opacity="0.06"/>
<rect width="1" height="1" transform="matrix(-1 0 0 1 2 0)" fill="white" fill-opacity="0.32"/>
<rect width="1" height="1" transform="matrix(-1 0 0 1 1 6)" fill="white" fill-opacity="0.12"/>
<rect width="1" height="1" transform="matrix(-1 0 0 1 2 7)" fill="white" fill-opacity="0.12"/>
<rect width="1" height="1" transform="matrix(-1 0 0 1 1 7)" fill="white" fill-opacity="0.06"/>
<rect width="1" height="1" transform="matrix(-1 0 0 1 2 6)" fill="white" fill-opacity="0.32"/>
<rect width="1" height="1" transform="matrix(-1 0 0 1 7 6)" fill="white" fill-opacity="0.12"/>
<rect width="1" height="1" transform="matrix(-1 0 0 1 8 7)" fill="white" fill-opacity="0.12"/>
<rect width="1" height="1" transform="matrix(-1 0 0 1 7 7)" fill="white" fill-opacity="0.06"/>
<rect width="1" height="1" transform="matrix(-1 0 0 1 8 6)" fill="white" fill-opacity="0.32"/>
<rect width="1" height="1" transform="matrix(-1 0 0 1 7 0)" fill="#29A0A7" fill-opacity="0.64"/>
<rect width="1" height="1" transform="matrix(-1 0 0 1 8 1)" fill="#29A0A7" fill-opacity="0.64"/>
<rect width="1" height="1" transform="matrix(-1 0 0 1 7 1)" fill="#29A0A7" fill-opacity="0.16"/>
<rect width="1" height="1" transform="matrix(-1 0 0 1 8 0)" fill="#29A0A7"/>
</svg>
