<svg width="355" height="368" viewBox="0 0 355 368" fill="none" xmlns="http://www.w3.org/2000/svg">
<path d="M345.638 127.464L345.64 127.468C368.373 197.458 343.797 282.303 283.449 328.085L283.445 328.088C253.403 351.108 214.383 364.458 175.442 366.671C136.498 368.885 97.7191 359.959 68.1212 338.537C8.89317 295.671 -14.1743 202.76 11.1981 128.792C36.5604 54.8542 110.04 0.483841 181.567 1.0037C253.089 1.52352 323.159 57.1908 345.638 127.464Z" stroke="#36e899" stroke-width="2"/>
<path d="M335.159 130.867C356.474 196.657 333.444 276.388 276.849 319.433C220.499 362.723 130.584 369.571 74.9692 329.216C19.3541 288.861 -2.20589 201.548 21.5591 132.089C45.3241 62.6303 114.169 11.5143 181.299 12.0035C248.429 12.4926 314.089 64.8315 335.159 130.867Z" fill="#0000"/>
</svg>
