<svg width="12" height="12" viewBox="0 0 12 12" fill="none" xmlns="http://www.w3.org/2000/svg">
<g clip-path="url(#clip0_197_338)">
<path d="M6 12C9.31371 12 12 9.31371 12 6C12 2.68629 9.31371 0 6 0C2.68629 0 0 2.68629 0 6C0 9.31371 2.68629 12 6 12Z" fill="#7543E3"/>
<path fill-rule="evenodd" clip-rule="evenodd" d="M4.46094 4.71C4.44744 4.82438 4.43469 4.94475 4.42644 5.06512C4.22544 5.20988 4.03756 5.35763 3.86319 5.50537C3.77319 5.58187 3.68619 5.65837 3.60444 5.73787C2.95906 5.05687 2.68381 4.4445 2.86119 4.13025C3.01719 3.85125 3.54069 3.77213 4.27569 3.9225C4.30494 3.79125 4.33381 3.66563 4.36831 3.54525C3.47731 3.35925 2.79781 3.48225 2.54131 3.939C2.47235 4.06153 2.43678 4.20003 2.43819 4.34062V4.3545C2.44344 5.00213 3.05956 5.86875 4.08819 6.68625C4.19356 6.771 4.30756 6.85575 4.42381 6.9405C4.45189 7.2994 4.50224 7.65622 4.57456 8.00887C3.68356 8.247 3.03556 8.187 2.85856 7.87238C2.70256 7.59375 2.89831 7.08262 3.38994 6.50025L3.13344 6.22125C2.52519 6.93225 2.28219 7.60725 2.53869 8.06625C2.71869 8.38912 3.10719 8.5425 3.63069 8.5425C4.15681 8.5425 4.81756 8.3865 5.54206 8.08313C5.69089 8.02047 5.83807 7.95394 5.98344 7.88363L5.99994 7.875C6.23019 7.98413 6.45744 8.08275 6.68244 8.1675C6.77994 8.20575 6.87781 8.23875 6.97306 8.27137C6.72706 9.18975 6.35169 9.74175 5.99994 9.74175C5.68794 9.74175 5.35756 9.31012 5.11681 8.57175C4.99845 8.61469 4.87848 8.6531 4.75719 8.68688C5.04781 9.57825 5.48919 10.125 5.99994 10.125C6.74281 10.125 7.33494 8.9715 7.53894 7.29C7.55206 7.17563 7.56256 7.05525 7.57306 6.9375C7.78194 6.7875 7.97806 6.6315 8.16031 6.47287C8.2395 6.40463 8.31702 6.33449 8.39281 6.2625C9.04081 6.9405 9.31531 7.5555 9.13831 7.86975C8.99319 8.12962 8.51431 8.217 7.85881 8.10488L7.72644 8.08013C7.69913 8.20495 7.66837 8.329 7.63419 8.45212C7.68969 8.463 7.74519 8.47387 7.79806 8.48212C7.9892 8.5165 8.18287 8.53481 8.37706 8.53687C8.90844 8.53687 9.28644 8.37562 9.46081 8.064C9.69369 7.6485 9.52456 7.044 8.98231 6.36637C8.70219 6.01387 8.33731 5.65838 7.91431 5.31938C7.80556 5.232 7.69231 5.14687 7.57869 5.0625C7.55889 4.80777 7.52711 4.55411 7.48344 4.30237C7.46469 4.19587 7.44631 4.092 7.42531 3.99112C7.57569 3.94987 7.72156 3.91688 7.86144 3.8925C8.51731 3.78 8.99581 3.86775 9.14131 4.12762C9.29431 4.401 9.10681 4.90125 8.63094 5.47238C8.72319 5.56538 8.80794 5.65838 8.88744 5.74838C8.92064 5.71055 8.95229 5.67139 8.98231 5.631C9.52194 4.953 9.69369 4.34888 9.46119 3.93338C9.22869 3.51788 8.63881 3.3675 7.80069 3.51225C7.41181 3.57788 6.98619 3.7065 6.54444 3.88162C6.52606 3.8895 6.51031 3.89513 6.49194 3.90338C6.34381 3.96338 6.19569 4.029 6.04756 4.10025C6.03444 4.1055 6.02131 4.11375 6.00781 4.119C5.78382 4.01023 5.55537 3.9109 5.32306 3.82125C5.22556 3.783 5.12731 3.75 5.03244 3.71738C5.27769 2.80163 5.65344 2.25 6.00481 2.25C6.31681 2.25 6.64981 2.68462 6.89056 3.42262C7.01244 3.38137 7.13131 3.3435 7.25056 3.30788C6.95094 2.42438 6.50994 1.875 5.99656 1.875C5.25631 1.875 4.66156 3.0285 4.46056 4.71H4.46094ZM6.82456 4.5705C6.81931 4.56487 6.81144 4.56225 6.80581 4.55925C6.68206 4.48575 6.55456 4.4145 6.43344 4.34625C6.4434 4.3405 6.45396 4.33585 6.46494 4.33238C6.61569 4.26675 6.76644 4.20675 6.91194 4.155C6.96219 4.1355 7.01244 4.11937 7.06006 4.10287C7.08106 4.20412 7.09944 4.30538 7.11819 4.41188C7.13919 4.53488 7.15494 4.6605 7.17069 4.78912C7.05631 4.71468 6.94092 4.6418 6.82456 4.5705ZM4.87606 4.42537C4.89444 4.31325 4.91281 4.20675 4.93681 4.10287C5.15 4.17482 5.35995 4.25602 5.56606 4.34625C5.44156 4.4145 5.31481 4.48575 5.19069 4.55925C5.18468 4.562 5.17922 4.56581 5.17456 4.5705C5.05569 4.64175 4.93944 4.71525 4.82581 4.78912C4.84156 4.66313 4.85731 4.54312 4.87606 4.42537ZM5.37556 7.11525C5.28693 7.06377 5.19965 7.01 5.11381 6.954C5.0001 6.88204 4.88819 6.80726 4.77819 6.72975C4.76195 6.48772 4.75394 6.2452 4.75419 6.00262C4.75419 5.87138 4.75681 5.74312 4.76206 5.61713C4.76731 5.49975 4.77294 5.38762 4.78081 5.27588C4.96831 5.14463 5.16706 5.016 5.37556 4.89C5.45506 4.84125 5.53681 4.79437 5.61631 4.75087C5.74306 4.67962 5.87019 4.614 5.99694 4.54837C6.20826 4.65444 6.41553 4.76839 6.61831 4.89C6.70831 4.94475 6.79531 4.99688 6.88006 5.05125C6.99631 5.12513 7.10731 5.199 7.21606 5.2755C7.24044 5.64586 7.2457 6.01723 7.23181 6.38812C7.22656 6.50287 7.22131 6.61762 7.21306 6.72975C7.02556 6.861 6.82719 6.98963 6.61831 7.11525C6.56281 7.14825 6.50994 7.18087 6.45444 7.21088C6.31419 7.293 6.17431 7.36687 6.03669 7.43775C6.02356 7.44337 6.01044 7.45162 5.99694 7.45687C5.78584 7.35051 5.57859 7.23668 5.37556 7.11563V7.11525ZM4.06944 6.17775C4.00081 6.12038 3.93744 6.06 3.87369 6.00262C3.96106 5.9235 4.05106 5.84138 4.14631 5.76225C4.22544 5.69662 4.30756 5.62837 4.39456 5.56275C4.38931 5.67187 4.38706 5.784 4.38706 5.89612V6.00262C4.38706 6.153 4.38931 6.29812 4.39456 6.44287C4.28296 6.35853 4.17451 6.2701 4.06944 6.17775ZM7.60981 6.11212V6.00262C7.60981 5.85262 7.60719 5.7075 7.60194 5.56275C7.7824 5.70017 7.9554 5.84713 8.12019 6.003C8.05156 6.06562 7.97994 6.13125 7.90606 6.19425C7.89556 6.20213 7.88469 6.213 7.87419 6.22125C7.78719 6.29513 7.69419 6.37162 7.59931 6.4455C7.60456 6.33637 7.60981 6.22425 7.60981 6.11175V6.11212ZM4.87869 7.59338C4.8581 7.46818 4.84047 7.34252 4.82581 7.2165C4.93944 7.29037 5.05306 7.36125 5.17194 7.4325C5.17719 7.43775 5.18544 7.44075 5.19069 7.44338C5.31481 7.51725 5.43894 7.58812 5.56569 7.65637C5.56569 7.65637 5.56344 7.65637 5.56344 7.65937C5.43483 7.7147 5.30518 7.76759 5.17456 7.818C5.15619 7.82587 5.13781 7.8315 5.11906 7.83975C5.05831 7.8615 4.99756 7.88362 4.93681 7.90275C4.91527 7.80017 4.89589 7.69715 4.87869 7.59375V7.59338ZM6.76381 7.79587C6.65105 7.75226 6.53904 7.70676 6.42781 7.65937L6.47544 7.63462C6.58419 7.57462 6.69219 7.51163 6.80356 7.44863C6.92585 7.37319 7.04748 7.29668 7.16844 7.21912C7.15231 7.34212 7.13656 7.46512 7.11819 7.57987C7.09944 7.69237 7.07844 7.79887 7.05706 7.90537C6.96219 7.86975 6.86431 7.83413 6.76381 7.79587ZM5.52106 6.00262C5.52106 5.73225 5.73519 5.51062 5.99731 5.51062C6.25869 5.51062 6.47281 5.73187 6.47281 6.00262C6.47281 6.27338 6.25906 6.49463 5.99694 6.49463C5.73519 6.49463 5.52106 6.27338 5.52106 6.00262Z" fill="white"/>
</g>
<defs>
<clipPath id="clip0_197_338">
<rect width="12" height="12" fill="white"/>
</clipPath>
</defs>
</svg>
