<svg width="14" height="14" viewBox="0 0 14 14" fill="none" xmlns="http://www.w3.org/2000/svg">
<g id="Frame 985611" filter="url(#filter0_d_1091_16130)">
<rect x="1" y="1" width="12" height="12" rx="6" fill="#53AAB0"/>
<rect x="1" y="1" width="12" height="12" rx="6" fill="url(#paint0_diamond_1091_16130)"/>
<rect x="1.25" y="1.25" width="11.5" height="11.5" rx="5.75" stroke="white" stroke-opacity="0.2" stroke-width="0.5"/>
<g id="Group">
<path id="Vector" d="M6.92429 3.6815C6.64163 3.69221 6.39662 3.77177 6.20854 3.91409C6.1687 3.94418 6.14124 3.96855 6.10013 4.01008C6.06048 4.05032 6.03774 4.07653 6.00827 4.11622C5.84475 4.33644 5.76417 4.6329 5.76981 4.99304C5.77181 5.11617 5.78127 5.21216 5.80128 5.31608C5.8422 5.52781 5.92151 5.70429 6.04047 5.84882C6.06393 5.87725 6.11432 5.92967 6.14251 5.95496C6.30258 6.09821 6.50957 6.18995 6.7524 6.22503C6.83753 6.23739 6.88955 6.2409 6.98796 6.24072C7.07218 6.24072 7.11146 6.2385 7.17804 6.23075C7.5009 6.19235 7.76083 6.05944 7.93709 5.84292C8.07715 5.67069 8.16227 5.44881 8.19192 5.17948C8.20029 5.10288 8.20193 5.0678 8.20211 4.96351C8.20211 4.86161 8.20102 4.83337 8.19374 4.76138C8.16809 4.50442 8.09261 4.29048 7.9671 4.11973C7.92072 4.0566 7.85451 3.98701 7.79557 3.93883C7.62495 3.79946 7.40777 3.71491 7.15476 3.68907C7.08418 3.68169 6.99414 3.67892 6.92429 3.6815ZM6.9001 3.96116C6.82225 3.98885 6.76859 4.05328 6.74986 4.14207C6.74367 4.17123 6.74185 4.19486 6.74295 4.23529C6.74386 4.27442 6.74604 4.29029 6.75404 4.32131C6.77932 4.4173 6.84754 4.47895 6.9494 4.49778C6.97995 4.50332 7.03616 4.50332 7.0669 4.49759C7.09109 4.49316 7.12511 4.48227 7.14275 4.47341C7.22169 4.43335 7.26789 4.35379 7.27335 4.24821C7.27917 4.1332 7.24661 4.04718 7.17731 3.99439C7.16076 3.98165 7.13638 3.96855 7.11619 3.96135C7.10019 3.95544 7.10201 3.95544 7.13293 3.96116C7.18659 3.97113 7.22697 3.98461 7.27444 4.00823C7.36921 4.05512 7.43451 4.12158 7.48089 4.21775C7.51927 4.29731 7.53764 4.38038 7.54037 4.48818C7.54274 4.58749 7.52982 4.67813 7.50181 4.75529C7.49199 4.78187 7.46852 4.82949 7.45361 4.85275C7.39668 4.94099 7.31591 5.00301 7.21205 5.03809C7.17295 5.05138 7.13038 5.06042 7.07982 5.06633C7.04926 5.06984 6.96049 5.06928 6.92793 5.06541C6.72585 5.04067 6.58524 4.9373 6.51812 4.76415C6.46228 4.62035 6.46064 4.41268 6.51412 4.26537C6.51776 4.25541 6.52722 4.23399 6.53504 4.21775C6.60143 4.07949 6.7193 3.99273 6.88337 3.96098C6.9112 3.95563 6.91556 3.95581 6.9001 3.96116Z" fill="#EEEFF3"/>
<path id="Vector_2" d="M5.62184 4.29589C5.51744 4.33355 5.42631 4.38653 5.34536 4.45667C5.31917 4.47938 5.27097 4.52903 5.2506 4.55451C5.23295 4.57666 5.2144 4.6014 5.2144 4.60306C5.2144 4.60361 5.22113 4.60933 5.2295 4.61579C5.24969 4.6313 5.28443 4.66582 5.30225 4.68834C5.34409 4.74095 5.37647 4.80814 5.39448 4.88032C5.40848 4.93588 5.41412 4.98147 5.41576 5.04922C5.4194 5.20963 5.38465 5.33793 5.31026 5.43871C5.29498 5.45957 5.25915 5.49723 5.23896 5.51384C5.19657 5.54873 5.14382 5.57771 5.08835 5.59654C5.07325 5.60171 5.06998 5.60356 5.07034 5.60614C5.07179 5.61426 5.0878 5.67001 5.09453 5.69032C5.12636 5.78667 5.17566 5.88211 5.23077 5.95465C5.2797 6.01889 5.34518 6.08239 5.40957 6.1278C5.60165 6.26348 5.86722 6.32384 6.14934 6.29615C6.19609 6.29154 6.2854 6.27659 6.3065 6.27013C6.30886 6.2692 6.30122 6.26533 6.28194 6.25757C6.12824 6.19481 5.99928 6.10971 5.89014 5.99896C5.69933 5.80532 5.5811 5.54172 5.54108 5.22089C5.5238 5.08226 5.52089 4.92462 5.53272 4.78193C5.54818 4.59844 5.58437 4.44431 5.64858 4.28906C5.64986 4.28592 5.64913 4.28611 5.62184 4.29589Z" fill="#EEEFF3"/>
<path id="Vector_3" d="M8.35011 4.28818C8.35011 4.28874 8.35338 4.29686 8.35738 4.30646C8.45251 4.53332 8.49198 4.8403 8.46561 5.14913C8.44287 5.41347 8.36829 5.64458 8.24552 5.83047C8.11873 6.02226 7.94302 6.16495 7.72184 6.25577C7.69983 6.26482 7.69037 6.26962 7.69274 6.27017C7.70329 6.27349 7.76331 6.28494 7.79041 6.289C7.93338 6.30986 8.08363 6.3069 8.22005 6.28051C8.47197 6.23178 8.66842 6.10699 8.7972 5.91353C8.84122 5.84763 8.87978 5.7666 8.90634 5.68445C8.91616 5.65418 8.92853 5.60969 8.92853 5.60508C8.92853 5.60323 8.92471 5.6012 8.91707 5.59899C8.8987 5.59345 8.8656 5.5796 8.84122 5.56705C8.70043 5.49469 8.61313 5.36012 8.58948 5.17867C8.5802 5.10852 8.58057 5.02213 8.59039 4.95254C8.6104 4.81059 8.66951 4.69724 8.76337 4.62119C8.77374 4.61288 8.78283 4.60532 8.78374 4.60439C8.7872 4.60126 8.74227 4.54514 8.70571 4.50693C8.61622 4.41334 8.50126 4.33969 8.37593 4.29557C8.35011 4.28652 8.35011 4.28652 8.35011 4.28818Z" fill="#EEEFF3"/>
<path id="Vector_4" d="M4.92889 4.75009C4.82194 4.76356 4.74973 4.8182 4.7179 4.90958C4.70498 4.94668 4.69971 4.9812 4.69971 5.02864C4.69971 5.1453 4.74009 5.22708 4.82049 5.27378C4.87742 5.30701 4.96327 5.3179 5.03785 5.30165C5.14808 5.27747 5.21411 5.20142 5.23011 5.08051C5.23339 5.05541 5.23339 5.00187 5.22993 4.97677C5.21774 4.88318 5.17409 4.81543 5.10242 4.7787C5.08096 4.76762 5.05149 4.75802 5.0253 4.75341C5.00129 4.74898 4.95036 4.74732 4.92889 4.75009Z" fill="#EEEFF3"/>
<path id="Vector_5" d="M8.99572 4.74997C8.90423 4.76068 8.83547 4.8048 8.79909 4.87605C8.78309 4.90743 8.77417 4.93734 8.76926 4.97481C8.76562 5.00139 8.76581 5.05825 8.76926 5.08409C8.78272 5.18192 8.83074 5.25078 8.90969 5.2853C8.97499 5.31372 9.0643 5.31705 9.13487 5.29323C9.19344 5.27367 9.24019 5.23379 9.26729 5.18063C9.2993 5.1175 9.30858 5.02613 9.29112 4.94564C9.28039 4.89636 9.26074 4.85704 9.23091 4.82547C9.19544 4.78781 9.14851 4.76345 9.09213 4.75348C9.06848 4.74923 9.01773 4.74739 8.99572 4.74997Z" fill="#EEEFF3"/>
<path id="Vector_6" d="M3.14824 6.58864C3.08913 6.5975 3.03765 6.6455 3.01364 6.71472C3.00309 6.745 3 6.76493 3 6.80093C3 6.82732 3.00073 6.83674 3.004 6.85206C3.02037 6.92885 3.06239 6.98423 3.1195 7.00417C3.14242 7.0121 3.15352 7.01321 3.21718 7.01339C3.27211 7.01339 3.27557 7.01358 3.26648 7.01616C3.2381 7.02392 3.22009 7.03462 3.19699 7.05751C3.16516 7.08926 3.14479 7.12987 3.13606 7.17934C3.12951 7.21626 3.13278 7.26795 3.14388 7.30395C3.15934 7.35434 3.19481 7.39957 3.23519 7.42098C3.26284 7.43556 3.26793 7.4363 3.34269 7.43778C3.37925 7.43833 3.40726 7.43907 3.40508 7.43925C3.39671 7.43999 3.37088 7.45088 3.35761 7.45919C3.33269 7.47506 3.30722 7.50442 3.29194 7.53524C3.28467 7.55001 3.27466 7.57991 3.27084 7.5993C3.26375 7.63419 3.26557 7.67812 3.27539 7.71744C3.28539 7.75768 3.30104 7.78703 3.32632 7.81269C3.34906 7.83613 3.37198 7.84998 3.40126 7.8581C3.41199 7.86124 3.46765 7.86142 4.31383 7.86179L5.21475 7.86234L5.21366 7.86843C5.20911 7.89096 5.19929 7.94781 5.19547 7.97421C5.1871 8.03051 5.18365 8.0761 5.17492 8.23209C5.16364 8.43938 5.16328 8.51968 5.17364 8.6321C5.21275 9.06054 5.39828 9.46259 5.69841 9.7692C5.99526 10.0725 6.37797 10.2606 6.79415 10.3082C6.88091 10.318 7.00114 10.3219 7.08609 10.3176C7.25634 10.309 7.41404 10.2794 7.57175 10.2266C7.80785 10.1478 8.01703 10.0263 8.20856 9.85688C8.25076 9.81959 8.33734 9.7321 8.37372 9.68982C8.65075 9.36845 8.8059 8.98449 8.83046 8.56103C8.83446 8.49052 8.83282 8.40468 8.82409 8.23781C8.81955 8.1516 8.81463 8.06743 8.81318 8.05063C8.80827 7.99581 8.79917 7.93286 8.78935 7.88634C8.78699 7.87471 8.78499 7.86456 8.78499 7.86382C8.78499 7.86308 9.19043 7.86216 9.68591 7.86197L10.5867 7.86142L10.6003 7.85754C10.6389 7.84628 10.6647 7.82672 10.6909 7.78924C10.7746 7.66963 10.726 7.47691 10.603 7.44165L10.5903 7.43796H10.6487C10.7147 7.43778 10.7305 7.43593 10.7531 7.42615C10.7722 7.41784 10.7862 7.40787 10.8022 7.39163C10.8318 7.36172 10.8511 7.32444 10.8613 7.27718C10.866 7.2554 10.867 7.20611 10.8631 7.18267C10.852 7.11418 10.8169 7.05825 10.7675 7.03001C10.7573 7.02429 10.7338 7.01543 10.7269 7.01469C10.7247 7.0145 10.7529 7.01376 10.7895 7.01321C10.863 7.01173 10.8651 7.01155 10.8922 6.99863C10.9088 6.99069 10.9319 6.97352 10.9444 6.96005C10.985 6.91611 11.007 6.83729 10.9979 6.76862C10.9863 6.67928 10.9357 6.61135 10.8659 6.59104C10.8544 6.58791 10.7431 6.58772 7.00605 6.58754C4.88971 6.58735 3.1537 6.58791 3.14824 6.58864ZM7.10246 7.30653C7.1794 7.31484 7.2387 7.32573 7.30327 7.34363C7.41495 7.37483 7.53155 7.42892 7.62995 7.49555C7.84077 7.63806 7.99993 7.84905 8.07942 8.09124C8.16618 8.35576 8.15454 8.64705 8.04722 8.90419C7.89989 9.25695 7.5843 9.5176 7.21705 9.58996C7.14593 9.60399 7.09918 9.60879 7.02133 9.6099C6.9373 9.61119 6.88891 9.60787 6.81506 9.5955C6.50384 9.54363 6.22554 9.36032 6.05038 9.09211C5.97507 8.97674 5.91832 8.8418 5.8894 8.70963C5.8703 8.62232 5.86284 8.55106 5.86303 8.45489C5.86303 8.38474 5.86539 8.35133 5.87394 8.29079C5.91978 7.96609 6.10513 7.67129 6.3767 7.49094C6.54113 7.38166 6.72102 7.31982 6.91874 7.30487C6.94657 7.30284 7.07827 7.30395 7.10246 7.30653Z" fill="#EEEFF3"/>
</g>
</g>
<defs>
<filter id="filter0_d_1091_16130" x="0.75" y="0.75" width="12.5" height="12.5" filterUnits="userSpaceOnUse" color-interpolation-filters="sRGB">
<feFlood flood-opacity="0" result="BackgroundImageFix"/>
<feColorMatrix in="SourceAlpha" type="matrix" values="0 0 0 0 0 0 0 0 0 0 0 0 0 0 0 0 0 0 127 0" result="hardAlpha"/>
<feMorphology radius="0.25" operator="dilate" in="SourceAlpha" result="effect1_dropShadow_1091_16130"/>
<feOffset/>
<feComposite in2="hardAlpha" operator="out"/>
<feColorMatrix type="matrix" values="0 0 0 0 0.32549 0 0 0 0 0.666667 0 0 0 0 0.690196 0 0 0 1 0"/>
<feBlend mode="normal" in2="BackgroundImageFix" result="effect1_dropShadow_1091_16130"/>
<feBlend mode="normal" in="SourceGraphic" in2="effect1_dropShadow_1091_16130" result="shape"/>
</filter>
<radialGradient id="paint0_diamond_1091_16130" cx="0" cy="0" r="1" gradientUnits="userSpaceOnUse" gradientTransform="translate(5.71429 3.8125) rotate(58.1273) scale(12.8058 64.5922)">
<stop stop-color="#54ABB1" stop-opacity="0"/>
<stop offset="0.51518" stop-color="#85EEB3" stop-opacity="0.71"/>
<stop offset="1" stop-color="#54ABB1" stop-opacity="0"/>
</radialGradient>
</defs>
</svg>
