<svg width="24" height="24" viewBox="0 0 24 24" fill="none" xmlns="http://www.w3.org/2000/svg">
<g clip-path="url(#clip0_278_7560)">
<path d="M19.8721 3.51069C19.8721 3.18399 19.8077 2.86049 19.6827 2.55867C19.5577 2.25684 19.3744 1.9826 19.1434 1.75159C18.9124 1.52059 18.6381 1.33736 18.3363 1.21235C18.0345 1.08735 17.7109 1.02302 17.3842 1.02305H6.49525C6.49525 1.02305 6.49524 1.02305 6.49524 1.02305C6.16855 1.02302 5.84505 1.08735 5.54321 1.21235C5.24138 1.33736 4.96712 1.52059 4.7361 1.75159C4.50508 1.9826 4.32183 2.25684 4.1968 2.55867C4.07177 2.86049 4.00742 3.18399 4.00742 3.51069V4.47767C4.00742 4.73708 4.21769 4.94735 4.47709 4.94735H19.4024C19.6618 4.94735 19.8721 4.73708 19.8721 4.47767V3.51069ZM18.9329 3.51069V4.008H4.94676V3.51069C4.94676 3.10001 5.10991 2.70615 5.4003 2.41575C5.6907 2.12535 6.08456 1.96221 6.49524 1.96221H17.3843C17.5876 1.96219 17.789 2.00223 17.9769 2.08003C18.1648 2.15784 18.3355 2.2719 18.4793 2.41569C18.6231 2.55948 18.7372 2.73019 18.815 2.91807C18.8929 3.10595 18.9329 3.30733 18.9329 3.51069Z" fill="#002244" stroke="#002244" stroke-width="0.2"/>
<path d="M22.4714 4.39436L22.4713 4.39431C22.2238 4.14694 21.8882 4.00796 21.5383 4.00791L2.34239 4.00791L2.34236 4.00791C1.99246 4.00801 1.65691 4.14707 1.40951 4.39451C1.16211 4.64195 1.0231 4.97751 1.02305 5.32742V5.32743L1.02305 6.61282C1.02305 6.61283 1.02305 6.61283 1.02305 6.61284C1.02305 6.61285 1.02305 6.61286 1.02305 6.61287C1.02298 6.78614 1.05705 6.95772 1.12332 7.11782C1.1896 7.27793 1.28678 7.42341 1.40932 7.54594C1.53185 7.66847 1.67733 7.76565 1.83744 7.83193C1.99753 7.8982 2.16912 7.93228 2.34239 7.93221C2.34241 7.93221 2.34242 7.93221 2.34243 7.93221H21.5383C21.8882 7.93221 22.2238 7.79321 22.4712 7.5458C22.7187 7.29838 22.8577 6.96281 22.8578 6.61288V5.32743C22.8577 4.97748 22.7188 4.64188 22.4714 4.39436ZM21.9184 5.3274V5.32743V6.61287V6.6129C21.9185 6.66283 21.9086 6.71227 21.8896 6.7584C21.8705 6.80453 21.8425 6.84644 21.8071 6.88175C21.7718 6.91705 21.7299 6.94505 21.6838 6.96415C21.6377 6.98324 21.5882 6.99306 21.5383 6.99304H21.5383H2.34239H2.34235C2.29243 6.99306 2.24299 6.98324 2.19686 6.96415C2.15073 6.94505 2.10881 6.91705 2.07351 6.88175C2.03821 6.84644 2.01021 6.80453 1.99111 6.7584C1.97201 6.71227 1.96219 6.66283 1.96221 6.6129V6.61287V5.32743V5.3274C1.96219 5.27747 1.97201 5.22803 1.99111 5.1819C2.01021 5.13577 2.03821 5.09386 2.07351 5.05855C2.10881 5.02325 2.15073 4.99525 2.19686 4.97615C2.24299 4.95705 2.29243 4.94723 2.34235 4.94725H2.34239H21.5383H21.5383C21.5882 4.94723 21.6377 4.95705 21.6838 4.97615C21.7299 4.99525 21.7718 5.02325 21.8071 5.05855C21.8425 5.09386 21.8705 5.13577 21.8896 5.1819C21.9086 5.22803 21.9185 5.27747 21.9184 5.3274Z" fill="#002244" stroke="#002244" stroke-width="0.2"/>
<path d="M19.8721 7.46293C19.8721 7.20353 19.6618 6.99326 19.4024 6.99326H4.47709C4.21769 6.99326 4.00742 7.20353 4.00742 7.46293V18.8943C4.00742 21.0834 5.78198 22.8579 7.97106 22.8579H15.9084C18.0975 22.8579 19.8721 21.0834 19.8721 18.8943V7.46293ZM4.94676 18.8943V7.93243H18.9329V18.8943C18.9329 20.5645 17.5787 21.9186 15.9084 21.9186H7.97106C6.3008 21.9186 4.94676 20.5645 4.94676 18.8943Z" fill="#002244" stroke="#002244" stroke-width="0.2"/>
<path d="M8.48594 19.4031V19.4031C8.48608 20.3193 8.85012 21.198 9.49798 21.8459C10.1459 22.4937 11.0245 22.8578 11.9407 22.8579H11.9407C13.8486 22.8579 15.3954 21.3112 15.3954 19.4031V7.46293C15.3954 7.20353 15.1851 6.99326 14.9257 6.99326H8.95561C8.6962 6.99326 8.48594 7.20353 8.48594 7.46293V19.4031ZM9.42528 7.93243H14.4562V19.4031C14.4562 20.7924 13.33 21.9186 11.9407 21.9186H11.9407C11.6104 21.9186 11.2832 21.8536 10.978 21.7272C10.6728 21.6008 10.3955 21.4156 10.1619 21.182C9.92829 20.9484 9.74301 20.671 9.61662 20.3658C9.49023 20.0606 9.42521 19.7335 9.42528 19.4031V19.4031V7.93243Z" fill="#002244" stroke="#002244" stroke-width="0.2"/>
</g>
<defs>
<clipPath id="clip0_278_7560">
<rect width="24" height="24" fill="white"/>
</clipPath>
</defs>
</svg>
