<svg width="24" height="24" viewBox="0 0 24 24" fill="none" xmlns="http://www.w3.org/2000/svg">
<g clip-path="url(#clip0_278_7570)">
<path d="M12.164 16.71C11.9735 16.7073 11.7912 16.6322 11.654 16.5L7.36403 12.5513C7.21783 12.416 7.13135 12.2282 7.12361 12.0292C7.11588 11.8302 7.18752 11.6362 7.32278 11.49C7.45804 11.3438 7.64584 11.2573 7.84486 11.2496C8.04389 11.2419 8.23783 11.3135 8.38403 11.4488L12.674 15.4088C12.785 15.5112 12.8625 15.6447 12.8964 15.7919C12.9303 15.9391 12.9189 16.0931 12.8638 16.2337C12.8087 16.3743 12.7124 16.495 12.5875 16.58C12.4627 16.665 12.3151 16.7103 12.164 16.71Z" fill="#7AB0E5"/>
<path d="M7.8745 12.75C7.72347 12.7503 7.57586 12.705 7.45101 12.62C7.32616 12.535 7.22988 12.4143 7.17476 12.2737C7.11965 12.1331 7.10828 11.9791 7.14213 11.8319C7.17598 11.6847 7.25349 11.5512 7.3645 11.4488L11.6545 7.50003C11.8007 7.36477 11.9946 7.29312 12.1937 7.30086C12.3927 7.3086 12.5805 7.39508 12.7157 7.54128C12.851 7.68748 12.9227 7.88142 12.9149 8.08045C12.9072 8.27947 12.8207 8.46727 12.6745 8.60253L8.3845 12.5513C8.24561 12.6794 8.06347 12.7504 7.8745 12.75Z" fill="#7AB0E5"/>
<path d="M16.125 12.75H8.25C8.05109 12.75 7.86032 12.671 7.71967 12.5303C7.57902 12.3897 7.5 12.1989 7.5 12C7.5 11.8011 7.57902 11.6103 7.71967 11.4697C7.86032 11.329 8.05109 11.25 8.25 11.25H16.125C16.3239 11.25 16.5147 11.329 16.6553 11.4697C16.796 11.6103 16.875 11.8011 16.875 12C16.875 12.1989 16.796 12.3897 16.6553 12.5303C16.5147 12.671 16.3239 12.75 16.125 12.75Z" fill="#7AB0E5"/>
</g>
<defs>
<clipPath id="clip0_278_7570">
<rect width="24" height="24" fill="white"/>
</clipPath>
</defs>
</svg>
