<svg width="41" height="40" viewBox="0 0 41 40" fill="none" xmlns="http://www.w3.org/2000/svg">
<path d="M31.8125 8.51562H9.1875C7.62557 8.51562 6.35938 9.78182 6.35938 11.3437V32.1719C6.35938 33.7338 7.62557 35 9.1875 35H31.8125C33.3744 35 34.6406 33.7338 34.6406 32.1719V11.3437C34.6406 9.78182 33.3744 8.51562 31.8125 8.51562Z" stroke="#002244" stroke-opacity="0.7" stroke-width="1.66" stroke-linecap="round" stroke-linejoin="round"/>
<path d="M11.9844 11.3281V5.70312M29.0156 11.3281V5.70312M9.19297 8.51562H31.807C32.1791 8.51562 32.5476 8.58892 32.8914 8.73132C33.2352 8.87372 33.5476 9.08244 33.8107 9.34557C34.0738 9.60869 34.2825 9.92106 34.4249 10.2648C34.5673 10.6086 34.6406 10.9771 34.6406 11.3492V17.0312H6.35938V11.3492C6.35938 10.5977 6.65791 9.87697 7.18932 9.34557C7.72072 8.81416 8.44145 8.51562 9.19297 8.51562Z" stroke="#49637C" stroke-width="1.66" stroke-linecap="round" stroke-linejoin="round"/>
</svg>
