<svg width="24" height="24" viewBox="0 0 24 24" fill="none" xmlns="http://www.w3.org/2000/svg">
<path d="M12.189 20.3252H9.4988C9.40058 20.3271 9.30701 20.3674 9.2382 20.4375C9.1694 20.5076 9.13086 20.602 9.13086 20.7002C9.13086 20.7984 9.16941 20.8928 9.23822 20.9629C9.30703 21.033 9.4006 21.0733 9.49882 21.0752H12.189C12.2872 21.0733 12.3807 21.0329 12.4495 20.9628C12.5182 20.8927 12.5568 20.7984 12.5568 20.7002C12.5568 20.602 12.5182 20.5077 12.4495 20.4376C12.3807 20.3675 12.2872 20.3271 12.189 20.3252Z" fill="white"/>
<path d="M20.5469 3.80017C20.3219 3.58528 20.0228 3.46537 19.7117 3.46537C19.4006 3.46537 19.1015 3.58528 18.8766 3.80017L18.5792 4.09755V3.04395C18.5793 2.63514 18.4172 2.243 18.1285 1.95355C17.8398 1.6641 17.4481 1.50099 17.0393 1.5H4.64893C4.24018 1.50106 3.84854 1.66421 3.55992 1.95365C3.27131 2.24309 3.10927 2.6352 3.10938 3.04395V20.9561C3.10927 21.3648 3.2713 21.7569 3.55992 22.0463C3.84854 22.3358 4.24018 22.4989 4.64893 22.5H17.0393C17.4481 22.499 17.8398 22.3359 18.1285 22.0465C18.4172 21.757 18.5793 21.3649 18.5792 20.9561V7.43812L20.5469 5.47047C20.768 5.24876 20.8921 4.94843 20.8921 4.63532C20.8921 4.32221 20.768 4.02188 20.5469 3.80017ZM12.6689 12.2878L11.7542 12.5927L12.0592 11.6781C12.9721 10.7649 17.5246 6.21272 18.3324 5.40474L18.9422 6.01456C18.9422 6.01456 13.6479 11.3089 12.6689 12.2878ZM16.4629 6.21387L11.4663 11.2104C11.4252 11.2516 11.3943 11.3018 11.3759 11.3569L10.8773 12.8523C10.712 12.8826 10.5425 12.8827 10.3772 12.8525C9.44111 12.352 9.62479 10.8287 8.37438 10.6545C7.18631 10.4484 6.76156 12.3808 6.74882 12.7394C6.73917 12.8371 6.76818 12.9346 6.82963 13.0112C6.89108 13.0877 6.98006 13.1371 7.07751 13.1488C7.17496 13.1605 7.2731 13.1335 7.3509 13.0737C7.42869 13.0138 7.47994 12.9259 7.49366 12.8287C7.5996 11.887 8.23131 10.5211 8.91528 12.1529C9.88789 14.4085 11.183 13.5413 12.9901 12.9713C13.0453 12.953 13.0955 12.9219 13.1366 12.8807L16.4629 9.55444V18.9849H5.22571V3.77765H16.4629V6.21387ZM17.8292 20.9561C17.8295 21.166 17.7465 21.3675 17.5984 21.5163C17.4503 21.6652 17.2493 21.7492 17.0393 21.75H4.64893C4.43902 21.7492 4.238 21.6651 4.08998 21.5163C3.94195 21.3675 3.85902 21.166 3.85938 20.9561V3.04395C3.85902 2.83403 3.94195 2.63255 4.08997 2.4837C4.23799 2.33486 4.43901 2.25081 4.64893 2.25H17.0393C17.2493 2.25079 17.4503 2.33482 17.5984 2.48366C17.7465 2.6325 17.8295 2.83399 17.8292 3.04395V4.84753L17.2129 5.46387V3.40265C17.2129 3.3534 17.2032 3.30463 17.1844 3.25913C17.1655 3.21362 17.1379 3.17228 17.1031 3.13745C17.0683 3.10263 17.0269 3.07501 16.9814 3.05617C16.9359 3.03733 16.8871 3.02764 16.8379 3.02765H4.85071C4.80146 3.02764 4.75269 3.03733 4.70719 3.05617C4.66168 3.07501 4.62034 3.10263 4.58552 3.13745C4.55069 3.17228 4.52307 3.21362 4.50423 3.25913C4.48539 3.30463 4.4757 3.3534 4.47571 3.40265V19.3599C4.4757 19.4092 4.48539 19.4579 4.50423 19.5034C4.52307 19.5489 4.55069 19.5903 4.58552 19.6251C4.62034 19.6599 4.66168 19.6876 4.70719 19.7064C4.75269 19.7252 4.80146 19.7349 4.85071 19.7349H16.8379C16.8871 19.7349 16.9359 19.7252 16.9814 19.7064C17.0269 19.6876 17.0683 19.6599 17.1031 19.6251C17.1379 19.5903 17.1655 19.5489 17.1844 19.5034C17.2032 19.4579 17.2129 19.4092 17.2129 19.3599V8.80444L17.8292 8.18812V20.9561ZM20.0166 4.94018L19.4725 5.48428L18.8627 4.87444L19.4069 4.33026C19.4883 4.25237 19.5971 4.20947 19.7098 4.21075C19.8225 4.21203 19.9302 4.25738 20.0099 4.3371C20.0896 4.41682 20.135 4.52457 20.1362 4.63728C20.1374 4.75 20.0945 4.85872 20.0166 4.94018Z" fill="white"/>
</svg>
