<svg width="41" height="40" viewBox="0 0 41 40" fill="none" xmlns="http://www.w3.org/2000/svg">
<g clip-path="url(#clip0_278_7768)">
<g clip-path="url(#clip1_278_7768)">
<path d="M2.37526 32.5H26.1253C26.291 32.5 26.45 32.4342 26.5672 32.3169C26.6844 32.1997 26.7503 32.0408 26.7503 31.875C26.7503 31.7092 26.6844 31.5503 26.5672 31.4331C26.45 31.3158 26.291 31.25 26.1253 31.25H2.37526C2.20035 31.2379 2.03708 31.158 1.9203 31.0272C1.80353 30.8964 1.74251 30.7252 1.75026 30.55V9.45C1.74251 9.27484 1.80353 9.10359 1.9203 8.9728C2.03708 8.84202 2.20035 8.76206 2.37526 8.75H26.1253C26.291 8.75 26.45 8.68415 26.5672 8.56694C26.6844 8.44973 26.7503 8.29076 26.7503 8.125C26.7503 7.95924 26.6844 7.80027 26.5672 7.68306C26.45 7.56585 26.291 7.5 26.1253 7.5H2.37526C1.86854 7.51149 1.38695 7.723 1.03565 8.08836C0.68435 8.45371 0.491878 8.94322 0.500263 9.45V30.55C0.491878 31.0568 0.68435 31.5463 1.03565 31.9116C1.38695 32.277 1.86854 32.4885 2.37526 32.5ZM38.6253 7.5H33.6253C33.4595 7.5 33.3005 7.56585 33.1833 7.68306C33.0661 7.80027 33.0003 7.95924 33.0003 8.125C33.0003 8.29076 33.0661 8.44973 33.1833 8.56694C33.3005 8.68415 33.4595 8.75 33.6253 8.75H38.6253C38.8002 8.76206 38.9634 8.84202 39.0802 8.9728C39.197 9.10359 39.258 9.27484 39.2503 9.45V30.55C39.258 30.7252 39.197 30.8964 39.0802 31.0272C38.9634 31.158 38.8002 31.2379 38.6253 31.25H33.6253C33.4595 31.25 33.3005 31.3158 33.1833 31.4331C33.0661 31.5503 33.0003 31.7092 33.0003 31.875C33.0003 32.0408 33.0661 32.1997 33.1833 32.3169C33.3005 32.4342 33.4595 32.5 33.6253 32.5H38.6253C39.132 32.4885 39.6136 32.277 39.9649 31.9116C40.3162 31.5463 40.5086 31.0568 40.5003 30.55V9.45C40.5086 8.94322 40.3162 8.45371 39.9649 8.08836C39.6136 7.723 39.132 7.51149 38.6253 7.5Z" fill="#002244" fill-opacity="0.7"/>
<path d="M2.37186 32.65L2.37186 32.65H2.37526H26.1253C26.3308 32.65 26.5279 32.5683 26.6733 32.423C26.8186 32.2777 26.9003 32.0805 26.9003 31.875C26.9003 31.6695 26.8186 31.4723 26.6733 31.327C26.5279 31.1817 26.3308 31.1 26.1253 31.1H2.38076C2.24672 31.0895 2.12182 31.0277 2.03219 30.9273L1.9203 31.0272L2.03219 30.9273C1.94149 30.8257 1.89409 30.6927 1.90012 30.5566L1.90026 30.5566V30.55V9.45H1.90041L1.90012 9.44337C1.89409 9.30731 1.94149 9.17429 2.03219 9.07271C2.12182 8.97232 2.24672 8.91049 2.38075 8.9H26.1253C26.3308 8.9 26.5279 8.81835 26.6733 8.67301C26.8186 8.52767 26.9003 8.33054 26.9003 8.125C26.9003 7.91946 26.8186 7.72233 26.6733 7.57699C26.5279 7.43165 26.3308 7.35 26.1253 7.35H2.37526V7.34996L2.37186 7.35004C1.82553 7.36242 1.30629 7.59047 0.927527 7.98439C0.549054 8.378 0.341563 8.90527 0.350263 9.45122V30.5488C0.341563 31.0947 0.549054 31.622 0.927527 32.0156C1.30629 32.4095 1.82553 32.6376 2.37186 32.65ZM38.6287 7.35004V7.35H38.6253H33.6253C33.4197 7.35 33.2226 7.43165 33.0773 7.57699C32.9319 7.72233 32.8503 7.91946 32.8503 8.125C32.8503 8.33054 32.9319 8.52767 33.0773 8.67301C33.2226 8.81835 33.4197 8.9 33.6253 8.9H38.6198C38.7538 8.91049 38.8787 8.97232 38.9683 9.07271C39.059 9.17429 39.1064 9.30731 39.1004 9.44337L39.1003 9.44336V9.45V30.55H39.1001L39.1004 30.5566C39.1064 30.6927 39.059 30.8257 38.9683 30.9273C38.8787 31.0277 38.7538 31.0895 38.6198 31.1H33.6253C33.4197 31.1 33.2226 31.1817 33.0773 31.327C32.9319 31.4723 32.8503 31.6695 32.8503 31.875C32.8503 32.0805 32.9319 32.2777 33.0773 32.423C33.2226 32.5683 33.4197 32.65 33.6253 32.65L38.6253 32.65L38.6287 32.65C39.175 32.6376 39.6942 32.4095 40.073 32.0156C40.4514 31.622 40.6589 31.0948 40.6503 30.5489V9.45107C40.6589 8.90517 40.4514 8.37796 40.073 7.98439C39.6942 7.59047 39.175 7.36242 38.6287 7.35004Z" stroke="#002244" stroke-opacity="0.7" stroke-width="0.3"/>
<path d="M29.25 5V35H25.5C25.3342 35 25.1753 35.0658 25.0581 35.1831C24.9408 35.3003 24.875 35.4592 24.875 35.625C24.875 35.7908 24.9408 35.9497 25.0581 36.0669C25.1753 36.1842 25.3342 36.25 25.5 36.25H34.25C34.4158 36.25 34.5747 36.1842 34.6919 36.0669C34.8092 35.9497 34.875 35.7908 34.875 35.625C34.875 35.4592 34.8092 35.3003 34.6919 35.1831C34.5747 35.0658 34.4158 35 34.25 35H30.5V5H34.25C34.4158 5 34.5747 4.93415 34.6919 4.81694C34.8092 4.69973 34.875 4.54076 34.875 4.375C34.875 4.20924 34.8092 4.05027 34.6919 3.93306C34.5747 3.81585 34.4158 3.75 34.25 3.75H25.5C25.3342 3.75 25.1753 3.81585 25.0581 3.93306C24.9408 4.05027 24.875 4.20924 24.875 4.375C24.875 4.54076 24.9408 4.69973 25.0581 4.81694C25.1753 4.93415 25.3342 5 25.5 5H29.25Z" fill="#002244" fill-opacity="0.7"/>
<path d="M29.15 5.1V34.9H25.5C25.3077 34.9 25.1233 34.9764 24.9873 35.1123C24.8514 35.2483 24.775 35.4327 24.775 35.625C24.775 35.8173 24.8514 36.0017 24.9873 36.1377C25.1233 36.2736 25.3077 36.35 25.5 36.35H34.25C34.4423 36.35 34.6267 36.2736 34.7627 36.1376C34.8986 36.0017 34.975 35.8173 34.975 35.625C34.975 35.4327 34.8986 35.2483 34.7627 35.1123C34.6267 34.9764 34.4423 34.9 34.25 34.9H30.6V5.1H34.25C34.4423 5.1 34.6267 5.02362 34.7627 4.88765C34.8986 4.75169 34.975 4.56728 34.975 4.375C34.975 4.18272 34.8986 3.99831 34.7627 3.86235C34.6267 3.72638 34.4423 3.65 34.25 3.65H25.5C25.3077 3.65 25.1233 3.72638 24.9873 3.86235C24.8514 3.99831 24.775 4.18272 24.775 4.375C24.775 4.56728 24.8514 4.75169 24.9873 4.88765C25.1233 5.02362 25.3077 5.1 25.5 5.1H29.15Z" stroke="#002244" stroke-opacity="0.7" stroke-width="0.2"/>
<path d="M9.875 22.5C10.2202 22.5 10.5 22.2202 10.5 21.875C10.5 21.5298 10.2202 21.25 9.875 21.25C9.52982 21.25 9.25 21.5298 9.25 21.875C9.25 22.2202 9.52982 22.5 9.875 22.5Z" fill="#002244" fill-opacity="0.7"/>
<path d="M9.875 22.6C10.2754 22.6 10.6 22.2754 10.6 21.875C10.6 21.4746 10.2754 21.15 9.875 21.15C9.47459 21.15 9.15 21.4746 9.15 21.875C9.15 22.2754 9.47459 22.6 9.875 22.6Z" stroke="#002244" stroke-opacity="0.7" stroke-width="0.2"/>
<path d="M9.875 17.5C10.2202 17.5 10.5 17.2202 10.5 16.875C10.5 16.5298 10.2202 16.25 9.875 16.25C9.52982 16.25 9.25 16.5298 9.25 16.875C9.25 17.2202 9.52982 17.5 9.875 17.5Z" fill="#002244" fill-opacity="0.7"/>
<path d="M9.875 17.6C10.2754 17.6 10.6 17.2754 10.6 16.875C10.6 16.4746 10.2754 16.15 9.875 16.15C9.47459 16.15 9.15 16.4746 9.15 16.875C9.15 17.2754 9.47459 17.6 9.875 17.6Z" stroke="#002244" stroke-opacity="0.7" stroke-width="0.2"/>
<path d="M18.2304 13.1687C18.0766 13.107 17.9047 13.1089 17.7523 13.174C17.6 13.239 17.4797 13.3619 17.4179 13.5156L12.4179 26.0156C12.3842 26.0922 12.3664 26.1749 12.3653 26.2586C12.3642 26.3423 12.38 26.4254 12.4116 26.5029C12.4433 26.5805 12.4902 26.6508 12.5496 26.7098C12.609 26.7689 12.6796 26.8154 12.7573 26.8466C12.835 26.8778 12.9182 26.8931 13.0019 26.8915C13.0856 26.8899 13.1682 26.8716 13.2446 26.8375C13.3211 26.8034 13.39 26.7543 13.4471 26.6931C13.5042 26.6319 13.5485 26.5598 13.5772 26.4812L18.5772 13.9812C18.6389 13.8274 18.637 13.6555 18.572 13.5032C18.5069 13.3508 18.3841 13.2305 18.2304 13.1687ZM17.7679 26.8312C17.9216 26.8929 18.0936 26.891 18.2459 26.8259C18.3983 26.7609 18.5186 26.638 18.5804 26.4843L23.5804 13.9843C23.6361 13.8318 23.6303 13.6636 23.5642 13.5153C23.4982 13.367 23.3769 13.2503 23.2263 13.1898C23.0756 13.1292 22.9073 13.1297 22.757 13.1911C22.6067 13.2525 22.4862 13.37 22.421 13.5187L17.421 26.0187C17.3593 26.1724 17.3612 26.3444 17.4263 26.4967C17.4913 26.6491 17.6142 26.7694 17.7679 26.8312Z" fill="#002244" fill-opacity="0.7"/>
<path d="M18.2676 13.0759L18.2677 13.0759C18.446 13.1476 18.5885 13.2872 18.6639 13.4639C18.7394 13.6406 18.7416 13.84 18.6701 14.0183L18.2676 13.0759ZM18.2676 13.0759C18.0892 13.0043 17.8898 13.0066 17.7131 13.082C17.5363 13.1575 17.3968 13.3 17.3251 13.4783L17.325 13.4784L12.3256 25.977C12.287 26.0655 12.2665 26.1608 12.2653 26.2573C12.2641 26.3545 12.2823 26.4508 12.3191 26.5408C12.3558 26.6307 12.4102 26.7123 12.4791 26.7808C12.548 26.8492 12.6299 26.9032 12.72 26.9394L12.7573 26.8466L12.72 26.9394C12.8102 26.9756 12.9067 26.9933 13.0038 26.9915C13.1009 26.9897 13.1966 26.9684 13.2853 26.9288C13.3741 26.8893 13.4539 26.8323 13.5202 26.7613C13.5861 26.6907 13.6373 26.6076 13.6706 26.517L18.6701 14.0184L18.2676 13.0759ZM17.7306 26.924L17.7306 26.924C17.909 26.9955 18.1084 26.9933 18.2852 26.9179C18.4619 26.8424 18.6014 26.6999 18.6731 26.5216L18.6732 26.5215L23.6732 14.0215L23.6733 14.0215L23.6743 14.0186C23.739 13.8418 23.7322 13.6467 23.6556 13.4746C23.5789 13.3026 23.4383 13.1671 23.2636 13.097C23.0888 13.0268 22.8936 13.0273 22.7192 13.0986C22.5449 13.1698 22.4051 13.306 22.3294 13.4785L22.3294 13.4785L22.3281 13.4816L17.3282 25.9815C17.2567 26.1598 17.2589 26.3593 17.3343 26.536C17.4098 26.7127 17.5523 26.8523 17.7306 26.924Z" stroke="#002244" stroke-opacity="0.7" stroke-width="0.2"/>
</g>
</g>
<defs>
<clipPath id="clip0_278_7768">
<rect width="40" height="40" fill="white" transform="translate(0.5)"/>
</clipPath>
<clipPath id="clip1_278_7768">
<rect width="40" height="40" fill="white" transform="translate(0.5)"/>
</clipPath>
</defs>
</svg>
