<svg width="17" height="17" viewBox="0 0 17 17" fill="none" xmlns="http://www.w3.org/2000/svg">
<path d="M15.7557 6.76021C15.3832 6.46 14.9962 6.14894 14.8768 5.85957C14.7466 5.54851 14.8009 5.03851 14.8515 4.54298C14.9311 3.77617 15.0106 2.98766 14.5115 2.48851C14.0123 1.98936 13.2202 2.07255 12.4534 2.15213C11.9615 2.20277 11.4479 2.25702 11.1404 2.12681C10.8511 2.00745 10.54 1.62043 10.2398 1.24787C9.76958 0.661915 9.23787 0 8.5 0C7.76213 0 7.23043 0.661915 6.76021 1.24787C6.46 1.62043 6.14894 2.00745 5.85958 2.12681C5.54851 2.25702 5.03851 2.20277 4.5466 2.15213C3.77979 2.07255 2.98766 1.98936 2.48851 2.48851C1.98936 2.98766 2.07255 3.77979 2.15213 4.5466C2.20277 5.03851 2.25702 5.55213 2.12681 5.86319C2.00745 6.15255 1.62043 6.46362 1.24787 6.76383C0.661915 7.23043 0 7.76213 0 8.5C0 9.23787 0.661915 9.76957 1.24426 10.2398C1.61681 10.54 2.00383 10.8511 2.12319 11.1404C2.2534 11.4515 2.19915 11.9615 2.14851 12.457C2.06894 13.2238 1.98936 14.0123 2.48851 14.5115C2.98766 15.0106 3.77979 14.9311 4.54298 14.8515C5.03851 14.8009 5.54851 14.7466 5.85958 14.8768C6.14894 14.9962 6.46 15.3832 6.76021 15.7557C7.23043 16.3381 7.76213 17 8.5 17C9.23787 17 9.76958 16.3381 10.2398 15.7557C10.54 15.3832 10.8511 14.9962 11.1404 14.8768C11.4515 14.7466 11.9615 14.8009 12.4534 14.8515C13.2202 14.9311 14.0087 15.0106 14.5079 14.5115C15.007 14.0123 14.9274 13.2202 14.8479 12.457C14.7972 11.9651 14.743 11.4515 14.8732 11.1404C14.9926 10.8511 15.3796 10.54 15.7521 10.2398C16.3345 9.76957 16.9964 9.23787 16.9964 8.5C17 7.76213 16.3381 7.23043 15.7557 6.76021ZM15.3 9.67553C14.8551 10.0336 14.3957 10.4026 14.2077 10.8619C14.0087 11.343 14.0702 11.9434 14.1317 12.5294C14.1932 13.1262 14.2583 13.7411 14.0015 13.9979C13.7447 14.2547 13.1298 14.1896 12.533 14.1281C11.9506 14.0666 11.3466 14.0051 10.8655 14.204C10.4062 14.3957 10.0372 14.8551 9.67915 15.3C9.29213 15.7811 8.89426 16.2766 8.50362 16.2766C8.11298 16.2766 7.71149 15.7811 7.32809 15.3C6.97 14.8551 6.60106 14.3957 6.1417 14.204C5.89575 14.1028 5.61362 14.0666 5.32426 14.0666C5.04936 14.0666 4.76 14.0955 4.47787 14.1245C3.88106 14.186 3.26617 14.2511 3.00936 13.9943C2.75255 13.7374 2.81766 13.1226 2.87915 12.5257C2.94064 11.9434 3.00213 11.3394 2.80319 10.8583C2.61149 10.3989 2.15213 10.03 1.71085 9.67191C1.21894 9.29213 0.723404 8.89064 0.723404 8.5C0.723404 8.10936 1.21894 7.70787 1.7 7.32447C2.14489 6.96638 2.60426 6.59745 2.79596 6.13808C2.99489 5.65702 2.9334 5.0566 2.87192 4.47064C2.81043 3.87383 2.74532 3.25894 3.00213 3.00213C3.25894 2.74532 3.87383 2.81043 4.47064 2.87191C5.05298 2.9334 5.65702 2.99489 6.13809 2.79596C6.59745 2.60425 6.96638 2.14489 7.32447 1.7C7.71149 1.21894 8.10936 0.723404 8.5 0.723404C8.89064 0.723404 9.29213 1.21894 9.67553 1.7C10.0336 2.14489 10.4026 2.60425 10.8619 2.79596C11.343 2.99489 11.9434 2.9334 12.5294 2.87191C13.1262 2.81043 13.7447 2.74532 13.9979 3.00213C14.2547 3.25894 14.1896 3.87383 14.1281 4.47064C14.0666 5.05298 14.0051 5.65702 14.204 6.13808C14.3957 6.59745 14.8551 6.96638 15.3 7.32447C15.7811 7.71149 16.2766 8.10936 16.2766 8.5C16.2766 8.89064 15.7811 9.29213 15.3 9.67553Z" fill="#002244"/>
<path d="M8.50068 3.50134C5.74451 3.50134 3.50195 5.7439 3.50195 8.50007C3.50195 11.2562 5.74451 13.4988 8.50068 13.4988C11.2568 13.4988 13.4994 11.2562 13.4994 8.50007C13.4994 5.7439 11.2568 3.50134 8.50068 3.50134ZM8.50068 12.7754C6.14238 12.7754 4.22536 10.8584 4.22536 8.50007C4.22536 6.14177 6.14238 4.22475 8.50068 4.22475C10.859 4.22475 12.776 6.14177 12.776 8.50007C12.776 10.8584 10.859 12.7754 8.50068 12.7754Z" fill="#002244"/>
<path d="M8.36068 9.01906C7.97015 9.40959 7.33699 9.40959 6.94646 9.01906L6.3823 8.4549C6.24141 8.314 6.01297 8.314 5.87207 8.4549C5.73127 8.59571 5.73117 8.82397 5.87185 8.9649L6.94646 10.0414C7.33689 10.4325 7.97054 10.4328 8.3613 10.0421L11.1277 7.27564C11.2687 7.13466 11.2691 6.90621 11.1286 6.76474C10.9874 6.62255 10.7576 6.62214 10.6159 6.76383L8.36068 9.01906Z" fill="#002244"/>
</svg>
