<svg width="40" height="40" viewBox="0 0 40 40" fill="none" xmlns="http://www.w3.org/2000/svg">
<circle cx="20" cy="20" r="20" fill="#7AB0E5"/>
<g clip-path="url(#clip0_278_5557)">
<path d="M20.164 24.71C19.9735 24.7073 19.7912 24.6322 19.654 24.5L15.364 20.5513C15.2178 20.416 15.1314 20.2282 15.1236 20.0292C15.1159 19.8302 15.1875 19.6362 15.3228 19.49C15.458 19.3438 15.6458 19.2573 15.8449 19.2496C16.0439 19.2419 16.2378 19.3135 16.384 19.4488L20.674 23.4088C20.785 23.5112 20.8625 23.6447 20.8964 23.7919C20.9303 23.9391 20.9189 24.0931 20.8638 24.2337C20.8087 24.3743 20.7124 24.495 20.5875 24.58C20.4627 24.665 20.3151 24.7103 20.164 24.71Z" fill="white"/>
<path d="M15.8745 20.75C15.7235 20.7503 15.5759 20.705 15.451 20.62C15.3262 20.535 15.2299 20.4143 15.1748 20.2737C15.1197 20.1331 15.1083 19.9791 15.1421 19.8319C15.176 19.6847 15.2535 19.5512 15.3645 19.4488L19.6545 15.5C19.8007 15.3648 19.9946 15.2931 20.1937 15.3009C20.3927 15.3086 20.5805 15.3951 20.7157 15.5413C20.851 15.6875 20.9227 15.8814 20.9149 16.0804C20.9072 16.2795 20.8207 16.4673 20.6745 16.6025L16.3845 20.5513C16.2456 20.6794 16.0635 20.7504 15.8745 20.75Z" fill="white"/>
<path d="M24.125 20.75H16.25C16.0511 20.75 15.8603 20.671 15.7197 20.5303C15.579 20.3897 15.5 20.1989 15.5 20C15.5 19.8011 15.579 19.6103 15.7197 19.4697C15.8603 19.329 16.0511 19.25 16.25 19.25H24.125C24.3239 19.25 24.5147 19.329 24.6553 19.4697C24.796 19.6103 24.875 19.8011 24.875 20C24.875 20.1989 24.796 20.3897 24.6553 20.5303C24.5147 20.671 24.3239 20.75 24.125 20.75Z" fill="white"/>
</g>
<defs>
<clipPath id="clip0_278_5557">
<rect width="24" height="24" fill="white" transform="translate(8 8)"/>
</clipPath>
</defs>
</svg>
