<svg width="24" height="24" viewBox="0 0 24 24" fill="none" xmlns="http://www.w3.org/2000/svg">
<g clip-path="url(#clip0_278_7579)">
<path d="M11.836 16.71C12.0265 16.7073 12.2088 16.6322 12.346 16.5L16.636 12.5513C16.7822 12.416 16.8686 12.2282 16.8764 12.0292C16.8841 11.8302 16.8125 11.6362 16.6772 11.49C16.542 11.3438 16.3542 11.2573 16.1551 11.2496C15.9561 11.2419 15.7622 11.3135 15.616 11.4488L11.326 15.4088C11.215 15.5112 11.1375 15.6447 11.1036 15.7919C11.0697 15.9391 11.0811 16.0931 11.1362 16.2337C11.1913 16.3743 11.2876 16.495 11.4125 16.58C11.5373 16.665 11.6849 16.7103 11.836 16.71Z" fill="white"/>
<path d="M16.1255 12.75C16.2765 12.7503 16.4241 12.705 16.549 12.62C16.6738 12.535 16.7701 12.4143 16.8252 12.2737C16.8803 12.1331 16.8917 11.9791 16.8579 11.8319C16.824 11.6847 16.7465 11.5512 16.6355 11.4488L12.3455 7.50003C12.1993 7.36477 12.0054 7.29312 11.8063 7.30086C11.6073 7.3086 11.4195 7.39508 11.2843 7.54128C11.149 7.68748 11.0773 7.88142 11.0851 8.08045C11.0928 8.27947 11.1793 8.46727 11.3255 8.60253L15.6155 12.5513C15.7544 12.6794 15.9365 12.7504 16.1255 12.75Z" fill="white"/>
<path d="M7.875 12.75H15.75C15.9489 12.75 16.1397 12.671 16.2803 12.5303C16.421 12.3897 16.5 12.1989 16.5 12C16.5 11.8011 16.421 11.6103 16.2803 11.4697C16.1397 11.329 15.9489 11.25 15.75 11.25H7.875C7.67609 11.25 7.48532 11.329 7.34467 11.4697C7.20402 11.6103 7.125 11.8011 7.125 12C7.125 12.1989 7.20402 12.3897 7.34467 12.5303C7.48532 12.671 7.67609 12.75 7.875 12.75Z" fill="white"/>
</g>
<defs>
<clipPath id="clip0_278_7579">
<rect width="24" height="24" fill="white"/>
</clipPath>
</defs>
</svg>
