<svg width="41" height="40" viewBox="0 0 41 40" fill="none" xmlns="http://www.w3.org/2000/svg">
<path d="M38.6543 35.8462V28.3077C38.6543 26.4616 37.1158 24.9231 35.2697 24.9231H29.7312L28.962 22.5385C28.962 22.5385 28.962 22.5385 28.962 22.4616C28.962 22.3847 28.8851 22.3077 28.8081 22.2308L10.8851 4.53851L11.8851 3.53851L16.8851 8.53851C17.1928 8.8462 17.6543 8.8462 17.962 8.53851C18.2697 8.23082 18.2697 7.76928 17.962 7.46158C17.1158 6.61543 13.3466 2.8462 11.8851 1.38466C11.1158 0.615432 9.73122 0.615432 8.96199 1.38466L8.19276 2.15389C6.6543 1.23082 4.88507 1.61543 3.73122 2.76928L3.50045 3.00005C2.03891 4.46159 2.03891 6.92312 3.50045 8.46159C5.57737 10.5385 18.4235 23.3847 23.1158 28.077C23.1928 28.1539 23.2697 28.1539 23.3466 28.2308C23.3466 28.2308 23.3466 28.2308 23.4235 28.2308L24.4235 28.5385V35.8462C24.4235 37.6924 25.962 39.2308 27.8081 39.2308H35.3466C37.1158 39.2308 38.6543 37.6924 38.6543 35.8462ZM29.2697 28.5385L28.5005 28.3077L28.962 27.6924L29.2697 28.5385ZM25.0389 27.1539L27.8851 24.3077L28.5005 26.077L26.8081 27.6924L25.0389 27.1539ZM10.8081 2.46159L9.80814 3.46159C9.73122 3.38466 9.42353 3.00005 9.50045 3.07697L10.1158 2.46159C10.2697 2.23082 10.6543 2.23082 10.8081 2.46159ZM4.57737 4.07697L4.80814 3.8462C5.73122 2.92312 7.19276 2.92312 8.03891 3.8462C8.11584 3.92312 8.80814 4.61543 8.73122 4.53851L5.26968 8.00005L4.57737 7.30774C3.6543 6.46159 3.6543 5.00005 4.57737 4.07697ZM9.80814 5.61543L27.1158 22.9231L23.6543 26.3847L6.3466 9.07697L9.80814 5.61543ZM37.1158 35.8462C37.1158 36.8462 36.2697 37.6924 35.2697 37.6924H27.7312C26.7312 37.6924 25.8851 36.8462 25.8851 35.8462V29L30.1928 30.3847C30.2697 30.3847 30.3466 30.4616 30.4235 30.4616C30.6543 30.4616 30.8081 30.3847 30.962 30.2308C31.1928 30 31.2697 29.6924 31.1158 29.4616L30.1158 26.5385H35.1928C36.1928 26.5385 37.0389 27.3847 37.0389 28.3847V35.8462H37.1158Z" fill="#002244" fill-opacity="0.7"/>
<path d="M33.6547 29.7693L30.5009 32.8462L29.347 31.7693C29.0393 31.4616 28.5778 31.5385 28.2701 31.8462C27.9624 32.1539 28.0393 32.6154 28.347 32.9231L30.0393 34.4616C30.1932 34.6154 30.347 34.6923 30.5778 34.6923C30.8086 34.6923 30.9624 34.6154 31.1162 34.4616L34.8086 30.7693C35.1162 30.4616 35.1162 30 34.8086 29.6923C34.5009 29.3846 33.9624 29.4616 33.6547 29.7693Z" fill="#002244" fill-opacity="0.7"/>
</svg>
