<svg width="41" height="40" viewBox="0 0 41 40" fill="none" xmlns="http://www.w3.org/2000/svg">
<g clip-path="url(#clip0_278_7780)">
<g clip-path="url(#clip1_278_7780)">
<path d="M25.2256 16.5856C25.3085 16.5856 25.388 16.5527 25.4466 16.4941C25.5052 16.4355 25.5381 16.356 25.5381 16.2731C25.5381 16.1902 25.5052 16.1107 25.4466 16.0521C25.388 15.9935 25.3085 15.9606 25.2256 15.9606H14.7488C14.6659 15.9606 14.5864 15.9935 14.5278 16.0521C14.4692 16.1107 14.4363 16.1902 14.4363 16.2731C14.4363 16.356 14.4692 16.4355 14.5278 16.4941C14.5864 16.5527 14.6659 16.5856 14.7488 16.5856H25.2256ZM10.5078 19.7072C10.5078 19.7901 10.5407 19.8695 10.5993 19.9281C10.6579 19.9868 10.7374 20.0197 10.8203 20.0197H25.2256C25.3085 20.0197 25.388 19.9868 25.4466 19.9281C25.5052 19.8695 25.5381 19.7901 25.5381 19.7072C25.5381 19.6243 25.5052 19.5448 25.4466 19.4862C25.388 19.4276 25.3085 19.3947 25.2256 19.3947H10.8203C10.7374 19.3947 10.6579 19.4276 10.5993 19.4862C10.5407 19.5448 10.5078 19.6243 10.5078 19.7072ZM25.5381 23.1412C25.5381 23.0584 25.5052 22.9789 25.4466 22.9203C25.388 22.8617 25.3085 22.8287 25.2256 22.8287H11.1228C11.0399 22.8287 10.9604 22.8617 10.9018 22.9203C10.8432 22.9789 10.8103 23.0584 10.8103 23.1412C10.8103 23.2241 10.8432 23.3036 10.9018 23.3622C10.9604 23.4208 11.0399 23.4537 11.1228 23.4537H25.2256C25.3085 23.4537 25.388 23.4208 25.4466 23.3622C25.5052 23.3036 25.5381 23.2241 25.5381 23.1412ZM15.1881 4.6828C15.4969 4.68256 15.7986 4.59078 16.0552 4.41908C16.3118 4.24737 16.5117 4.00345 16.6296 3.71815C16.7476 3.43285 16.7784 3.11897 16.718 2.8162C16.6576 2.51343 16.5088 2.23536 16.2904 2.01714C16.072 1.79892 15.7938 1.65035 15.491 1.59021C15.1882 1.53007 14.8743 1.56106 14.5891 1.67927C14.3039 1.79747 14.0602 1.99758 13.8887 2.2543C13.7172 2.51102 13.6256 2.81282 13.6256 3.12155C13.6263 3.53564 13.7912 3.93255 14.0841 4.22523C14.377 4.51792 14.774 4.68247 15.1881 4.6828ZM15.1881 2.1853C15.3732 2.18555 15.5541 2.24067 15.7079 2.3437C15.8617 2.44672 15.9815 2.59303 16.0522 2.76413C16.1229 2.93523 16.1412 3.12344 16.105 3.30497C16.0687 3.4865 15.9794 3.65321 15.8485 3.78402C15.7175 3.91483 15.5507 4.00388 15.3691 4.0399C15.1875 4.07593 14.9993 4.05731 14.8283 3.98641C14.6573 3.91552 14.5111 3.79551 14.4083 3.64158C14.3055 3.48764 14.2506 3.30667 14.2506 3.12155C14.2511 2.87318 14.3501 2.63514 14.5258 2.45963C14.7016 2.28412 14.9398 2.18547 15.1881 2.1853Z" fill="#002244" fill-opacity="0.7"/>
<path d="M15.188 4.8328L15.1882 4.8328C15.5266 4.83253 15.8574 4.73194 16.1386 4.54374C16.4198 4.35554 16.6389 4.08818 16.7683 3.77547C16.8976 3.46276 16.9313 3.11873 16.8651 2.78687C16.7989 2.45501 16.6358 2.15022 16.3964 1.91103C16.1571 1.67185 15.8521 1.509 15.5202 1.44308C15.1883 1.37717 14.8443 1.41113 14.5317 1.5407C14.2191 1.67026 13.9519 1.88959 13.7639 2.17098C13.576 2.45236 13.4756 2.78316 13.4756 3.12155L13.4756 3.12179C13.4764 3.5756 13.657 4.01058 13.9781 4.33134C14.2991 4.6521 14.7342 4.83244 15.188 4.8328ZM25.2256 16.7356C25.3483 16.7356 25.4659 16.6869 25.5527 16.6002C25.6394 16.5134 25.6881 16.3958 25.6881 16.2731C25.6881 16.1505 25.6394 16.0328 25.5527 15.9461C25.4659 15.8593 25.3483 15.8106 25.2256 15.8106H14.7488C14.6261 15.8106 14.5084 15.8593 14.4217 15.9461C14.335 16.0328 14.2863 16.1505 14.2863 16.2731C14.2863 16.3958 14.335 16.5134 14.4217 16.6002C14.5084 16.6869 14.6261 16.7356 14.7488 16.7356H25.2256ZM15.6245 2.46832L15.7079 2.3437L15.6245 2.46832C15.7536 2.55484 15.8542 2.67771 15.9136 2.82139C15.9729 2.96508 15.9883 3.12314 15.9579 3.27559C15.9274 3.42803 15.8525 3.56803 15.7425 3.67789C15.6325 3.78774 15.4924 3.86252 15.3399 3.89277C15.1874 3.92302 15.0294 3.90739 14.8857 3.84785C14.7421 3.78831 14.6194 3.68754 14.5331 3.55826C14.4467 3.42899 14.4006 3.27701 14.4006 3.12155L14.2506 3.12155L14.4006 3.12185C14.401 2.91319 14.4842 2.71321 14.6318 2.56577C14.7794 2.41835 14.9795 2.33548 15.1881 2.3353C15.3435 2.33554 15.4953 2.38183 15.6245 2.46832ZM10.3578 19.7072C10.3578 19.8298 10.4065 19.9475 10.4933 20.0342C10.58 20.1209 10.6976 20.1697 10.8203 20.1697H25.2256C25.3483 20.1697 25.4659 20.1209 25.5527 20.0342C25.6394 19.9475 25.6881 19.8298 25.6881 19.7072C25.6881 19.5845 25.6394 19.4669 25.5527 19.3801C25.4659 19.2934 25.3483 19.2447 25.2256 19.2447H10.8203C10.6977 19.2447 10.58 19.2934 10.4933 19.3801C10.4065 19.4669 10.3578 19.5845 10.3578 19.7072ZM25.6881 23.1412C25.6881 23.0186 25.6394 22.9009 25.5527 22.8142C25.4659 22.7275 25.3483 22.6787 25.2256 22.6787H11.1228C11.0002 22.6787 10.8825 22.7275 10.7958 22.8142C10.709 22.9009 10.6603 23.0186 10.6603 23.1412C10.6603 23.2639 10.709 23.3815 10.7958 23.4683C10.8825 23.555 11.0001 23.6037 11.1228 23.6037H25.2256C25.3483 23.6037 25.4659 23.555 25.5527 23.4683C25.6394 23.3815 25.6881 23.2639 25.6881 23.1412Z" stroke="#002244" stroke-opacity="0.7" stroke-width="0.3"/>
<path d="M2.6875 39.9991H27.6875C27.8032 39.9984 27.9185 39.9848 28.0312 39.9585C27.6242 39.7927 27.2298 39.5974 26.8512 39.3741H2.6875C2.43894 39.3739 2.20062 39.275 2.02486 39.0993C1.8491 38.9235 1.75025 38.6852 1.75 38.4366V6.56161C1.75025 6.31305 1.8491 6.07474 2.02486 5.89897C2.20062 5.72321 2.43894 5.62436 2.6875 5.62411H5.1875V7.80536C5.18816 8.21944 5.35303 8.61636 5.64595 8.90904C5.93887 9.20173 6.33592 9.36628 6.75 9.36661H23.625C24.0391 9.36628 24.4361 9.20173 24.729 8.90904C25.022 8.61636 25.1868 8.21944 25.1875 7.80536V5.62411H27.6875C27.9361 5.62436 28.1744 5.72321 28.3501 5.89897C28.5259 6.07474 28.6248 6.31305 28.625 6.56161V22.9491C28.8311 22.8814 29.0396 22.8211 29.25 22.7685V6.56161C29.2495 6.14736 29.0847 5.75022 28.7918 5.45731C28.4989 5.16439 28.1017 4.99961 27.6875 4.99911H25.1875V4.68349C25.1869 4.26935 25.0221 3.87236 24.7292 3.5796C24.4362 3.28685 24.0391 3.12226 23.625 3.12193H18.8928C18.8203 3.12425 18.7493 3.10102 18.6922 3.0563C18.635 3.01157 18.5954 2.94819 18.5803 2.87724C18.4474 2.07342 18.0333 1.34293 17.412 0.815919C16.7907 0.288912 16.0024 -0.000366211 15.1877 -0.000366211C14.3729 -0.000366211 13.5847 0.288912 12.9633 0.815919C12.342 1.34293 11.928 2.07342 11.795 2.87724C11.7798 2.94822 11.7402 3.0116 11.683 3.05633C11.6258 3.10105 11.5547 3.12427 11.4822 3.12193H6.75C6.33592 3.12226 5.93887 3.28681 5.64595 3.57949C5.35303 3.87218 5.18816 4.26909 5.1875 4.68318V4.99911H2.6875C2.27325 4.99961 1.87611 5.16439 1.58319 5.45731C1.29028 5.75022 1.1255 6.14736 1.125 6.56161V38.4366C1.1255 38.8509 1.29028 39.248 1.58319 39.5409C1.87611 39.8338 2.27325 39.9986 2.6875 39.9991ZM5.8125 4.68349C5.81291 4.43506 5.91185 4.19694 6.0876 4.02136C6.26335 3.84579 6.50157 3.74709 6.75 3.74693H11.4822C11.7027 3.7482 11.9167 3.67189 12.0866 3.53136C12.2566 3.39083 12.3717 3.19501 12.4119 2.97818C12.5208 2.32066 12.8596 1.72315 13.3679 1.2921C13.8762 0.861051 14.521 0.624451 15.1875 0.624451C15.854 0.624451 16.4988 0.861051 17.0071 1.2921C17.5154 1.72315 17.8542 2.32066 17.9631 2.97818C18.0033 3.19501 18.1184 3.39083 18.2884 3.53136C18.4583 3.67189 18.6723 3.7482 18.8928 3.74693H23.625C23.8734 3.74709 24.1115 3.84574 24.2873 4.02125C24.463 4.19676 24.562 4.4348 24.5625 4.68318V7.80505C24.5621 8.05348 24.4632 8.2916 24.2874 8.46717C24.1116 8.64275 23.8734 8.74145 23.625 8.74161H6.75C6.50163 8.74145 6.26345 8.64279 6.08771 8.46728C5.91197 8.29177 5.813 8.05373 5.8125 7.80536V4.68349Z" fill="#002244" fill-opacity="0.7"/>
<path d="M12.5594 3.0055L12.5594 3.0055C12.5128 3.25694 12.3793 3.484 12.1822 3.64696C11.9853 3.80981 11.7373 3.89829 11.4818 3.89693M12.5594 3.0055L6.75 3.74693L6.7501 3.89692M12.5594 3.0055L12.5599 3.00269C12.663 2.38022 12.9837 1.81457 13.4649 1.40651C13.9461 0.998436 14.5566 0.774451 15.1875 0.774451C15.8184 0.774451 16.4289 0.998436 16.9101 1.4065C17.3913 1.81457 17.712 2.38022 17.8151 3.00269L17.8151 3.00269L17.8156 3.0055C17.8622 3.25694 17.9957 3.484 18.1928 3.64696C18.3897 3.80981 18.6377 3.89829 18.8932 3.89693M12.5594 3.0055L18.8932 3.89693M11.4818 3.89693C11.4816 3.89692 11.4815 3.89692 11.4813 3.89692L11.4822 3.74693V3.89693H11.4818ZM11.4818 3.89693L6.7501 3.89692M6.7501 3.89692L6.75 3.89693M6.7501 3.89692C6.75007 3.89692 6.75003 3.89693 6.75 3.89693M6.75 3.89693C6.54133 3.89709 6.34124 3.98 6.19361 4.12748C6.04602 4.27493 5.96291 4.47487 5.9625 4.68349M6.75 3.89693L5.9625 4.68349M5.9625 4.68349C5.9625 4.68357 5.9625 4.68365 5.9625 4.68374M5.9625 4.68349H5.8125L5.9625 4.68374M5.9625 4.68349L5.9625 4.68374M5.9625 4.68349L5.9625 7.80506M5.9625 4.68374V7.80506M5.9625 7.80506C5.9625 7.80514 5.9625 7.80521 5.9625 7.80528M5.9625 7.80506L5.9625 7.80528M5.9625 7.80528C5.96298 8.01386 6.04612 8.21375 6.19371 8.36115C6.34135 8.50859 6.54144 8.59147 6.7501 8.59161H23.6249C23.8336 8.59147 24.0337 8.50856 24.1814 8.36105C24.329 8.21355 24.4122 8.0135 24.4125 7.8048V4.68347C24.4121 4.47482 24.3289 4.27484 24.1813 4.12739C24.0337 3.97997 23.8336 3.89709 23.625 3.89693C23.625 3.89693 23.6249 3.89692 23.6249 3.89692M5.9625 7.80528L23.625 3.74693L23.6249 3.89692M23.6249 3.89692L18.8932 3.89693M23.6249 3.89692L18.8932 3.89693M2.68732 40.1491H2.6875H27.6875L27.6884 40.1491C27.8153 40.1484 27.9417 40.1334 28.0653 40.1046L28.5244 39.9974L28.0878 39.8196C27.6876 39.6565 27.2997 39.4644 26.9274 39.2449L26.8922 39.2241H26.8512H2.68765C2.47882 39.2239 2.2786 39.1409 2.13093 38.9932C1.98326 38.8455 1.90021 38.6453 1.9 38.4365V6.56176C1.9 6.56174 1.9 6.56172 1.9 6.5617C1.90022 6.35289 1.98327 6.15269 2.13093 6.00504C2.2786 5.85737 2.47882 5.77432 2.68765 5.77411H5.0375V7.80536L5.0375 7.8056C5.03823 8.2594 5.21891 8.69439 5.53993 9.01515C5.86094 9.33591 6.29608 9.51625 6.74988 9.51661H6.75H23.625H23.6251C24.0789 9.51625 24.5141 9.33591 24.8351 9.01515C25.1561 8.69439 25.3368 8.2594 25.3375 7.8056V7.80536V5.77411H27.6873C27.8962 5.77432 28.0964 5.85737 28.2441 6.00504C28.3917 6.15271 28.4748 6.35293 28.475 6.56176V22.9491V23.1563L28.6718 23.0916C28.8745 23.025 29.0795 22.9658 29.2864 22.914L29.4 22.8856V22.7685V6.56161V6.56143C29.3995 6.10746 29.2189 5.67225 28.8979 5.35124C28.5769 5.03024 28.1416 4.84966 27.6877 4.84911H27.6875H25.3375V4.68349V4.68328C25.3369 4.22942 25.1562 3.79434 24.8352 3.47351C24.5142 3.15267 24.079 2.97229 23.6251 2.97193H23.625H18.8928V2.97185L18.888 2.972C18.8506 2.9732 18.8141 2.96124 18.7846 2.93819C18.756 2.91574 18.7359 2.88416 18.7276 2.84874C18.5882 2.01145 18.1564 1.25064 17.509 0.701526C16.8606 0.151531 16.0379 -0.150366 15.1877 -0.150366C14.3374 -0.150366 13.5147 0.151531 12.8663 0.701526C12.2189 1.25063 11.7872 2.01141 11.6477 2.84868C11.6394 2.88413 11.6193 2.91572 11.5906 2.93818C11.5611 2.96124 11.5244 2.97321 11.487 2.972L11.487 2.97193H11.4822H6.75L6.74988 2.97193C6.29608 2.97229 5.86094 3.15263 5.53993 3.47339C5.21891 3.79414 5.03823 4.22913 5.0375 4.68294V4.68318V4.84911H2.6875H2.68732C2.23335 4.84966 1.79813 5.03024 1.47713 5.35124C1.15612 5.67225 0.975544 6.10746 0.975 6.56143V6.56161L0.975 38.4366L0.975 38.4368C0.975544 38.8908 1.15612 39.326 1.47713 39.647C1.79813 39.968 2.23335 40.1486 2.68732 40.1491Z" stroke="#002244" stroke-opacity="0.7" stroke-width="0.3"/>
<path d="M24.0929 26.2629H16.7129C16.63 26.2629 16.5505 26.2958 16.4919 26.3544C16.4333 26.413 16.4004 26.4925 16.4004 26.5754C16.4004 26.6582 16.4333 26.7377 16.4919 26.7963C16.5505 26.8549 16.63 26.8879 16.7129 26.8879H23.6766C23.8063 26.6732 23.9463 26.4654 24.0929 26.2629ZM17.0551 30.0097C17.0551 30.0926 17.088 30.1721 17.1466 30.2307C17.2052 30.2893 17.2847 30.3222 17.3676 30.3222H22.462C22.4907 30.1113 22.5257 29.9029 22.5688 29.6972H17.3676C17.2847 29.6972 17.2052 29.7301 17.1466 29.7888C17.088 29.8474 17.0551 29.9268 17.0551 30.0097ZM36.0466 26.4432C35.8445 26.2415 35.5706 26.1282 35.2851 26.1282C34.9995 26.1282 34.7256 26.2415 34.5235 26.4432L31.2529 29.7141L31.6948 30.156L33.536 28.3147L34.8432 29.6219L33.002 31.4632L33.4438 31.905L36.7148 28.6341C36.9164 28.432 37.0296 28.1582 37.0296 27.8727C37.0296 27.5872 36.9164 27.3134 36.7148 27.1113L36.0466 26.4432ZM36.2729 28.1922L35.2851 29.1797L33.9779 27.8725L34.9654 26.885C35.0503 26.8005 35.1653 26.753 35.2851 26.753C35.4049 26.753 35.5198 26.8005 35.6048 26.885L36.2729 27.5532C36.3575 27.638 36.405 27.7529 36.405 27.8727C36.405 27.9925 36.3575 28.1074 36.2729 28.1922ZM26.676 36.9969C26.7443 36.9969 26.812 36.9835 26.8751 36.9572L29.3588 35.9279C29.4549 35.8867 29.5362 35.8172 29.592 35.7288C29.6228 35.7149 29.6511 35.696 29.6757 35.6729L32.1182 33.2307L31.6763 32.7888L29.4551 35.01L28.1479 33.7029L30.3691 31.4816L29.9273 31.0397L27.4851 33.4822C27.4651 33.5044 27.4484 33.5293 27.4357 33.5563C27.3425 33.6122 27.2694 33.6961 27.2266 33.796L26.197 36.2791C26.1642 36.3579 26.1514 36.4436 26.1597 36.5286C26.168 36.6135 26.1971 36.6951 26.2445 36.7661C26.2919 36.8371 26.3561 36.8953 26.4313 36.9356C26.5066 36.9759 26.5907 36.9969 26.676 36.9969ZM27.7432 34.1822L28.9723 35.4113L26.8729 36.2816L27.7432 34.1822Z" fill="#002244" fill-opacity="0.7"/>
<path d="M29.4551 34.7979L31.5703 32.6827L31.6763 32.5767L31.7824 32.6827L32.2243 33.1246L32.3303 33.2307L32.2243 33.3367L29.7818 35.7789L29.7785 35.7822L29.7784 35.7822C29.753 35.8061 29.7249 35.827 29.6947 35.8444C29.6243 35.9416 29.5287 36.0182 29.4179 36.0657L29.4163 36.0664L29.4163 36.0664L26.9327 37.0957C26.8513 37.1295 26.7641 37.1469 26.676 37.1469L29.4551 34.7979ZM29.4551 34.7979L28.36 33.7029L30.4752 31.5877L30.5813 31.4816L30.4752 31.3755L30.0333 30.9337L29.9273 30.8276L29.8212 30.9337L27.379 33.3762L27.3789 33.376L27.3738 33.3816C27.3544 33.4031 27.3371 33.4264 27.3221 33.4512C27.2192 33.5224 27.1382 33.6214 27.0887 33.737L27.0881 33.7385L26.0584 36.2215L29.4551 34.7979ZM26.0104 36.5432C25.9997 36.4337 26.0162 36.3232 26.0584 36.2216L26.0104 36.5432ZM26.0104 36.5432C26.0211 36.6527 26.0587 36.7579 26.1197 36.8494L26.2445 36.7661M26.0104 36.5432L26.2445 36.7661M26.2445 36.7661L26.1197 36.8494C26.1808 36.9409 26.2636 37.016 26.3606 37.0679C26.4576 37.1198 26.5659 37.1469 26.676 37.1469L26.2445 36.7661ZM24.2144 26.3508L24.3866 26.1129H24.0929H16.7129C16.5902 26.1129 16.4726 26.1616 16.3859 26.2483C16.2991 26.3351 16.2504 26.4527 16.2504 26.5754C16.2504 26.698 16.2991 26.8157 16.3859 26.9024C16.4726 26.9891 16.5902 27.0379 16.7129 27.0379H23.6766H23.7613L23.805 26.9654C23.9322 26.7549 24.0698 26.5506 24.2144 26.3508ZM22.462 30.4722H22.5929L22.6106 30.3425C22.6389 30.1346 22.6733 29.9297 22.7156 29.728L22.7536 29.5472H22.5688H17.3676C17.2449 29.5472 17.1273 29.596 17.0405 29.6827C16.9538 29.7694 16.9051 29.8871 16.9051 30.0097C16.9051 30.1324 16.9538 30.25 17.0405 30.3368C17.1273 30.4235 17.2449 30.4722 17.3676 30.4722H22.462ZM36.1527 26.3371L36.1526 26.337C35.9224 26.1072 35.6104 25.9782 35.2851 25.9782C34.9598 25.9782 34.6478 26.1072 34.4176 26.337L34.4174 26.3371L31.1468 29.608L31.0408 29.7141L31.1468 29.8202L31.5887 30.262L31.6948 30.3681L31.8008 30.262L33.536 28.5269L34.6311 29.6219L32.8959 31.3571L32.7898 31.4632L32.8959 31.5692L33.3378 32.0111L33.4438 32.1172L33.5499 32.0111L36.8208 28.7402L36.821 28.74C37.0506 28.5098 37.1796 28.1979 37.1796 27.8727C37.1796 27.5475 37.0506 27.2356 36.821 27.0054L36.8208 27.0052L36.1527 26.3371ZM36.1667 28.0863L35.2851 28.9676L34.19 27.8725L35.0712 26.9913C35.128 26.9348 35.2049 26.903 35.2851 26.903C35.3652 26.903 35.4421 26.9348 35.4989 26.9913L36.1667 27.6591C36.2232 27.7158 36.255 27.7926 36.255 27.8727C36.255 27.9528 36.2232 28.0296 36.1667 28.0863ZM27.1503 36.0042L27.7958 34.447L28.7075 35.3587L27.1503 36.0042Z" stroke="#002244" stroke-opacity="0.7" stroke-width="0.3"/>
<path d="M23 31.5625C23 33.2313 23.4949 34.8626 24.422 36.2501C25.3491 37.6377 26.6669 38.7191 28.2086 39.3577C29.7504 39.9963 31.4469 40.1634 33.0836 39.8379C34.7203 39.5123 36.2237 38.7087 37.4037 37.5287C38.5837 36.3487 39.3873 34.8453 39.7129 33.2086C40.0384 31.5719 39.8713 29.8754 39.2327 28.3336C38.5941 26.7919 37.5127 25.4741 36.1251 24.547C34.7376 23.6199 33.1063 23.125 31.4375 23.125C29.2005 23.1275 27.0558 24.0172 25.474 25.599C23.8922 27.1808 23.0025 29.3255 23 31.5625ZM31.4375 23.75C32.9357 23.7488 34.4026 24.1787 35.6632 24.9885C36.9237 25.7983 37.9246 26.9537 38.5463 28.3168C39.168 29.6799 39.3843 31.1932 39.1694 32.6759C38.9546 34.1587 38.3175 35.5482 37.3344 36.6788L26.3209 25.6659C27.7386 24.4295 29.5564 23.7488 31.4375 23.75ZM36.9062 37.1347C35.4366 38.5718 33.4595 39.3715 31.404 39.36C29.3485 39.3485 27.3804 38.5269 25.9269 37.0734C24.4734 35.6199 23.6517 33.6519 23.6402 31.5964C23.6286 29.5409 24.4282 27.5637 25.8653 26.0941L36.9062 37.1347ZM4.25 30V36.25C4.25025 36.4986 4.3491 36.7369 4.52486 36.9126C4.70062 37.0884 4.93894 37.1873 5.1875 37.1875H11.4375C11.6861 37.1873 11.9244 37.0884 12.1001 36.9126C12.2759 36.7369 12.3748 36.4986 12.375 36.25V33.5178L11.75 34.0434V36.25C11.75 36.3329 11.7171 36.4124 11.6585 36.471C11.5999 36.5296 11.5204 36.5625 11.4375 36.5625H5.1875C5.10462 36.5625 5.02513 36.5296 4.96653 36.471C4.90792 36.4124 4.875 36.3329 4.875 36.25V30C4.875 29.9171 4.90792 29.8376 4.96653 29.779C5.02513 29.7204 5.10462 29.6875 5.1875 29.6875H11.4375C11.5204 29.6875 11.5999 29.7204 11.6585 29.779C11.7171 29.8376 11.75 29.9171 11.75 30V31.5934L12.375 31.0678V30C12.3748 29.7514 12.2759 29.5131 12.1001 29.3374C11.9244 29.1616 11.6861 29.0627 11.4375 29.0625H5.1875C4.93894 29.0627 4.70062 29.1616 4.52486 29.3374C4.3491 29.5131 4.25025 29.7514 4.25 30Z" fill="#002244" fill-opacity="0.7"/>
<path d="M22.85 31.5623V31.5625C22.85 33.2609 23.3536 34.9213 24.2973 36.3335C25.2409 37.7457 26.582 38.8463 28.1512 39.4963C29.7204 40.1463 31.447 40.3163 33.1128 39.985C34.7787 39.6536 36.3088 38.8358 37.5098 37.6348C38.7108 36.4338 39.5286 34.9037 39.86 33.2378C40.1913 31.572 40.0213 29.8454 39.3713 28.2762C38.7213 26.707 37.6207 25.3659 36.2085 24.4223C34.7963 23.4786 33.1359 22.975 31.4375 22.975L31.4373 22.975C29.1606 22.9775 26.9779 23.8831 25.368 25.493C23.7581 27.1029 22.8525 29.2856 22.85 31.5623ZM37.3255 36.4578L26.5418 25.6746C27.9136 24.5282 29.6462 23.8989 31.4374 23.9L31.4376 23.9C32.9071 23.8988 34.3458 24.3205 35.5821 25.1147C36.8184 25.9089 37.8 27.0421 38.4098 28.3791C39.0196 29.716 39.2318 31.2002 39.021 32.6544C38.8179 34.0555 38.2305 35.3718 37.3255 36.4578ZM4.1 29.9999V30L4.1 36.25L4.1 36.2501C4.10029 36.5384 4.21494 36.8148 4.4188 37.0187C4.62265 37.2226 4.89906 37.3372 5.18735 37.3375H5.1875H11.4375H11.4376C11.7259 37.3372 12.0023 37.2226 12.2062 37.0187C12.4101 36.8148 12.5247 36.5384 12.525 36.2501V36.25V33.5178V33.1957L12.2785 33.403L11.6535 33.9286L11.6 33.9736V34.0434V36.25C11.6 36.2931 11.5829 36.3344 11.5524 36.3649C11.5219 36.3954 11.4806 36.4125 11.4375 36.4125H5.1875C5.1444 36.4125 5.10307 36.3954 5.0726 36.3649C5.04212 36.3344 5.025 36.2931 5.025 36.25V30C5.025 29.9569 5.04212 29.9156 5.0726 29.8851C5.10307 29.8546 5.1444 29.8375 5.1875 29.8375H11.4375C11.4806 29.8375 11.5219 29.8546 11.5524 29.8851C11.5829 29.9156 11.6 29.9569 11.6 30V31.5934V31.9156L11.8465 31.7082L12.4715 31.1826L12.525 31.1377V31.0678V30V29.9999C12.5247 29.7116 12.4101 29.4352 12.2062 29.2313C12.0023 29.0274 11.7259 28.9128 11.4376 28.9125H11.4375H5.1875H5.18735C4.89906 28.9128 4.62265 29.0274 4.4188 29.2313C4.21494 29.4352 4.10029 29.7116 4.1 29.9999ZM25.8676 26.3084L36.6919 37.1324C35.2625 38.4759 33.3702 39.221 31.4048 39.21C29.3888 39.1987 27.4585 38.3929 26.033 36.9674C24.6074 35.5418 23.8015 33.6116 23.7902 31.5956C23.7791 29.6302 24.5242 27.7378 25.8676 26.3084Z" stroke="#002244" stroke-opacity="0.7" stroke-width="0.3"/>
<path d="M14.9588 30.1206C14.9324 30.0892 14.9001 30.0632 14.8636 30.0443C14.8272 30.0253 14.7874 30.0137 14.7464 30.0102C14.7055 30.0067 14.6643 30.0112 14.6251 30.0236C14.586 30.036 14.5496 30.056 14.5182 30.0825L9.7976 34.0528L8.41697 32.3225C8.39204 32.2889 8.3606 32.2606 8.32454 32.2394C8.28848 32.2182 8.24852 32.2044 8.20704 32.1989C8.16555 32.1934 8.12339 32.1963 8.08304 32.2074C8.0427 32.2185 8.005 32.2376 7.97217 32.2636C7.93935 32.2895 7.91208 32.3218 7.89197 32.3585C7.87186 32.3952 7.85932 32.4356 7.85511 32.4772C7.85089 32.5189 7.85508 32.5609 7.86742 32.6009C7.87977 32.6409 7.90002 32.678 7.92697 32.71L9.37385 34.5384C9.4244 34.6025 9.49794 34.6443 9.57885 34.655L9.85385 34.6903C9.86712 34.6919 9.88048 34.6927 9.89385 34.6928C9.96739 34.6928 10.0386 34.6668 10.0948 34.6194L14.9207 30.5609C14.9522 30.5345 14.9781 30.5022 14.9971 30.4657C15.016 30.4293 15.0276 30.3894 15.0311 30.3485C15.0347 30.3076 15.0301 30.2664 15.0177 30.2272C15.0053 30.1881 14.9853 30.152 14.9588 30.1206Z" fill="#002244" fill-opacity="0.7"/>
</g>
</g>
<defs>
<clipPath id="clip0_278_7780">
<rect width="40" height="40" fill="white" transform="translate(0.5)"/>
</clipPath>
<clipPath id="clip1_278_7780">
<rect width="40" height="40" fill="white" transform="translate(0.5)"/>
</clipPath>
</defs>
</svg>
