<svg width="40" height="40" viewBox="0 0 40 40" fill="none" xmlns="http://www.w3.org/2000/svg">
<path d="M33.6277 9.41506L27.686 3.47506C27.3252 3.11193 26.8959 2.82404 26.423 2.62807C25.9501 2.43209 25.443 2.33193 24.931 2.33339H14.931C13.6711 2.33412 12.4519 2.78008 11.4888 3.5925C10.5257 4.40492 9.88072 5.53155 9.66771 6.77339C8.42864 6.98787 7.30487 7.63235 6.494 8.59349C5.68314 9.55464 5.23712 10.7709 5.23438 12.0284V32.3201C5.2357 33.7377 5.79943 35.0969 6.80184 36.0993C7.80425 37.1017 9.16342 37.6654 10.581 37.6667H25.081C26.3393 37.6636 27.5561 37.2166 28.5171 36.4044C29.4781 35.5922 30.1217 34.4669 30.3344 33.2267C31.5746 33.0133 32.6998 32.369 33.5117 31.4074C34.3236 30.4458 34.7702 29.2286 34.7727 27.9701V12.1667C34.773 11.6552 34.672 11.1486 34.4755 10.6764C34.2789 10.2041 33.9908 9.77538 33.6277 9.41506ZM25.0744 35.6667H10.5744C9.68661 35.6658 8.83546 35.3128 8.20772 34.6851C7.57998 34.0573 7.22692 33.2062 7.22604 32.3184V12.0284C7.22815 11.3169 7.45787 10.6247 7.88161 10.0531C8.30534 9.48155 8.90086 9.06055 9.58104 8.85172V27.9701C9.58237 29.3878 10.146 30.7472 11.1484 31.7499C12.1508 32.7525 13.5099 33.3166 14.9277 33.3184H28.2527C28.0415 33.9969 27.6194 34.5904 27.0479 35.0127C26.4763 35.435 25.785 35.6641 25.0744 35.6667ZM32.7694 27.9701C32.7685 28.858 32.4155 29.7093 31.7878 30.3373C31.1601 30.9653 30.309 31.3187 29.421 31.3201H14.921C14.0331 31.3187 13.182 30.9653 12.5543 30.3373C11.9266 29.7093 11.5736 28.858 11.5727 27.9701V7.68172C11.5731 7.24158 11.6603 6.80583 11.8291 6.39935C11.998 5.99287 12.2452 5.62363 12.5567 5.31271C12.8683 5.00179 13.238 4.75528 13.6448 4.58724C14.0516 4.41921 14.4876 4.33295 14.9277 4.33339H24.9277C25.1772 4.33258 25.4243 4.38121 25.6549 4.47647C25.8855 4.57173 26.0949 4.71173 26.271 4.88839L32.2144 10.8334C32.3908 11.0097 32.5307 11.2191 32.6259 11.4497C32.7212 11.6802 32.7699 11.9273 32.7694 12.1767V27.9701ZM28.246 16.3767C28.246 16.6419 28.1407 16.8963 27.9531 17.0838C27.7656 17.2714 27.5113 17.3767 27.246 17.3767H17.1027C16.8375 17.3767 16.5831 17.2714 16.3956 17.0838C16.2081 16.8963 16.1027 16.6419 16.1027 16.3767C16.1027 16.1115 16.2081 15.8572 16.3956 15.6696C16.5831 15.4821 16.8375 15.3767 17.1027 15.3767H27.2477C27.5126 15.3772 27.7666 15.4827 27.9537 15.6702C28.1409 15.8577 28.246 16.1118 28.246 16.3767ZM28.246 22.7784C28.246 23.0436 28.1407 23.298 27.9531 23.4855C27.7656 23.673 27.5113 23.7784 27.246 23.7784H17.1027C16.8375 23.7784 16.5831 23.673 16.3956 23.4855C16.2081 23.298 16.1027 23.0436 16.1027 22.7784C16.1027 22.5132 16.2081 22.2588 16.3956 22.0713C16.5831 21.8837 16.8375 21.7784 17.1027 21.7784H27.2477C27.5126 21.7788 27.7666 21.8844 27.9537 22.0719C28.1409 22.2594 28.246 22.5135 28.246 22.7784Z" fill="#002244"/>
</svg>
