<svg width="22" height="22" viewBox="0 0 22 22" fill="none" xmlns="http://www.w3.org/2000/svg">
<g clip-path="url(#clip0_278_5302)">
<g clip-path="url(#clip1_278_5302)">
<path d="M16.9583 16.5C16.8368 16.5 16.7202 16.4517 16.6342 16.3658C16.5483 16.2798 16.5 16.1632 16.5 16.0417C16.5 15.9201 16.5483 15.8036 16.6342 15.7176C16.7202 15.6316 16.8368 15.5834 16.9583 15.5834C19.2326 15.5834 21.0833 13.7326 21.0833 11.4584C21.0833 9.1841 19.2326 7.33335 16.9583 7.33335C16.7466 7.3416 16.4661 7.17569 16.4331 6.94652C16.0178 4.03152 13.4851 1.83335 10.5417 1.83335C8.96201 1.83529 7.44762 2.46367 6.33063 3.58065C5.21365 4.69764 4.58527 6.21204 4.58333 7.79169C4.58333 8.05019 4.60533 8.32335 4.653 8.6506C4.66245 8.71633 4.65751 8.78332 4.63852 8.84695C4.61953 8.91058 4.58693 8.96932 4.543 9.0191C4.45408 9.11994 4.31933 9.16027 4.191 9.17402C4.15847 9.17278 4.12603 9.16972 4.09383 9.16485C2.35583 9.16669 0.916667 10.6059 0.916667 12.375C0.916667 14.1442 2.35583 15.5834 4.125 15.5834C4.24656 15.5834 4.36314 15.6316 4.44909 15.7176C4.53504 15.8036 4.58333 15.9201 4.58333 16.0417C4.58333 16.1632 4.53504 16.2798 4.44909 16.3658C4.36314 16.4517 4.24656 16.5 4.125 16.5C3.03135 16.4988 1.98285 16.0638 1.20952 15.2905C0.4362 14.5172 0.00121314 13.4687 0 12.375C0.00131635 11.3572 0.378305 10.3757 1.05868 9.61868C1.73905 8.86168 2.67492 8.38246 3.68683 8.27294C3.67352 8.11286 3.66679 7.95231 3.66667 7.79169C3.66667 4.00035 6.75033 0.916687 10.5417 0.916687C13.8087 0.916687 16.6384 3.26427 17.2755 6.43777C19.9448 6.62935 22 8.80827 22 11.4584C22 14.2386 19.7377 16.5 16.9583 16.5Z" fill="white"/>
<path d="M10.5417 21.0833C7.76233 21.0833 5.5 18.8219 5.5 16.0417C5.5 13.2614 7.76233 11 10.5417 11C13.321 11 15.5833 13.2614 15.5833 16.0417C15.5833 18.8219 13.321 21.0833 10.5417 21.0833ZM10.5417 11.9167C8.26742 11.9167 6.41667 13.7674 6.41667 16.0417C6.41667 18.3159 8.26742 20.1667 10.5417 20.1667C12.8159 20.1667 14.6667 18.3159 14.6667 16.0417C14.6667 13.7674 12.8159 11.9167 10.5417 11.9167Z" fill="white"/>
<path d="M10.5423 19.2499C10.4208 19.2499 10.3042 19.2016 10.2182 19.1157C10.1323 19.0297 10.084 18.9131 10.084 18.7916V13.2916C10.084 13.17 10.1323 13.0534 10.2182 12.9675C10.3042 12.8815 10.4208 12.8333 10.5423 12.8333C10.6639 12.8333 10.7805 12.8815 10.8664 12.9675C10.9524 13.0534 11.0007 13.17 11.0007 13.2916V18.7916C11.0007 18.9131 10.9524 19.0297 10.8664 19.1157C10.7805 19.2016 10.6639 19.2499 10.5423 19.2499Z" fill="white"/>
<path d="M12.3748 15.5835C12.2532 15.5835 12.1365 15.5354 12.0503 15.4497L10.5414 13.9399L9.0326 15.4487C8.94616 15.5322 8.83038 15.5784 8.71021 15.5774C8.59004 15.5763 8.47508 15.5281 8.3901 15.4432C8.30512 15.3582 8.25692 15.2432 8.25588 15.123C8.25483 15.0029 8.30103 14.8871 8.38452 14.8007L10.2179 12.9673C10.3038 12.8814 10.4204 12.8331 10.5419 12.8331C10.6634 12.8331 10.78 12.8814 10.8659 12.9673L12.6993 14.8007C12.7635 14.8648 12.8073 14.9465 12.8251 15.0355C12.8428 15.1245 12.8337 15.2168 12.799 15.3007C12.7642 15.3845 12.7054 15.4562 12.6298 15.5065C12.5543 15.5569 12.4655 15.5837 12.3748 15.5835Z" fill="white"/>
</g>
</g>
<defs>
<clipPath id="clip0_278_5302">
<rect width="22" height="22" fill="white"/>
</clipPath>
<clipPath id="clip1_278_5302">
<rect width="22" height="22" fill="white"/>
</clipPath>
</defs>
</svg>
