<svg width="41" height="40" viewBox="0 0 41 40" fill="none" xmlns="http://www.w3.org/2000/svg">
<g clip-path="url(#clip0_278_5325)">
<path d="M31.3333 30C31.1123 30 30.9004 29.9122 30.7441 29.7559C30.5878 29.5996 30.5 29.3877 30.5 29.1667C30.5 28.9456 30.5878 28.7337 30.7441 28.5774C30.9004 28.4211 31.1123 28.3333 31.3333 28.3333C35.4683 28.3333 38.8333 24.9683 38.8333 20.8333C38.8333 16.6983 35.4683 13.3333 31.3333 13.3333C30.9483 13.3483 30.4383 13.0467 30.3783 12.63C29.6233 7.32999 25.0183 3.33332 19.6667 3.33332C16.7946 3.33685 14.0411 4.47935 12.0102 6.51023C9.97936 8.54111 8.83686 11.2946 8.83333 14.1667C8.83333 14.6367 8.87333 15.1333 8.96 15.7283C8.97719 15.8478 8.9682 15.9696 8.93367 16.0853C8.89914 16.201 8.83988 16.3078 8.76 16.3983C8.59833 16.5817 8.35333 16.655 8.12 16.68C8.06085 16.6777 8.00186 16.6722 7.94333 16.6633C4.78333 16.6667 2.16667 19.2833 2.16667 22.5C2.16667 25.7167 4.78333 28.3333 8 28.3333C8.22101 28.3333 8.43297 28.4211 8.58926 28.5774C8.74554 28.7337 8.83333 28.9456 8.83333 29.1667C8.83333 29.3877 8.74554 29.5996 8.58926 29.7559C8.43297 29.9122 8.22101 30 8 30C6.01155 29.9978 4.10518 29.2069 2.69914 27.8009C1.29309 26.3948 0.502206 24.4884 0.5 22.5C0.502393 20.6494 1.18783 18.8648 2.42487 17.4885C3.66191 16.1121 5.36349 15.2408 7.20333 15.0417C7.17912 14.7506 7.16689 14.4587 7.16667 14.1667C7.16667 7.27332 12.7733 1.66666 19.6667 1.66666C25.6067 1.66666 30.7517 5.93499 31.91 11.705C36.7633 12.0533 40.5 16.015 40.5 20.8333C40.5 25.8883 36.3867 30 31.3333 30Z" fill="#002244"/>
<path d="M19.6667 38.3333C14.6133 38.3333 10.5 34.2217 10.5 29.1667C10.5 24.1117 14.6133 20 19.6667 20C24.72 20 28.8333 24.1117 28.8333 29.1667C28.8333 34.2217 24.72 38.3333 19.6667 38.3333ZM19.6667 21.6667C15.5317 21.6667 12.1667 25.0317 12.1667 29.1667C12.1667 33.3017 15.5317 36.6667 19.6667 36.6667C23.8017 36.6667 27.1667 33.3017 27.1667 29.1667C27.1667 25.0317 23.8017 21.6667 19.6667 21.6667Z" fill="#002244"/>
<path d="M19.6673 34.9999C19.4463 34.9999 19.2343 34.9121 19.0781 34.7558C18.9218 34.5996 18.834 34.3876 18.834 34.1666V24.1666C18.834 23.9456 18.9218 23.7336 19.0781 23.5773C19.2343 23.421 19.4463 23.3333 19.6673 23.3333C19.8883 23.3333 20.1003 23.421 20.2566 23.5773C20.4129 23.7336 20.5007 23.9456 20.5007 24.1666V34.1666C20.5007 34.3876 20.4129 34.5996 20.2566 34.7558C20.1003 34.9121 19.8883 34.9999 19.6673 34.9999Z" fill="#002244"/>
<path d="M23.0006 28.3334C22.7796 28.3334 22.5674 28.246 22.4106 28.0901L19.6673 25.3451L16.924 28.0884C16.7668 28.2402 16.5563 28.3242 16.3378 28.3223C16.1193 28.3204 15.9103 28.2328 15.7558 28.0783C15.6013 27.9238 15.5136 27.7147 15.5118 27.4963C15.5099 27.2778 15.5938 27.0673 15.7456 26.9101L19.079 23.5768C19.2353 23.4205 19.4472 23.3328 19.6681 23.3328C19.8891 23.3328 20.101 23.4205 20.2573 23.5768L23.5906 26.9101C23.7075 27.0266 23.7871 27.1753 23.8194 27.3371C23.8517 27.4989 23.8351 27.6667 23.772 27.8192C23.7088 27.9716 23.6017 28.1019 23.4644 28.1935C23.3271 28.285 23.1657 28.3337 23.0006 28.3334Z" fill="#002244"/>
</g>
<defs>
<clipPath id="clip0_278_5325">
<rect width="40" height="40" fill="white" transform="translate(0.5)"/>
</clipPath>
</defs>
</svg>
