<svg width="40" height="40" viewBox="0 0 40 40" fill="none" xmlns="http://www.w3.org/2000/svg">
<path d="M27.2263 10.5467C27.2263 10.9295 27.199 11.3084 27.1482 11.6873C27.1638 11.5818 27.1756 11.4802 27.1912 11.3748C27.0896 12.1092 26.8943 12.8201 26.6092 13.5037C26.6482 13.4099 26.6873 13.3162 26.7263 13.2224C26.5154 13.7146 26.2654 14.1834 25.9646 14.6287C25.8865 14.742 25.8084 14.8552 25.7263 14.9646C25.5545 15.1951 25.8748 14.781 25.7537 14.9295C25.7107 14.9842 25.6678 15.0349 25.6248 15.0896C25.4607 15.2849 25.2888 15.4763 25.1092 15.656C24.9295 15.8357 24.7381 16.0115 24.5428 16.1717C24.492 16.2146 24.4373 16.2576 24.3826 16.3006C24.2303 16.4217 24.6482 16.1013 24.4178 16.2732C24.3084 16.3552 24.1951 16.4334 24.0818 16.5115C23.6404 16.8084 23.1678 17.0623 22.6756 17.2732C22.7693 17.2342 22.8631 17.1951 22.9568 17.156C22.2732 17.4412 21.5584 17.6365 20.8279 17.7381C20.9334 17.7224 21.0349 17.7107 21.1404 17.6951C20.3826 17.7967 19.617 17.7967 18.8631 17.6951C18.9685 17.7107 19.0701 17.7224 19.1756 17.7381C18.4412 17.6365 17.7303 17.4412 17.0467 17.156C17.1404 17.1951 17.2342 17.2342 17.3279 17.2732C16.8357 17.0623 16.367 16.8123 15.9217 16.5115C15.8084 16.4334 15.6951 16.3552 15.5857 16.2732C15.3553 16.1013 15.7693 16.4217 15.6209 16.3006C15.5662 16.2576 15.5154 16.2146 15.4607 16.1717C15.2654 16.0076 15.074 15.8357 14.8943 15.656C14.7146 15.4763 14.5388 15.2849 14.3787 15.0896C14.3357 15.0388 14.2928 14.9842 14.2498 14.9295C14.1287 14.7771 14.449 15.1951 14.2771 14.9646C14.1951 14.8552 14.117 14.742 14.0388 14.6287C13.742 14.1873 13.4881 13.7146 13.2771 13.2224C13.3162 13.3162 13.3553 13.4099 13.3943 13.5037C13.1092 12.8201 12.9138 12.1052 12.8123 11.3748C12.8279 11.4802 12.8396 11.5818 12.8553 11.6873C12.7537 10.9295 12.7537 10.1638 12.8553 9.40994C12.8396 9.5154 12.8279 9.61697 12.8123 9.72244C12.9138 8.98806 13.1092 8.27712 13.3943 7.59353C13.3553 7.68728 13.3162 7.78103 13.2771 7.87478C13.4881 7.38259 13.7381 6.91384 14.0388 6.46853C14.117 6.35525 14.1951 6.24197 14.2771 6.13259C14.449 5.90212 14.1287 6.31619 14.2498 6.16775C14.2928 6.11306 14.3357 6.06228 14.3787 6.00759C14.5428 5.81228 14.7146 5.62087 14.8943 5.44119C15.074 5.2615 15.2654 5.08572 15.4607 4.92556C15.5115 4.88259 15.5662 4.83962 15.6209 4.79666C15.7732 4.67556 15.3553 4.99587 15.5857 4.824C15.6951 4.74197 15.8084 4.66384 15.9217 4.58572C16.3631 4.28884 16.8357 4.03494 17.3279 3.824C17.2342 3.86306 17.1404 3.90212 17.0467 3.94119C17.7303 3.65603 18.4451 3.46072 19.1756 3.35916C19.0701 3.37478 18.9685 3.3865 18.8631 3.40212C19.6209 3.30056 20.3865 3.30056 21.1404 3.40212C21.0349 3.3865 20.9334 3.37478 20.8279 3.35916C21.5623 3.46072 22.2732 3.65603 22.9568 3.94119C22.8631 3.90212 22.7693 3.86306 22.6756 3.824C23.1678 4.03494 23.6365 4.28494 24.0818 4.58572C24.1951 4.66384 24.3084 4.74197 24.4178 4.824C24.6482 4.99587 24.2342 4.67556 24.3826 4.79666C24.4373 4.83962 24.4881 4.88259 24.5428 4.92556C24.7381 5.08962 24.9295 5.2615 25.1092 5.44119C25.2888 5.62087 25.4646 5.81228 25.6248 6.00759C25.6678 6.05837 25.7107 6.11306 25.7537 6.16775C25.8748 6.32009 25.5545 5.90212 25.7263 6.13259C25.8084 6.24197 25.8865 6.35525 25.9646 6.46853C26.2615 6.90994 26.5154 7.38259 26.7263 7.87478C26.6873 7.78103 26.6482 7.68728 26.6092 7.59353C26.8943 8.27712 27.0896 8.99197 27.1912 9.72244C27.1756 9.61697 27.1638 9.5154 27.1482 9.40994C27.199 9.78494 27.2263 10.1638 27.2263 10.5467C27.2303 11.1599 27.7654 11.7459 28.3982 11.7185C29.031 11.6912 29.574 11.2029 29.5701 10.5467C29.5623 8.61697 28.9803 6.66775 27.8592 5.08962C26.6951 3.45291 25.1053 2.23025 23.2185 1.53494C21.3826 0.855249 19.2888 0.800562 17.406 1.33181C15.5857 1.84353 13.8865 2.92166 12.6834 4.3865C11.3904 5.96072 10.6209 7.83181 10.4568 9.86306C10.3006 11.8084 10.7928 13.8201 11.8006 15.4881C12.7732 17.0896 14.2342 18.4373 15.949 19.2146C17.8513 20.074 19.9256 20.324 21.9763 19.9099C23.8318 19.5349 25.5818 18.5506 26.8904 17.1873C28.2107 15.8123 29.1443 14.0232 29.4295 12.1326C29.5076 11.6052 29.5662 11.0818 29.5662 10.5506C29.5701 9.93728 29.0271 9.35134 28.3943 9.37869C27.7615 9.40212 27.2303 9.8904 27.2263 10.5467ZM32.4607 36.6795C31.6248 36.6795 30.7888 36.6795 29.9529 36.6795C27.949 36.6795 25.9451 36.6795 23.9412 36.6795C21.5271 36.6795 19.1092 36.6795 16.6951 36.6795C14.6326 36.6795 12.5701 36.6795 10.5037 36.6795C9.52322 36.6795 8.54275 36.6834 7.56228 36.6795C7.46463 36.6795 7.36306 36.6756 7.26541 36.6638C7.37088 36.6795 7.47244 36.6912 7.57791 36.7068C7.36697 36.6795 7.16775 36.6248 6.97244 36.5427C7.06619 36.5818 7.15994 36.6209 7.25369 36.6599C7.12869 36.6052 7.0076 36.5388 6.89431 36.4646C6.65603 36.3045 7.0701 36.6248 6.92947 36.492C6.8865 36.4529 6.83963 36.4138 6.79666 36.3709C6.75369 36.3279 6.71463 36.2849 6.67556 36.2381C6.54666 36.0974 6.86306 36.5076 6.70291 36.2732C6.62478 36.1599 6.56228 36.0388 6.5076 35.9138C6.54666 36.0076 6.58572 36.1013 6.62478 36.1951C6.54275 35.9998 6.48806 35.8006 6.46072 35.5896C6.47635 35.6951 6.48806 35.7966 6.50369 35.9021C6.43728 35.3084 6.48806 34.6873 6.48806 34.0935C6.48806 33.367 6.49197 32.6443 6.58572 31.9217C6.5701 32.0271 6.55838 32.1287 6.54275 32.2342C6.67556 31.2732 6.92947 30.3318 7.30447 29.4373C7.26541 29.531 7.22635 29.6248 7.18728 29.7185C7.40213 29.2068 7.65603 28.7146 7.9451 28.242C8.08963 28.0076 8.24197 27.7771 8.40213 27.5545C8.44119 27.4998 8.48416 27.4412 8.52322 27.3865C8.54275 27.3592 8.56619 27.3318 8.58572 27.3045C8.69119 27.1638 8.49588 27.4217 8.49588 27.4177C8.53494 27.3045 8.6951 27.1677 8.77322 27.0779C9.12869 26.6599 9.51541 26.2654 9.92556 25.9021C10.0232 25.8162 10.1209 25.7342 10.2185 25.6521C10.2732 25.6092 10.324 25.5662 10.3787 25.5232C10.4412 25.4724 10.5506 25.3982 10.2654 25.6131C10.3006 25.5857 10.3318 25.5623 10.367 25.5349C10.5857 25.3709 10.8123 25.2146 11.0467 25.0662C11.5779 24.7263 12.1404 24.4334 12.7224 24.1873C12.6287 24.2263 12.5349 24.2654 12.4412 24.3045C13.3357 23.9295 14.2771 23.6756 15.2381 23.5427C15.1326 23.5584 15.031 23.5701 14.9256 23.5857C16.1404 23.4256 17.3904 23.4881 18.6131 23.4881C20.1053 23.4881 21.5974 23.4881 23.0896 23.4881C23.7576 23.4881 24.4217 23.4998 25.0857 23.5857C24.9803 23.5701 24.8787 23.5584 24.7732 23.5427C25.7342 23.6756 26.6756 23.9295 27.5701 24.3045C27.4763 24.2654 27.3826 24.2263 27.2888 24.1873C27.8006 24.4021 28.2928 24.656 28.7654 24.9451C28.9998 25.0896 29.2303 25.242 29.4529 25.4021C29.5076 25.4412 29.5662 25.4842 29.6209 25.5232C29.6482 25.5427 29.6756 25.5662 29.7029 25.5857C29.8435 25.6912 29.5857 25.4959 29.5896 25.4959C29.7029 25.5349 29.8396 25.6951 29.9295 25.7732C30.3474 26.1287 30.742 26.5154 31.1053 26.9256C31.1912 27.0232 31.2732 27.1209 31.3553 27.2185C31.3982 27.2732 31.4412 27.324 31.4842 27.3787C31.5349 27.4412 31.6092 27.5506 31.3943 27.2654C31.4217 27.3006 31.4451 27.3318 31.4724 27.367C31.6365 27.5857 31.7928 27.8123 31.9412 28.0467C32.281 28.5779 32.574 29.1404 32.8201 29.7224C32.781 29.6287 32.742 29.5349 32.7029 29.4412C33.0779 30.3357 33.3318 31.2771 33.4646 32.2381C33.449 32.1326 33.4373 32.031 33.4217 31.9256C33.5154 32.6482 33.5193 33.3709 33.5193 34.0974C33.5193 34.6951 33.5701 35.3123 33.5037 35.906C33.5193 35.8006 33.531 35.699 33.5467 35.5935C33.5193 35.8045 33.4646 36.0037 33.3826 36.199C33.4217 36.1052 33.4607 36.0115 33.4998 35.9177C33.4451 36.0427 33.3787 36.1638 33.3045 36.2771C33.1443 36.5154 33.4646 36.1013 33.3318 36.242C33.2928 36.2849 33.2537 36.3318 33.2107 36.3748C33.1678 36.4177 33.1248 36.4568 33.0779 36.4959C32.9373 36.6248 33.3474 36.3084 33.1131 36.4685C32.9998 36.5466 32.8787 36.6091 32.7537 36.6638C32.8474 36.6248 32.9412 36.5857 33.0349 36.5466C32.8396 36.6287 32.6404 36.6834 32.4295 36.7107C32.5349 36.6951 32.6365 36.6834 32.742 36.6677C32.6404 36.6717 32.5506 36.6795 32.4607 36.6795C31.8474 36.6873 31.2615 37.2146 31.2888 37.8513C31.3162 38.4802 31.8045 39.031 32.4607 39.0232C33.8123 39.0076 35.0506 38.2029 35.5779 36.9529C35.8748 36.2498 35.8592 35.5349 35.8592 34.7888C35.8592 34.2654 35.867 33.7381 35.8592 33.2146C35.8435 32.156 35.6912 31.0857 35.4021 30.0662C34.8435 28.0935 33.7732 26.2654 32.3357 24.8045C30.8982 23.3435 29.0896 22.2498 27.1287 21.6521C25.8045 21.2498 24.4373 21.1326 23.0623 21.1326C21.8201 21.1326 20.5818 21.1326 19.3396 21.1326C18.3709 21.1326 17.4021 21.1326 16.4373 21.1326C14.5428 21.1326 12.6912 21.5701 10.9881 22.3982C9.14431 23.2927 7.58181 24.6834 6.39041 26.3357C5.17166 28.0232 4.46463 30.0115 4.22244 32.0701C4.14431 32.7146 4.14431 33.3631 4.14431 34.0115C4.14431 34.5467 4.14041 35.0818 4.14431 35.6209C4.15603 36.867 4.86306 38.1013 6.00369 38.6482C6.52322 38.8982 7.05838 39.0193 7.6326 39.0193C8.10135 39.0193 8.56619 39.0193 9.03494 39.0193C9.95681 39.0193 10.8787 39.0193 11.8006 39.0193C13.0232 39.0193 14.2459 39.0193 15.4685 39.0193C16.8553 39.0193 18.2459 39.0193 19.6326 39.0193C21.0349 39.0193 22.4334 39.0193 23.8357 39.0193C25.0974 39.0193 26.3592 39.0193 27.617 39.0193C28.6013 39.0193 29.5896 39.0193 30.574 39.0193C31.1287 39.0193 31.6873 39.0193 32.242 39.0193C32.3162 39.0193 32.3904 39.0193 32.4646 39.0193C33.0779 39.0193 33.6638 38.4802 33.6365 37.8474C33.6053 37.2146 33.117 36.6795 32.4607 36.6795Z" fill="#002244" fill-opacity="0.7"/>
</svg>
